<?xml version="1.0" encoding="utf-8" standalone="no"?>
<!DOCTYPE svg PUBLIC "-//W3C//DTD SVG 1.1//EN"
  "http://www.w3.org/Graphics/SVG/1.1/DTD/svg11.dtd">
<svg xmlns:xlink="http://www.w3.org/1999/xlink" width="1008pt" height="360pt" viewBox="0 0 1008 360" xmlns="http://www.w3.org/2000/svg" version="1.1">
 <metadata>
  <rdf:RDF xmlns:dc="http://purl.org/dc/elements/1.1/" xmlns:cc="http://creativecommons.org/ns#" xmlns:rdf="http://www.w3.org/1999/02/22-rdf-syntax-ns#">
   <cc:Work>
    <dc:type rdf:resource="http://purl.org/dc/dcmitype/StillImage"/>
    <dc:date>2026-03-22T19:25:53.264063</dc:date>
    <dc:format>image/svg+xml</dc:format>
    <dc:creator>
     <cc:Agent>
      <dc:title>Matplotlib v3.10.8, https://matplotlib.org/</dc:title>
     </cc:Agent>
    </dc:creator>
   </cc:Work>
  </rdf:RDF>
 </metadata>
 <defs>
  <style type="text/css">*{stroke-linejoin: round; stroke-linecap: butt}</style>
 </defs>
 <g id="figure_1">
  <g id="patch_1">
   <path d="M 0 360 
L 1008 360 
L 1008 0 
L 0 0 
z
" style="fill: #ffffff"/>
  </g>
  <g id="axes_1">
   <g id="patch_2">
    <path d="M 57.17 321.23 
L 501.586875 321.23 
L 501.586875 26.88 
L 57.17 26.88 
z
" style="fill: #ffffff"/>
   </g>
   <g id="patch_3">
    <path d="M 112.722109 321.23 
L 223.826328 321.23 
L 223.826328 320.863711 
L 112.722109 320.863711 
z
" clip-path="url(#p02fb26862a)" style="fill: #f4a261"/>
   </g>
   <g id="patch_4">
    <path d="M 334.930547 321.23 
L 446.034766 321.23 
L 446.034766 320.497422 
L 334.930547 320.497422 
z
" clip-path="url(#p02fb26862a)" style="fill: #f4a261"/>
   </g>
   <g id="patch_5">
    <path d="M 112.722109 320.863711 
L 223.826328 320.863711 
L 223.826328 276.542718 
L 112.722109 276.542718 
z
" clip-path="url(#p02fb26862a)" style="fill: #e76f51"/>
   </g>
   <g id="patch_6">
    <path d="M 334.930547 320.497422 
L 446.034766 320.497422 
L 446.034766 286.798815 
L 334.930547 286.798815 
z
" clip-path="url(#p02fb26862a)" style="fill: #e76f51"/>
   </g>
   <g id="patch_7">
    <path d="M 112.722109 276.542718 
L 223.826328 276.542718 
L 223.826328 262.623728 
L 112.722109 262.623728 
z
" clip-path="url(#p02fb26862a)" style="fill: #457b9d"/>
   </g>
   <g id="patch_8">
    <path d="M 334.930547 286.798815 
L 446.034766 286.798815 
L 446.034766 239.913798 
L 334.930547 239.913798 
z
" clip-path="url(#p02fb26862a)" style="fill: #457b9d"/>
   </g>
   <g id="patch_9">
    <path d="M 112.722109 262.623728 
L 223.826328 262.623728 
L 223.826328 250.536185 
L 112.722109 250.536185 
z
" clip-path="url(#p02fb26862a)" style="fill: #2a9d8f"/>
   </g>
   <g id="patch_10">
    <path d="M 334.930547 239.913798 
L 446.034766 239.913798 
L 446.034766 177.766731 
L 334.930547 177.766731 
z
" clip-path="url(#p02fb26862a)" style="fill: #2a9d8f"/>
   </g>
   <g id="patch_11">
    <path d="M 112.722109 250.536185 
L 223.826328 250.536185 
L 223.826328 239.913798 
L 112.722109 239.913798 
z
" clip-path="url(#p02fb26862a)" style="fill: #8338ec"/>
   </g>
   <g id="patch_12">
    <path d="M 334.930547 177.766731 
L 446.034766 177.766731 
L 446.034766 74.106887 
L 334.930547 74.106887 
z
" clip-path="url(#p02fb26862a)" style="fill: #8338ec"/>
   </g>
   <g id="patch_13">
    <path d="M 112.722109 239.913798 
L 223.826328 239.913798 
L 223.826328 238.448641 
L 112.722109 238.448641 
z
" clip-path="url(#p02fb26862a)" style="fill: #adb5bd"/>
   </g>
   <g id="patch_14">
    <path d="M 334.930547 74.106887 
L 446.034766 74.106887 
L 446.034766 40.896667 
L 334.930547 40.896667 
z
" clip-path="url(#p02fb26862a)" style="fill: #adb5bd"/>
   </g>
   <g id="matplotlib.axis_1">
    <g id="xtick_1">
     <g id="line2d_1">
      <defs>
       <path id="me276aa8286" d="M 0 0 
L 0 3.5 
" style="stroke: #000000; stroke-width: 0.8"/>
      </defs>
      <g>
       <use xlink:href="#me276aa8286" x="168.274219" y="321.23" style="stroke: #000000; stroke-width: 0.8"/>
      </g>
     </g>
     <g id="text_1">
      <!-- P/LP -->
      <g transform="translate(171.033594 349.23) rotate(-90) scale(0.1 -0.1)">
       <defs>
        <path id="DejaVuSans-50" d="M 1259 4147 
L 1259 2394 
L 2053 2394 
Q 2494 2394 2734 2622 
Q 2975 2850 2975 3272 
Q 2975 3691 2734 3919 
Q 2494 4147 2053 4147 
L 1259 4147 
z
M 628 4666 
L 2053 4666 
Q 2838 4666 3239 4311 
Q 3641 3956 3641 3272 
Q 3641 2581 3239 2228 
Q 2838 1875 2053 1875 
L 1259 1875 
L 1259 0 
L 628 0 
L 628 4666 
z
" transform="scale(0.015625)"/>
        <path id="DejaVuSans-2f" d="M 1625 4666 
L 2156 4666 
L 531 -594 
L 0 -594 
L 1625 4666 
z
" transform="scale(0.015625)"/>
        <path id="DejaVuSans-4c" d="M 628 4666 
L 1259 4666 
L 1259 531 
L 3531 531 
L 3531 0 
L 628 0 
L 628 4666 
z
" transform="scale(0.015625)"/>
       </defs>
       <use xlink:href="#DejaVuSans-50"/>
       <use xlink:href="#DejaVuSans-2f" transform="translate(60.302734 0)"/>
       <use xlink:href="#DejaVuSans-4c" transform="translate(93.994141 0)"/>
       <use xlink:href="#DejaVuSans-50" transform="translate(149.707031 0)"/>
      </g>
     </g>
    </g>
    <g id="xtick_2">
     <g id="line2d_2">
      <g>
       <use xlink:href="#me276aa8286" x="390.482656" y="321.23" style="stroke: #000000; stroke-width: 0.8"/>
      </g>
     </g>
     <g id="text_2">
      <!-- VUS -->
      <g transform="translate(393.242031 348.737813) rotate(-90) scale(0.1 -0.1)">
       <defs>
        <path id="DejaVuSans-56" d="M 1831 0 
L 50 4666 
L 709 4666 
L 2188 738 
L 3669 4666 
L 4325 4666 
L 2547 0 
L 1831 0 
z
" transform="scale(0.015625)"/>
        <path id="DejaVuSans-55" d="M 556 4666 
L 1191 4666 
L 1191 1831 
Q 1191 1081 1462 751 
Q 1734 422 2344 422 
Q 2950 422 3222 751 
Q 3494 1081 3494 1831 
L 3494 4666 
L 4128 4666 
L 4128 1753 
Q 4128 841 3676 375 
Q 3225 -91 2344 -91 
Q 1459 -91 1007 375 
Q 556 841 556 1753 
L 556 4666 
z
" transform="scale(0.015625)"/>
        <path id="DejaVuSans-53" d="M 3425 4513 
L 3425 3897 
Q 3066 4069 2747 4153 
Q 2428 4238 2131 4238 
Q 1616 4238 1336 4038 
Q 1056 3838 1056 3469 
Q 1056 3159 1242 3001 
Q 1428 2844 1947 2747 
L 2328 2669 
Q 3034 2534 3370 2195 
Q 3706 1856 3706 1288 
Q 3706 609 3251 259 
Q 2797 -91 1919 -91 
Q 1588 -91 1214 -16 
Q 841 59 441 206 
L 441 856 
Q 825 641 1194 531 
Q 1563 422 1919 422 
Q 2459 422 2753 634 
Q 3047 847 3047 1241 
Q 3047 1584 2836 1778 
Q 2625 1972 2144 2069 
L 1759 2144 
Q 1053 2284 737 2584 
Q 422 2884 422 3419 
Q 422 4038 858 4394 
Q 1294 4750 2059 4750 
Q 2388 4750 2728 4690 
Q 3069 4631 3425 4513 
z
" transform="scale(0.015625)"/>
       </defs>
       <use xlink:href="#DejaVuSans-56"/>
       <use xlink:href="#DejaVuSans-55" transform="translate(68.408203 0)"/>
       <use xlink:href="#DejaVuSans-53" transform="translate(141.601562 0)"/>
      </g>
     </g>
    </g>
   </g>
   <g id="matplotlib.axis_2">
    <g id="ytick_1">
     <g id="line2d_3">
      <defs>
       <path id="mfafd59d27f" d="M 0 0 
L -3.5 0 
" style="stroke: #000000; stroke-width: 0.8"/>
      </defs>
      <g>
       <use xlink:href="#mfafd59d27f" x="57.17" y="321.23" style="stroke: #000000; stroke-width: 0.8"/>
      </g>
     </g>
     <g id="text_3">
      <!-- 0 -->
      <g transform="translate(43.8075 325.029219) scale(0.1 -0.1)">
       <defs>
        <path id="DejaVuSans-30" d="M 2034 4250 
Q 1547 4250 1301 3770 
Q 1056 3291 1056 2328 
Q 1056 1369 1301 889 
Q 1547 409 2034 409 
Q 2525 409 2770 889 
Q 3016 1369 3016 2328 
Q 3016 3291 2770 3770 
Q 2525 4250 2034 4250 
z
M 2034 4750 
Q 2819 4750 3233 4129 
Q 3647 3509 3647 2328 
Q 3647 1150 3233 529 
Q 2819 -91 2034 -91 
Q 1250 -91 836 529 
Q 422 1150 422 2328 
Q 422 3509 836 4129 
Q 1250 4750 2034 4750 
z
" transform="scale(0.015625)"/>
       </defs>
       <use xlink:href="#DejaVuSans-30"/>
      </g>
     </g>
    </g>
    <g id="ytick_2">
     <g id="line2d_4">
      <g>
       <use xlink:href="#mfafd59d27f" x="57.17" y="260.1818" style="stroke: #000000; stroke-width: 0.8"/>
      </g>
     </g>
     <g id="text_4">
      <!-- 500 -->
      <g transform="translate(31.0825 263.981019) scale(0.1 -0.1)">
       <defs>
        <path id="DejaVuSans-35" d="M 691 4666 
L 3169 4666 
L 3169 4134 
L 1269 4134 
L 1269 2991 
Q 1406 3038 1543 3061 
Q 1681 3084 1819 3084 
Q 2600 3084 3056 2656 
Q 3513 2228 3513 1497 
Q 3513 744 3044 326 
Q 2575 -91 1722 -91 
Q 1428 -91 1123 -41 
Q 819 9 494 109 
L 494 744 
Q 775 591 1075 516 
Q 1375 441 1709 441 
Q 2250 441 2565 725 
Q 2881 1009 2881 1497 
Q 2881 1984 2565 2268 
Q 2250 2553 1709 2553 
Q 1456 2553 1204 2497 
Q 953 2441 691 2322 
L 691 4666 
z
" transform="scale(0.015625)"/>
       </defs>
       <use xlink:href="#DejaVuSans-35"/>
       <use xlink:href="#DejaVuSans-30" transform="translate(63.623047 0)"/>
       <use xlink:href="#DejaVuSans-30" transform="translate(127.246094 0)"/>
      </g>
     </g>
    </g>
    <g id="ytick_3">
     <g id="line2d_5">
      <g>
       <use xlink:href="#mfafd59d27f" x="57.17" y="199.1336" style="stroke: #000000; stroke-width: 0.8"/>
      </g>
     </g>
     <g id="text_5">
      <!-- 1000 -->
      <g transform="translate(24.72 202.932819) scale(0.1 -0.1)">
       <defs>
        <path id="DejaVuSans-31" d="M 794 531 
L 1825 531 
L 1825 4091 
L 703 3866 
L 703 4441 
L 1819 4666 
L 2450 4666 
L 2450 531 
L 3481 531 
L 3481 0 
L 794 0 
L 794 531 
z
" transform="scale(0.015625)"/>
       </defs>
       <use xlink:href="#DejaVuSans-31"/>
       <use xlink:href="#DejaVuSans-30" transform="translate(63.623047 0)"/>
       <use xlink:href="#DejaVuSans-30" transform="translate(127.246094 0)"/>
       <use xlink:href="#DejaVuSans-30" transform="translate(190.869141 0)"/>
      </g>
     </g>
    </g>
    <g id="ytick_4">
     <g id="line2d_6">
      <g>
       <use xlink:href="#mfafd59d27f" x="57.17" y="138.085401" style="stroke: #000000; stroke-width: 0.8"/>
      </g>
     </g>
     <g id="text_6">
      <!-- 1500 -->
      <g transform="translate(24.72 141.884619) scale(0.1 -0.1)">
       <use xlink:href="#DejaVuSans-31"/>
       <use xlink:href="#DejaVuSans-35" transform="translate(63.623047 0)"/>
       <use xlink:href="#DejaVuSans-30" transform="translate(127.246094 0)"/>
       <use xlink:href="#DejaVuSans-30" transform="translate(190.869141 0)"/>
      </g>
     </g>
    </g>
    <g id="ytick_5">
     <g id="line2d_7">
      <g>
       <use xlink:href="#mfafd59d27f" x="57.17" y="77.037201" style="stroke: #000000; stroke-width: 0.8"/>
      </g>
     </g>
     <g id="text_7">
      <!-- 2000 -->
      <g transform="translate(24.72 80.83642) scale(0.1 -0.1)">
       <defs>
        <path id="DejaVuSans-32" d="M 1228 531 
L 3431 531 
L 3431 0 
L 469 0 
L 469 531 
Q 828 903 1448 1529 
Q 2069 2156 2228 2338 
Q 2531 2678 2651 2914 
Q 2772 3150 2772 3378 
Q 2772 3750 2511 3984 
Q 2250 4219 1831 4219 
Q 1534 4219 1204 4116 
Q 875 4013 500 3803 
L 500 4441 
Q 881 4594 1212 4672 
Q 1544 4750 1819 4750 
Q 2544 4750 2975 4387 
Q 3406 4025 3406 3419 
Q 3406 3131 3298 2873 
Q 3191 2616 2906 2266 
Q 2828 2175 2409 1742 
Q 1991 1309 1228 531 
z
" transform="scale(0.015625)"/>
       </defs>
       <use xlink:href="#DejaVuSans-32"/>
       <use xlink:href="#DejaVuSans-30" transform="translate(63.623047 0)"/>
       <use xlink:href="#DejaVuSans-30" transform="translate(127.246094 0)"/>
       <use xlink:href="#DejaVuSans-30" transform="translate(190.869141 0)"/>
      </g>
     </g>
    </g>
    <g id="text_8">
     <!-- Variant Count -->
     <g transform="translate(18.640312 208.226875) rotate(-90) scale(0.1 -0.1)">
      <defs>
       <path id="DejaVuSans-61" d="M 2194 1759 
Q 1497 1759 1228 1600 
Q 959 1441 959 1056 
Q 959 750 1161 570 
Q 1363 391 1709 391 
Q 2188 391 2477 730 
Q 2766 1069 2766 1631 
L 2766 1759 
L 2194 1759 
z
M 3341 1997 
L 3341 0 
L 2766 0 
L 2766 531 
Q 2569 213 2275 61 
Q 1981 -91 1556 -91 
Q 1019 -91 701 211 
Q 384 513 384 1019 
Q 384 1609 779 1909 
Q 1175 2209 1959 2209 
L 2766 2209 
L 2766 2266 
Q 2766 2663 2505 2880 
Q 2244 3097 1772 3097 
Q 1472 3097 1187 3025 
Q 903 2953 641 2809 
L 641 3341 
Q 956 3463 1253 3523 
Q 1550 3584 1831 3584 
Q 2591 3584 2966 3190 
Q 3341 2797 3341 1997 
z
" transform="scale(0.015625)"/>
       <path id="DejaVuSans-72" d="M 2631 2963 
Q 2534 3019 2420 3045 
Q 2306 3072 2169 3072 
Q 1681 3072 1420 2755 
Q 1159 2438 1159 1844 
L 1159 0 
L 581 0 
L 581 3500 
L 1159 3500 
L 1159 2956 
Q 1341 3275 1631 3429 
Q 1922 3584 2338 3584 
Q 2397 3584 2469 3576 
Q 2541 3569 2628 3553 
L 2631 2963 
z
" transform="scale(0.015625)"/>
       <path id="DejaVuSans-69" d="M 603 3500 
L 1178 3500 
L 1178 0 
L 603 0 
L 603 3500 
z
M 603 4863 
L 1178 4863 
L 1178 4134 
L 603 4134 
L 603 4863 
z
" transform="scale(0.015625)"/>
       <path id="DejaVuSans-6e" d="M 3513 2113 
L 3513 0 
L 2938 0 
L 2938 2094 
Q 2938 2591 2744 2837 
Q 2550 3084 2163 3084 
Q 1697 3084 1428 2787 
Q 1159 2491 1159 1978 
L 1159 0 
L 581 0 
L 581 3500 
L 1159 3500 
L 1159 2956 
Q 1366 3272 1645 3428 
Q 1925 3584 2291 3584 
Q 2894 3584 3203 3211 
Q 3513 2838 3513 2113 
z
" transform="scale(0.015625)"/>
       <path id="DejaVuSans-74" d="M 1172 4494 
L 1172 3500 
L 2356 3500 
L 2356 3053 
L 1172 3053 
L 1172 1153 
Q 1172 725 1289 603 
Q 1406 481 1766 481 
L 2356 481 
L 2356 0 
L 1766 0 
Q 1100 0 847 248 
Q 594 497 594 1153 
L 594 3053 
L 172 3053 
L 172 3500 
L 594 3500 
L 594 4494 
L 1172 4494 
z
" transform="scale(0.015625)"/>
       <path id="DejaVuSans-20" transform="scale(0.015625)"/>
       <path id="DejaVuSans-43" d="M 4122 4306 
L 4122 3641 
Q 3803 3938 3442 4084 
Q 3081 4231 2675 4231 
Q 1875 4231 1450 3742 
Q 1025 3253 1025 2328 
Q 1025 1406 1450 917 
Q 1875 428 2675 428 
Q 3081 428 3442 575 
Q 3803 722 4122 1019 
L 4122 359 
Q 3791 134 3420 21 
Q 3050 -91 2638 -91 
Q 1578 -91 968 557 
Q 359 1206 359 2328 
Q 359 3453 968 4101 
Q 1578 4750 2638 4750 
Q 3056 4750 3426 4639 
Q 3797 4528 4122 4306 
z
" transform="scale(0.015625)"/>
       <path id="DejaVuSans-6f" d="M 1959 3097 
Q 1497 3097 1228 2736 
Q 959 2375 959 1747 
Q 959 1119 1226 758 
Q 1494 397 1959 397 
Q 2419 397 2687 759 
Q 2956 1122 2956 1747 
Q 2956 2369 2687 2733 
Q 2419 3097 1959 3097 
z
M 1959 3584 
Q 2709 3584 3137 3096 
Q 3566 2609 3566 1747 
Q 3566 888 3137 398 
Q 2709 -91 1959 -91 
Q 1206 -91 779 398 
Q 353 888 353 1747 
Q 353 2609 779 3096 
Q 1206 3584 1959 3584 
z
" transform="scale(0.015625)"/>
       <path id="DejaVuSans-75" d="M 544 1381 
L 544 3500 
L 1119 3500 
L 1119 1403 
Q 1119 906 1312 657 
Q 1506 409 1894 409 
Q 2359 409 2629 706 
Q 2900 1003 2900 1516 
L 2900 3500 
L 3475 3500 
L 3475 0 
L 2900 0 
L 2900 538 
Q 2691 219 2414 64 
Q 2138 -91 1772 -91 
Q 1169 -91 856 284 
Q 544 659 544 1381 
z
M 1991 3584 
L 1991 3584 
z
" transform="scale(0.015625)"/>
      </defs>
      <use xlink:href="#DejaVuSans-56"/>
      <use xlink:href="#DejaVuSans-61" transform="translate(60.658203 0)"/>
      <use xlink:href="#DejaVuSans-72" transform="translate(121.9375 0)"/>
      <use xlink:href="#DejaVuSans-69" transform="translate(163.050781 0)"/>
      <use xlink:href="#DejaVuSans-61" transform="translate(190.833984 0)"/>
      <use xlink:href="#DejaVuSans-6e" transform="translate(252.113281 0)"/>
      <use xlink:href="#DejaVuSans-74" transform="translate(315.492188 0)"/>
      <use xlink:href="#DejaVuSans-20" transform="translate(354.701172 0)"/>
      <use xlink:href="#DejaVuSans-43" transform="translate(386.488281 0)"/>
      <use xlink:href="#DejaVuSans-6f" transform="translate(456.3125 0)"/>
      <use xlink:href="#DejaVuSans-75" transform="translate(517.494141 0)"/>
      <use xlink:href="#DejaVuSans-6e" transform="translate(580.873047 0)"/>
      <use xlink:href="#DejaVuSans-74" transform="translate(644.251953 0)"/>
     </g>
    </g>
   </g>
   <g id="patch_15">
    <path d="M 57.17 321.23 
L 57.17 26.88 
" style="fill: none; stroke: #000000; stroke-width: 0.8; stroke-linejoin: miter; stroke-linecap: square"/>
   </g>
   <g id="patch_16">
    <path d="M 501.586875 321.23 
L 501.586875 26.88 
" style="fill: none; stroke: #000000; stroke-width: 0.8; stroke-linejoin: miter; stroke-linecap: square"/>
   </g>
   <g id="patch_17">
    <path d="M 57.17 321.23 
L 501.586875 321.23 
" style="fill: none; stroke: #000000; stroke-width: 0.8; stroke-linejoin: miter; stroke-linecap: square"/>
   </g>
   <g id="patch_18">
    <path d="M 57.17 26.88 
L 501.586875 26.88 
" style="fill: none; stroke: #000000; stroke-width: 0.8; stroke-linejoin: miter; stroke-linecap: square"/>
   </g>
   <g id="text_9">
    <!-- Structural Region Distribution -->
    <g transform="translate(190.327188 20.88) scale(0.12 -0.12)">
     <defs>
      <path id="DejaVuSans-63" d="M 3122 3366 
L 3122 2828 
Q 2878 2963 2633 3030 
Q 2388 3097 2138 3097 
Q 1578 3097 1268 2742 
Q 959 2388 959 1747 
Q 959 1106 1268 751 
Q 1578 397 2138 397 
Q 2388 397 2633 464 
Q 2878 531 3122 666 
L 3122 134 
Q 2881 22 2623 -34 
Q 2366 -91 2075 -91 
Q 1284 -91 818 406 
Q 353 903 353 1747 
Q 353 2603 823 3093 
Q 1294 3584 2113 3584 
Q 2378 3584 2631 3529 
Q 2884 3475 3122 3366 
z
" transform="scale(0.015625)"/>
      <path id="DejaVuSans-6c" d="M 603 4863 
L 1178 4863 
L 1178 0 
L 603 0 
L 603 4863 
z
" transform="scale(0.015625)"/>
      <path id="DejaVuSans-52" d="M 2841 2188 
Q 3044 2119 3236 1894 
Q 3428 1669 3622 1275 
L 4263 0 
L 3584 0 
L 2988 1197 
Q 2756 1666 2539 1819 
Q 2322 1972 1947 1972 
L 1259 1972 
L 1259 0 
L 628 0 
L 628 4666 
L 2053 4666 
Q 2853 4666 3247 4331 
Q 3641 3997 3641 3322 
Q 3641 2881 3436 2590 
Q 3231 2300 2841 2188 
z
M 1259 4147 
L 1259 2491 
L 2053 2491 
Q 2509 2491 2742 2702 
Q 2975 2913 2975 3322 
Q 2975 3731 2742 3939 
Q 2509 4147 2053 4147 
L 1259 4147 
z
" transform="scale(0.015625)"/>
      <path id="DejaVuSans-65" d="M 3597 1894 
L 3597 1613 
L 953 1613 
Q 991 1019 1311 708 
Q 1631 397 2203 397 
Q 2534 397 2845 478 
Q 3156 559 3463 722 
L 3463 178 
Q 3153 47 2828 -22 
Q 2503 -91 2169 -91 
Q 1331 -91 842 396 
Q 353 884 353 1716 
Q 353 2575 817 3079 
Q 1281 3584 2069 3584 
Q 2775 3584 3186 3129 
Q 3597 2675 3597 1894 
z
M 3022 2063 
Q 3016 2534 2758 2815 
Q 2500 3097 2075 3097 
Q 1594 3097 1305 2825 
Q 1016 2553 972 2059 
L 3022 2063 
z
" transform="scale(0.015625)"/>
      <path id="DejaVuSans-67" d="M 2906 1791 
Q 2906 2416 2648 2759 
Q 2391 3103 1925 3103 
Q 1463 3103 1205 2759 
Q 947 2416 947 1791 
Q 947 1169 1205 825 
Q 1463 481 1925 481 
Q 2391 481 2648 825 
Q 2906 1169 2906 1791 
z
M 3481 434 
Q 3481 -459 3084 -895 
Q 2688 -1331 1869 -1331 
Q 1566 -1331 1297 -1286 
Q 1028 -1241 775 -1147 
L 775 -588 
Q 1028 -725 1275 -790 
Q 1522 -856 1778 -856 
Q 2344 -856 2625 -561 
Q 2906 -266 2906 331 
L 2906 616 
Q 2728 306 2450 153 
Q 2172 0 1784 0 
Q 1141 0 747 490 
Q 353 981 353 1791 
Q 353 2603 747 3093 
Q 1141 3584 1784 3584 
Q 2172 3584 2450 3431 
Q 2728 3278 2906 2969 
L 2906 3500 
L 3481 3500 
L 3481 434 
z
" transform="scale(0.015625)"/>
      <path id="DejaVuSans-44" d="M 1259 4147 
L 1259 519 
L 2022 519 
Q 2988 519 3436 956 
Q 3884 1394 3884 2338 
Q 3884 3275 3436 3711 
Q 2988 4147 2022 4147 
L 1259 4147 
z
M 628 4666 
L 1925 4666 
Q 3281 4666 3915 4102 
Q 4550 3538 4550 2338 
Q 4550 1131 3912 565 
Q 3275 0 1925 0 
L 628 0 
L 628 4666 
z
" transform="scale(0.015625)"/>
      <path id="DejaVuSans-73" d="M 2834 3397 
L 2834 2853 
Q 2591 2978 2328 3040 
Q 2066 3103 1784 3103 
Q 1356 3103 1142 2972 
Q 928 2841 928 2578 
Q 928 2378 1081 2264 
Q 1234 2150 1697 2047 
L 1894 2003 
Q 2506 1872 2764 1633 
Q 3022 1394 3022 966 
Q 3022 478 2636 193 
Q 2250 -91 1575 -91 
Q 1294 -91 989 -36 
Q 684 19 347 128 
L 347 722 
Q 666 556 975 473 
Q 1284 391 1588 391 
Q 1994 391 2212 530 
Q 2431 669 2431 922 
Q 2431 1156 2273 1281 
Q 2116 1406 1581 1522 
L 1381 1569 
Q 847 1681 609 1914 
Q 372 2147 372 2553 
Q 372 3047 722 3315 
Q 1072 3584 1716 3584 
Q 2034 3584 2315 3537 
Q 2597 3491 2834 3397 
z
" transform="scale(0.015625)"/>
      <path id="DejaVuSans-62" d="M 3116 1747 
Q 3116 2381 2855 2742 
Q 2594 3103 2138 3103 
Q 1681 3103 1420 2742 
Q 1159 2381 1159 1747 
Q 1159 1113 1420 752 
Q 1681 391 2138 391 
Q 2594 391 2855 752 
Q 3116 1113 3116 1747 
z
M 1159 2969 
Q 1341 3281 1617 3432 
Q 1894 3584 2278 3584 
Q 2916 3584 3314 3078 
Q 3713 2572 3713 1747 
Q 3713 922 3314 415 
Q 2916 -91 2278 -91 
Q 1894 -91 1617 61 
Q 1341 213 1159 525 
L 1159 0 
L 581 0 
L 581 4863 
L 1159 4863 
L 1159 2969 
z
" transform="scale(0.015625)"/>
     </defs>
     <use xlink:href="#DejaVuSans-53"/>
     <use xlink:href="#DejaVuSans-74" transform="translate(63.476562 0)"/>
     <use xlink:href="#DejaVuSans-72" transform="translate(102.685547 0)"/>
     <use xlink:href="#DejaVuSans-75" transform="translate(143.798828 0)"/>
     <use xlink:href="#DejaVuSans-63" transform="translate(207.177734 0)"/>
     <use xlink:href="#DejaVuSans-74" transform="translate(262.158203 0)"/>
     <use xlink:href="#DejaVuSans-75" transform="translate(301.367188 0)"/>
     <use xlink:href="#DejaVuSans-72" transform="translate(364.746094 0)"/>
     <use xlink:href="#DejaVuSans-61" transform="translate(405.859375 0)"/>
     <use xlink:href="#DejaVuSans-6c" transform="translate(467.138672 0)"/>
     <use xlink:href="#DejaVuSans-20" transform="translate(494.921875 0)"/>
     <use xlink:href="#DejaVuSans-52" transform="translate(526.708984 0)"/>
     <use xlink:href="#DejaVuSans-65" transform="translate(591.691406 0)"/>
     <use xlink:href="#DejaVuSans-67" transform="translate(653.214844 0)"/>
     <use xlink:href="#DejaVuSans-69" transform="translate(716.691406 0)"/>
     <use xlink:href="#DejaVuSans-6f" transform="translate(744.474609 0)"/>
     <use xlink:href="#DejaVuSans-6e" transform="translate(805.65625 0)"/>
     <use xlink:href="#DejaVuSans-20" transform="translate(869.035156 0)"/>
     <use xlink:href="#DejaVuSans-44" transform="translate(900.822266 0)"/>
     <use xlink:href="#DejaVuSans-69" transform="translate(977.824219 0)"/>
     <use xlink:href="#DejaVuSans-73" transform="translate(1005.607422 0)"/>
     <use xlink:href="#DejaVuSans-74" transform="translate(1057.707031 0)"/>
     <use xlink:href="#DejaVuSans-72" transform="translate(1096.916016 0)"/>
     <use xlink:href="#DejaVuSans-69" transform="translate(1138.029297 0)"/>
     <use xlink:href="#DejaVuSans-62" transform="translate(1165.8125 0)"/>
     <use xlink:href="#DejaVuSans-75" transform="translate(1229.289062 0)"/>
     <use xlink:href="#DejaVuSans-74" transform="translate(1292.667969 0)"/>
     <use xlink:href="#DejaVuSans-69" transform="translate(1331.876953 0)"/>
     <use xlink:href="#DejaVuSans-6f" transform="translate(1359.660156 0)"/>
     <use xlink:href="#DejaVuSans-6e" transform="translate(1420.841797 0)"/>
    </g>
   </g>
   <g id="legend_1">
    <g id="patch_19">
     <path d="M 63.47 38.498906 
L 77.47 38.498906 
L 77.47 33.598906 
L 63.47 33.598906 
z
" style="fill: #f4a261"/>
    </g>
    <g id="text_10">
     <!-- Ligand-Binding Pocket -->
     <g transform="translate(83.07 38.498906) scale(0.07 -0.07)">
      <defs>
       <path id="DejaVuSans-64" d="M 2906 2969 
L 2906 4863 
L 3481 4863 
L 3481 0 
L 2906 0 
L 2906 525 
Q 2725 213 2448 61 
Q 2172 -91 1784 -91 
Q 1150 -91 751 415 
Q 353 922 353 1747 
Q 353 2572 751 3078 
Q 1150 3584 1784 3584 
Q 2172 3584 2448 3432 
Q 2725 3281 2906 2969 
z
M 947 1747 
Q 947 1113 1208 752 
Q 1469 391 1925 391 
Q 2381 391 2643 752 
Q 2906 1113 2906 1747 
Q 2906 2381 2643 2742 
Q 2381 3103 1925 3103 
Q 1469 3103 1208 2742 
Q 947 2381 947 1747 
z
" transform="scale(0.015625)"/>
       <path id="DejaVuSans-2d" d="M 313 2009 
L 1997 2009 
L 1997 1497 
L 313 1497 
L 313 2009 
z
" transform="scale(0.015625)"/>
       <path id="DejaVuSans-42" d="M 1259 2228 
L 1259 519 
L 2272 519 
Q 2781 519 3026 730 
Q 3272 941 3272 1375 
Q 3272 1813 3026 2020 
Q 2781 2228 2272 2228 
L 1259 2228 
z
M 1259 4147 
L 1259 2741 
L 2194 2741 
Q 2656 2741 2882 2914 
Q 3109 3088 3109 3444 
Q 3109 3797 2882 3972 
Q 2656 4147 2194 4147 
L 1259 4147 
z
M 628 4666 
L 2241 4666 
Q 2963 4666 3353 4366 
Q 3744 4066 3744 3513 
Q 3744 3084 3544 2831 
Q 3344 2578 2956 2516 
Q 3422 2416 3680 2098 
Q 3938 1781 3938 1306 
Q 3938 681 3513 340 
Q 3088 0 2303 0 
L 628 0 
L 628 4666 
z
" transform="scale(0.015625)"/>
       <path id="DejaVuSans-6b" d="M 581 4863 
L 1159 4863 
L 1159 1991 
L 2875 3500 
L 3609 3500 
L 1753 1863 
L 3688 0 
L 2938 0 
L 1159 1709 
L 1159 0 
L 581 0 
L 581 4863 
z
" transform="scale(0.015625)"/>
      </defs>
      <use xlink:href="#DejaVuSans-4c"/>
      <use xlink:href="#DejaVuSans-69" transform="translate(55.712891 0)"/>
      <use xlink:href="#DejaVuSans-67" transform="translate(83.496094 0)"/>
      <use xlink:href="#DejaVuSans-61" transform="translate(146.972656 0)"/>
      <use xlink:href="#DejaVuSans-6e" transform="translate(208.251953 0)"/>
      <use xlink:href="#DejaVuSans-64" transform="translate(271.630859 0)"/>
      <use xlink:href="#DejaVuSans-2d" transform="translate(335.107422 0)"/>
      <use xlink:href="#DejaVuSans-42" transform="translate(367.566406 0)"/>
      <use xlink:href="#DejaVuSans-69" transform="translate(436.169922 0)"/>
      <use xlink:href="#DejaVuSans-6e" transform="translate(463.953125 0)"/>
      <use xlink:href="#DejaVuSans-64" transform="translate(527.332031 0)"/>
      <use xlink:href="#DejaVuSans-69" transform="translate(590.808594 0)"/>
      <use xlink:href="#DejaVuSans-6e" transform="translate(618.591797 0)"/>
      <use xlink:href="#DejaVuSans-67" transform="translate(681.970703 0)"/>
      <use xlink:href="#DejaVuSans-20" transform="translate(745.447266 0)"/>
      <use xlink:href="#DejaVuSans-50" transform="translate(777.234375 0)"/>
      <use xlink:href="#DejaVuSans-6f" transform="translate(833.912109 0)"/>
      <use xlink:href="#DejaVuSans-63" transform="translate(895.09375 0)"/>
      <use xlink:href="#DejaVuSans-6b" transform="translate(950.074219 0)"/>
      <use xlink:href="#DejaVuSans-65" transform="translate(1004.359375 0)"/>
      <use xlink:href="#DejaVuSans-74" transform="translate(1065.882812 0)"/>
     </g>
    </g>
    <g id="patch_20">
     <path d="M 63.47 48.773594 
L 77.47 48.773594 
L 77.47 43.873594 
L 63.47 43.873594 
z
" style="fill: #e76f51"/>
    </g>
    <g id="text_11">
     <!-- Pore Domain (S5-S6) -->
     <g transform="translate(83.07 48.773594) scale(0.07 -0.07)">
      <defs>
       <path id="DejaVuSans-6d" d="M 3328 2828 
Q 3544 3216 3844 3400 
Q 4144 3584 4550 3584 
Q 5097 3584 5394 3201 
Q 5691 2819 5691 2113 
L 5691 0 
L 5113 0 
L 5113 2094 
Q 5113 2597 4934 2840 
Q 4756 3084 4391 3084 
Q 3944 3084 3684 2787 
Q 3425 2491 3425 1978 
L 3425 0 
L 2847 0 
L 2847 2094 
Q 2847 2600 2669 2842 
Q 2491 3084 2119 3084 
Q 1678 3084 1418 2786 
Q 1159 2488 1159 1978 
L 1159 0 
L 581 0 
L 581 3500 
L 1159 3500 
L 1159 2956 
Q 1356 3278 1631 3431 
Q 1906 3584 2284 3584 
Q 2666 3584 2933 3390 
Q 3200 3197 3328 2828 
z
" transform="scale(0.015625)"/>
       <path id="DejaVuSans-28" d="M 1984 4856 
Q 1566 4138 1362 3434 
Q 1159 2731 1159 2009 
Q 1159 1288 1364 580 
Q 1569 -128 1984 -844 
L 1484 -844 
Q 1016 -109 783 600 
Q 550 1309 550 2009 
Q 550 2706 781 3412 
Q 1013 4119 1484 4856 
L 1984 4856 
z
" transform="scale(0.015625)"/>
       <path id="DejaVuSans-36" d="M 2113 2584 
Q 1688 2584 1439 2293 
Q 1191 2003 1191 1497 
Q 1191 994 1439 701 
Q 1688 409 2113 409 
Q 2538 409 2786 701 
Q 3034 994 3034 1497 
Q 3034 2003 2786 2293 
Q 2538 2584 2113 2584 
z
M 3366 4563 
L 3366 3988 
Q 3128 4100 2886 4159 
Q 2644 4219 2406 4219 
Q 1781 4219 1451 3797 
Q 1122 3375 1075 2522 
Q 1259 2794 1537 2939 
Q 1816 3084 2150 3084 
Q 2853 3084 3261 2657 
Q 3669 2231 3669 1497 
Q 3669 778 3244 343 
Q 2819 -91 2113 -91 
Q 1303 -91 875 529 
Q 447 1150 447 2328 
Q 447 3434 972 4092 
Q 1497 4750 2381 4750 
Q 2619 4750 2861 4703 
Q 3103 4656 3366 4563 
z
" transform="scale(0.015625)"/>
       <path id="DejaVuSans-29" d="M 513 4856 
L 1013 4856 
Q 1481 4119 1714 3412 
Q 1947 2706 1947 2009 
Q 1947 1309 1714 600 
Q 1481 -109 1013 -844 
L 513 -844 
Q 928 -128 1133 580 
Q 1338 1288 1338 2009 
Q 1338 2731 1133 3434 
Q 928 4138 513 4856 
z
" transform="scale(0.015625)"/>
      </defs>
      <use xlink:href="#DejaVuSans-50"/>
      <use xlink:href="#DejaVuSans-6f" transform="translate(56.677734 0)"/>
      <use xlink:href="#DejaVuSans-72" transform="translate(117.859375 0)"/>
      <use xlink:href="#DejaVuSans-65" transform="translate(156.722656 0)"/>
      <use xlink:href="#DejaVuSans-20" transform="translate(218.246094 0)"/>
      <use xlink:href="#DejaVuSans-44" transform="translate(250.033203 0)"/>
      <use xlink:href="#DejaVuSans-6f" transform="translate(327.035156 0)"/>
      <use xlink:href="#DejaVuSans-6d" transform="translate(388.216797 0)"/>
      <use xlink:href="#DejaVuSans-61" transform="translate(485.628906 0)"/>
      <use xlink:href="#DejaVuSans-69" transform="translate(546.908203 0)"/>
      <use xlink:href="#DejaVuSans-6e" transform="translate(574.691406 0)"/>
      <use xlink:href="#DejaVuSans-20" transform="translate(638.070312 0)"/>
      <use xlink:href="#DejaVuSans-28" transform="translate(669.857422 0)"/>
      <use xlink:href="#DejaVuSans-53" transform="translate(708.871094 0)"/>
      <use xlink:href="#DejaVuSans-35" transform="translate(772.347656 0)"/>
      <use xlink:href="#DejaVuSans-2d" transform="translate(835.970703 0)"/>
      <use xlink:href="#DejaVuSans-53" transform="translate(872.054688 0)"/>
      <use xlink:href="#DejaVuSans-36" transform="translate(935.53125 0)"/>
      <use xlink:href="#DejaVuSans-29" transform="translate(999.154297 0)"/>
     </g>
    </g>
    <g id="patch_21">
     <path d="M 63.47 59.048281 
L 77.47 59.048281 
L 77.47 54.148281 
L 63.47 54.148281 
z
" style="fill: #457b9d"/>
    </g>
    <g id="text_12">
     <!-- Voltage-Sensing Domain -->
     <g transform="translate(83.07 59.048281) scale(0.07 -0.07)">
      <use xlink:href="#DejaVuSans-56"/>
      <use xlink:href="#DejaVuSans-6f" transform="translate(60.658203 0)"/>
      <use xlink:href="#DejaVuSans-6c" transform="translate(121.839844 0)"/>
      <use xlink:href="#DejaVuSans-74" transform="translate(149.623047 0)"/>
      <use xlink:href="#DejaVuSans-61" transform="translate(188.832031 0)"/>
      <use xlink:href="#DejaVuSans-67" transform="translate(250.111328 0)"/>
      <use xlink:href="#DejaVuSans-65" transform="translate(313.587891 0)"/>
      <use xlink:href="#DejaVuSans-2d" transform="translate(375.111328 0)"/>
      <use xlink:href="#DejaVuSans-53" transform="translate(411.195312 0)"/>
      <use xlink:href="#DejaVuSans-65" transform="translate(474.671875 0)"/>
      <use xlink:href="#DejaVuSans-6e" transform="translate(536.195312 0)"/>
      <use xlink:href="#DejaVuSans-73" transform="translate(599.574219 0)"/>
      <use xlink:href="#DejaVuSans-69" transform="translate(651.673828 0)"/>
      <use xlink:href="#DejaVuSans-6e" transform="translate(679.457031 0)"/>
      <use xlink:href="#DejaVuSans-67" transform="translate(742.835938 0)"/>
      <use xlink:href="#DejaVuSans-20" transform="translate(806.3125 0)"/>
      <use xlink:href="#DejaVuSans-44" transform="translate(838.099609 0)"/>
      <use xlink:href="#DejaVuSans-6f" transform="translate(915.101562 0)"/>
      <use xlink:href="#DejaVuSans-6d" transform="translate(976.283203 0)"/>
      <use xlink:href="#DejaVuSans-61" transform="translate(1073.695312 0)"/>
      <use xlink:href="#DejaVuSans-69" transform="translate(1134.974609 0)"/>
      <use xlink:href="#DejaVuSans-6e" transform="translate(1162.757812 0)"/>
     </g>
    </g>
    <g id="patch_22">
     <path d="M 63.47 69.322969 
L 77.47 69.322969 
L 77.47 64.422969 
L 63.47 64.422969 
z
" style="fill: #2a9d8f"/>
    </g>
    <g id="text_13">
     <!-- CaM/Interface Region -->
     <g transform="translate(83.07 69.322969) scale(0.07 -0.07)">
      <defs>
       <path id="DejaVuSans-4d" d="M 628 4666 
L 1569 4666 
L 2759 1491 
L 3956 4666 
L 4897 4666 
L 4897 0 
L 4281 0 
L 4281 4097 
L 3078 897 
L 2444 897 
L 1241 4097 
L 1241 0 
L 628 0 
L 628 4666 
z
" transform="scale(0.015625)"/>
       <path id="DejaVuSans-49" d="M 628 4666 
L 1259 4666 
L 1259 0 
L 628 0 
L 628 4666 
z
" transform="scale(0.015625)"/>
       <path id="DejaVuSans-66" d="M 2375 4863 
L 2375 4384 
L 1825 4384 
Q 1516 4384 1395 4259 
Q 1275 4134 1275 3809 
L 1275 3500 
L 2222 3500 
L 2222 3053 
L 1275 3053 
L 1275 0 
L 697 0 
L 697 3053 
L 147 3053 
L 147 3500 
L 697 3500 
L 697 3744 
Q 697 4328 969 4595 
Q 1241 4863 1831 4863 
L 2375 4863 
z
" transform="scale(0.015625)"/>
      </defs>
      <use xlink:href="#DejaVuSans-43"/>
      <use xlink:href="#DejaVuSans-61" transform="translate(69.824219 0)"/>
      <use xlink:href="#DejaVuSans-4d" transform="translate(131.103516 0)"/>
      <use xlink:href="#DejaVuSans-2f" transform="translate(217.382812 0)"/>
      <use xlink:href="#DejaVuSans-49" transform="translate(251.074219 0)"/>
      <use xlink:href="#DejaVuSans-6e" transform="translate(280.566406 0)"/>
      <use xlink:href="#DejaVuSans-74" transform="translate(343.945312 0)"/>
      <use xlink:href="#DejaVuSans-65" transform="translate(383.154297 0)"/>
      <use xlink:href="#DejaVuSans-72" transform="translate(444.677734 0)"/>
      <use xlink:href="#DejaVuSans-66" transform="translate(485.791016 0)"/>
      <use xlink:href="#DejaVuSans-61" transform="translate(520.996094 0)"/>
      <use xlink:href="#DejaVuSans-63" transform="translate(582.275391 0)"/>
      <use xlink:href="#DejaVuSans-65" transform="translate(637.255859 0)"/>
      <use xlink:href="#DejaVuSans-20" transform="translate(698.779297 0)"/>
      <use xlink:href="#DejaVuSans-52" transform="translate(730.566406 0)"/>
      <use xlink:href="#DejaVuSans-65" transform="translate(795.548828 0)"/>
      <use xlink:href="#DejaVuSans-67" transform="translate(857.072266 0)"/>
      <use xlink:href="#DejaVuSans-69" transform="translate(920.548828 0)"/>
      <use xlink:href="#DejaVuSans-6f" transform="translate(948.332031 0)"/>
      <use xlink:href="#DejaVuSans-6e" transform="translate(1009.513672 0)"/>
     </g>
    </g>
    <g id="patch_23">
     <path d="M 63.47 79.597656 
L 77.47 79.597656 
L 77.47 74.697656 
L 63.47 74.697656 
z
" style="fill: #8338ec"/>
    </g>
    <g id="text_14">
     <!-- Trafficking/Assembly -->
     <g transform="translate(83.07 79.597656) scale(0.07 -0.07)">
      <defs>
       <path id="DejaVuSans-54" d="M -19 4666 
L 3928 4666 
L 3928 4134 
L 2272 4134 
L 2272 0 
L 1638 0 
L 1638 4134 
L -19 4134 
L -19 4666 
z
" transform="scale(0.015625)"/>
       <path id="DejaVuSans-41" d="M 2188 4044 
L 1331 1722 
L 3047 1722 
L 2188 4044 
z
M 1831 4666 
L 2547 4666 
L 4325 0 
L 3669 0 
L 3244 1197 
L 1141 1197 
L 716 0 
L 50 0 
L 1831 4666 
z
" transform="scale(0.015625)"/>
       <path id="DejaVuSans-79" d="M 2059 -325 
Q 1816 -950 1584 -1140 
Q 1353 -1331 966 -1331 
L 506 -1331 
L 506 -850 
L 844 -850 
Q 1081 -850 1212 -737 
Q 1344 -625 1503 -206 
L 1606 56 
L 191 3500 
L 800 3500 
L 1894 763 
L 2988 3500 
L 3597 3500 
L 2059 -325 
z
" transform="scale(0.015625)"/>
      </defs>
      <use xlink:href="#DejaVuSans-54"/>
      <use xlink:href="#DejaVuSans-72" transform="translate(46.333984 0)"/>
      <use xlink:href="#DejaVuSans-61" transform="translate(87.447266 0)"/>
      <use xlink:href="#DejaVuSans-66" transform="translate(148.726562 0)"/>
      <use xlink:href="#DejaVuSans-66" transform="translate(183.931641 0)"/>
      <use xlink:href="#DejaVuSans-69" transform="translate(219.136719 0)"/>
      <use xlink:href="#DejaVuSans-63" transform="translate(246.919922 0)"/>
      <use xlink:href="#DejaVuSans-6b" transform="translate(301.900391 0)"/>
      <use xlink:href="#DejaVuSans-69" transform="translate(359.810547 0)"/>
      <use xlink:href="#DejaVuSans-6e" transform="translate(387.59375 0)"/>
      <use xlink:href="#DejaVuSans-67" transform="translate(450.972656 0)"/>
      <use xlink:href="#DejaVuSans-2f" transform="translate(514.449219 0)"/>
      <use xlink:href="#DejaVuSans-41" transform="translate(548.140625 0)"/>
      <use xlink:href="#DejaVuSans-73" transform="translate(616.548828 0)"/>
      <use xlink:href="#DejaVuSans-73" transform="translate(668.648438 0)"/>
      <use xlink:href="#DejaVuSans-65" transform="translate(720.748047 0)"/>
      <use xlink:href="#DejaVuSans-6d" transform="translate(782.271484 0)"/>
      <use xlink:href="#DejaVuSans-62" transform="translate(879.683594 0)"/>
      <use xlink:href="#DejaVuSans-6c" transform="translate(943.160156 0)"/>
      <use xlink:href="#DejaVuSans-79" transform="translate(970.943359 0)"/>
     </g>
    </g>
    <g id="patch_24">
     <path d="M 63.47 89.872344 
L 77.47 89.872344 
L 77.47 84.972344 
L 63.47 84.972344 
z
" style="fill: #adb5bd"/>
    </g>
    <g id="text_15">
     <!-- Unknown/Unresolved -->
     <g transform="translate(83.07 89.872344) scale(0.07 -0.07)">
      <defs>
       <path id="DejaVuSans-77" d="M 269 3500 
L 844 3500 
L 1563 769 
L 2278 3500 
L 2956 3500 
L 3675 769 
L 4391 3500 
L 4966 3500 
L 4050 0 
L 3372 0 
L 2619 2869 
L 1863 0 
L 1184 0 
L 269 3500 
z
" transform="scale(0.015625)"/>
       <path id="DejaVuSans-76" d="M 191 3500 
L 800 3500 
L 1894 563 
L 2988 3500 
L 3597 3500 
L 2284 0 
L 1503 0 
L 191 3500 
z
" transform="scale(0.015625)"/>
      </defs>
      <use xlink:href="#DejaVuSans-55"/>
      <use xlink:href="#DejaVuSans-6e" transform="translate(73.193359 0)"/>
      <use xlink:href="#DejaVuSans-6b" transform="translate(136.572266 0)"/>
      <use xlink:href="#DejaVuSans-6e" transform="translate(194.482422 0)"/>
      <use xlink:href="#DejaVuSans-6f" transform="translate(257.861328 0)"/>
      <use xlink:href="#DejaVuSans-77" transform="translate(319.042969 0)"/>
      <use xlink:href="#DejaVuSans-6e" transform="translate(400.830078 0)"/>
      <use xlink:href="#DejaVuSans-2f" transform="translate(464.208984 0)"/>
      <use xlink:href="#DejaVuSans-55" transform="translate(497.900391 0)"/>
      <use xlink:href="#DejaVuSans-6e" transform="translate(571.09375 0)"/>
      <use xlink:href="#DejaVuSans-72" transform="translate(634.472656 0)"/>
      <use xlink:href="#DejaVuSans-65" transform="translate(673.335938 0)"/>
      <use xlink:href="#DejaVuSans-73" transform="translate(734.859375 0)"/>
      <use xlink:href="#DejaVuSans-6f" transform="translate(786.958984 0)"/>
      <use xlink:href="#DejaVuSans-6c" transform="translate(848.140625 0)"/>
      <use xlink:href="#DejaVuSans-76" transform="translate(875.923828 0)"/>
      <use xlink:href="#DejaVuSans-65" transform="translate(935.103516 0)"/>
      <use xlink:href="#DejaVuSans-64" transform="translate(996.626953 0)"/>
     </g>
    </g>
   </g>
  </g>
  <g id="axes_2">
   <g id="patch_25">
    <path d="M 552.783125 321.23 
L 997.2 321.23 
L 997.2 26.88 
L 552.783125 26.88 
z
" style="fill: #ffffff"/>
   </g>
   <g id="FillBetweenPolyCollection_1">
    <defs>
     <path id="m7abc5c46f2" d="M 664.075278 -52.149545 
L 663.699409 -52.149545 
L 663.551678 -54.852484 
L 663.309092 -57.555422 
L 662.925595 -60.258361 
L 662.341659 -62.961299 
L 661.485041 -65.664238 
L 660.274312 -68.367176 
L 658.625807 -71.070115 
L 656.464011 -73.773053 
L 653.734373 -76.475992 
L 650.41642 -79.17893 
L 646.534155 -81.881869 
L 642.160641 -84.584807 
L 637.414594 -87.287746 
L 632.44869 -89.990684 
L 627.431566 -92.693623 
L 622.527349 -95.396561 
L 617.877136 -98.0995 
L 613.586064 -100.802438 
L 609.717574 -103.505376 
L 606.294192 -106.208315 
L 603.302487 -108.911253 
L 600.69945 -111.614192 
L 598.418448 -114.31713 
L 596.374557 -117.020069 
L 594.470609 -119.723007 
L 592.605906 -122.425946 
L 590.688809 -125.128884 
L 588.652603 -127.831823 
L 586.471806 -130.534761 
L 584.174523 -133.2377 
L 581.846313 -135.940638 
L 579.622684 -138.643577 
L 577.670281 -141.346515 
L 576.160127 -144.049454 
L 575.238773 -146.752392 
L 575.003969 -149.455331 
L 575.49029 -152.158269 
L 576.667354 -154.861208 
L 578.4498 -157.564146 
L 580.71516 -160.267084 
L 583.324119 -162.970023 
L 586.137982 -165.672961 
L 589.030081 -168.3759 
L 591.890699 -171.078838 
L 594.627414 -173.781777 
L 597.163875 -176.484715 
L 599.439594 -179.187654 
L 601.411851 -181.890592 
L 603.059256 -184.593531 
L 604.385477 -187.296469 
L 605.42146 -189.999408 
L 606.224877 -192.702346 
L 606.876092 -195.405285 
L 607.470477 -198.108223 
L 608.107453 -200.811162 
L 608.877394 -203.5141 
L 609.848464 -206.217039 
L 611.056303 -208.919977 
L 612.499593 -211.622916 
L 614.143396 -214.325854 
L 615.929896 -217.028792 
L 617.793526 -219.731731 
L 619.675622 -222.434669 
L 621.53386 -225.137608 
L 623.343865 -227.840546 
L 625.093777 -230.543485 
L 626.775482 -233.246423 
L 628.377375 -235.949362 
L 629.882321 -238.6523 
L 631.271629 -241.355239 
L 632.532932 -244.058177 
L 633.668229 -246.761116 
L 634.698646 -249.464054 
L 635.664268 -252.166993 
L 636.619451 -254.869931 
L 637.625348 -257.57287 
L 638.741509 -260.275808 
L 640.017722 -262.978747 
L 641.486684 -265.681685 
L 643.157993 -268.384624 
L 645.014472 -271.087562 
L 647.012201 -273.7905 
L 649.085346 -276.493439 
L 651.155617 -279.196377 
L 653.144562 -281.899316 
L 654.985612 -284.602254 
L 656.632737 -287.305193 
L 658.063682 -290.008131 
L 659.277698 -292.71107 
L 660.289434 -295.414008 
L 661.121574 -298.116947 
L 661.798583 -300.819885 
L 662.342915 -303.522824 
L 662.773758 -306.225762 
L 663.107529 -308.928701 
L 663.358992 -311.631639 
L 663.542143 -314.334578 
L 663.670462 -317.037516 
L 663.756608 -319.740455 
L 664.01808 -319.740455 
L 664.01808 -319.740455 
L 664.104226 -317.037516 
L 664.232544 -314.334578 
L 664.415695 -311.631639 
L 664.667159 -308.928701 
L 665.000929 -306.225762 
L 665.431772 -303.522824 
L 665.976104 -300.819885 
L 666.653114 -298.116947 
L 667.485253 -295.414008 
L 668.496989 -292.71107 
L 669.711005 -290.008131 
L 671.14195 -287.305193 
L 672.789075 -284.602254 
L 674.630126 -281.899316 
L 676.619071 -279.196377 
L 678.689342 -276.493439 
L 680.762486 -273.7905 
L 682.760215 -271.087562 
L 684.616694 -268.384624 
L 686.288004 -265.681685 
L 687.756965 -262.978747 
L 689.033179 -260.275808 
L 690.149339 -257.57287 
L 691.155237 -254.869931 
L 692.110419 -252.166993 
L 693.076041 -249.464054 
L 694.106459 -246.761116 
L 695.241755 -244.058177 
L 696.503058 -241.355239 
L 697.892366 -238.6523 
L 699.397313 -235.949362 
L 700.999206 -233.246423 
L 702.68091 -230.543485 
L 704.430822 -227.840546 
L 706.240828 -225.137608 
L 708.099065 -222.434669 
L 709.981161 -219.731731 
L 711.844791 -217.028792 
L 713.631291 -214.325854 
L 715.275094 -211.622916 
L 716.718385 -208.919977 
L 717.926224 -206.217039 
L 718.897293 -203.5141 
L 719.667235 -200.811162 
L 720.304211 -198.108223 
L 720.898595 -195.405285 
L 721.549811 -192.702346 
L 722.353228 -189.999408 
L 723.38921 -187.296469 
L 724.715431 -184.593531 
L 726.362837 -181.890592 
L 728.335094 -179.187654 
L 730.610812 -176.484715 
L 733.147273 -173.781777 
L 735.883988 -171.078838 
L 738.744607 -168.3759 
L 741.636705 -165.672961 
L 744.450568 -162.970023 
L 747.059528 -160.267084 
L 749.324887 -157.564146 
L 751.107333 -154.861208 
L 752.284397 -152.158269 
L 752.770719 -149.455331 
L 752.535915 -146.752392 
L 751.61456 -144.049454 
L 750.104406 -141.346515 
L 748.152003 -138.643577 
L 745.928375 -135.940638 
L 743.600165 -133.2377 
L 741.302881 -130.534761 
L 739.122084 -127.831823 
L 737.085878 -125.128884 
L 735.168781 -122.425946 
L 733.304079 -119.723007 
L 731.400131 -117.020069 
L 729.356239 -114.31713 
L 727.075238 -111.614192 
L 724.472201 -108.911253 
L 721.480496 -106.208315 
L 718.057114 -103.505376 
L 714.188623 -100.802438 
L 709.897552 -98.0995 
L 705.247339 -95.396561 
L 700.343121 -92.693623 
L 695.325998 -89.990684 
L 690.360093 -87.287746 
L 685.614047 -84.584807 
L 681.240533 -81.881869 
L 677.358267 -79.17893 
L 674.040314 -76.475992 
L 671.310677 -73.773053 
L 669.14888 -71.070115 
L 667.500376 -68.367176 
L 666.289647 -65.664238 
L 665.433029 -62.961299 
L 664.849093 -60.258361 
L 664.465596 -57.555422 
L 664.22301 -54.852484 
L 664.075278 -52.149545 
z
" style="stroke: #444444; stroke-width: 1.25"/>
    </defs>
    <g clip-path="url(#pd53111a0fb)">
     <use xlink:href="#m7abc5c46f2" x="0" y="360" style="fill: #507892; stroke: #444444; stroke-width: 1.25"/>
    </g>
   </g>
   <g id="FillBetweenPolyCollection_2">
    <defs>
     <path id="m7960951bf2" d="M 886.485041 -58.945085 
L 885.706521 -58.945085 
L 885.435063 -60.658494 
L 885.009637 -62.371903 
L 884.365826 -64.085312 
L 883.424787 -65.798721 
L 882.095835 -67.51213 
L 880.281836 -69.22554 
L 877.8874 -70.938949 
L 874.829302 -72.652358 
L 871.047972 -74.365767 
L 866.518514 -76.079176 
L 861.259661 -77.792585 
L 855.339336 -79.505994 
L 848.875947 -81.219404 
L 842.035016 -82.932813 
L 835.021119 -84.646222 
L 828.065351 -86.359631 
L 821.408859 -88.07304 
L 815.283524 -89.786449 
L 809.891758 -91.499858 
L 805.388298 -93.213268 
L 801.867435 -94.926677 
L 799.358651 -96.640086 
L 797.832046 -98.353495 
L 797.212406 -100.066904 
L 797.398194 -101.780313 
L 798.280218 -103.493723 
L 799.755001 -105.207132 
L 801.730026 -106.920541 
L 804.121256 -108.63395 
L 806.846314 -110.347359 
L 809.818121 -112.060768 
L 812.943103 -113.774177 
L 816.125577 -115.487587 
L 819.276806 -117.200996 
L 822.324937 -118.914405 
L 825.221469 -120.627814 
L 827.941426 -122.341223 
L 830.477079 -124.054632 
L 832.827879 -125.768042 
L 834.990826 -127.481451 
L 836.955356 -129.19486 
L 838.704925 -130.908269 
L 840.224768 -132.621678 
L 841.512761 -134.335087 
L 842.588924 -136.048496 
L 843.499406 -137.761906 
L 844.31251 -139.475315 
L 845.107025 -141.188724 
L 845.955679 -142.902133 
L 846.908322 -144.615542 
L 847.979714 -146.328951 
L 849.145673 -148.04236 
L 850.349013 -149.75577 
L 851.514019 -151.469179 
L 852.565873 -153.182588 
L 853.450154 -154.895997 
L 854.147597 -156.609406 
L 854.680659 -158.322815 
L 855.110589 -160.036225 
L 855.526067 -161.749634 
L 856.026387 -163.463043 
L 856.703171 -165.176452 
L 857.624592 -166.889861 
L 858.825087 -168.60327 
L 860.302063 -170.316679 
L 862.019311 -172.030089 
L 863.915466 -173.743498 
L 865.914995 -175.456907 
L 867.939062 -177.170316 
L 869.91428 -178.883725 
L 871.778281 -180.597134 
L 873.482186 -182.310543 
L 874.990813 -184.023953 
L 876.281758 -185.737362 
L 877.34435 -187.450771 
L 878.178974 -189.16418 
L 878.796718 -190.877589 
L 879.218961 -192.590998 
L 879.476427 -194.304408 
L 879.607405 -196.017817 
L 879.655105 -197.731226 
L 879.664413 -199.444635 
L 879.678419 -201.158044 
L 879.735125 -202.871453 
L 879.864621 -204.584862 
L 880.086946 -206.298272 
L 880.4108 -208.011681 
L 880.833221 -209.72509 
L 881.340381 -211.438499 
L 881.909544 -213.151908 
L 882.512062 -214.865317 
L 883.117071 -216.578726 
L 883.695337 -218.292136 
L 884.222611 -220.005545 
L 884.681936 -221.718954 
L 885.064583 -223.432363 
L 885.369626 -225.145772 
L 885.602443 -226.859181 
L 885.772622 -228.572591 
L 886.41894 -228.572591 
L 886.41894 -228.572591 
L 886.58912 -226.859181 
L 886.821936 -225.145772 
L 887.126979 -223.432363 
L 887.509626 -221.718954 
L 887.968951 -220.005545 
L 888.496226 -218.292136 
L 889.074492 -216.578726 
L 889.6795 -214.865317 
L 890.282018 -213.151908 
L 890.851182 -211.438499 
L 891.358342 -209.72509 
L 891.780762 -208.011681 
L 892.104616 -206.298272 
L 892.326942 -204.584862 
L 892.456437 -202.871453 
L 892.513143 -201.158044 
L 892.52715 -199.444635 
L 892.536457 -197.731226 
L 892.584157 -196.017817 
L 892.715135 -194.304408 
L 892.972602 -192.590998 
L 893.394845 -190.877589 
L 894.012589 -189.16418 
L 894.847213 -187.450771 
L 895.909805 -185.737362 
L 897.200749 -184.023953 
L 898.709376 -182.310543 
L 900.413282 -180.597134 
L 902.277282 -178.883725 
L 904.2525 -177.170316 
L 906.276568 -175.456907 
L 908.276096 -173.743498 
L 910.172252 -172.030089 
L 911.889499 -170.316679 
L 913.366476 -168.60327 
L 914.566971 -166.889861 
L 915.488391 -165.176452 
L 916.165176 -163.463043 
L 916.665496 -161.749634 
L 917.080974 -160.036225 
L 917.510904 -158.322815 
L 918.043966 -156.609406 
L 918.741408 -154.895997 
L 919.625689 -153.182588 
L 920.677544 -151.469179 
L 921.84255 -149.75577 
L 923.045889 -148.04236 
L 924.211849 -146.328951 
L 925.283241 -144.615542 
L 926.235883 -142.902133 
L 927.084538 -141.188724 
L 927.879052 -139.475315 
L 928.692156 -137.761906 
L 929.602638 -136.048496 
L 930.678802 -134.335087 
L 931.966794 -132.621678 
L 933.486637 -130.908269 
L 935.236206 -129.19486 
L 937.200736 -127.481451 
L 939.363684 -125.768042 
L 941.714483 -124.054632 
L 944.250136 -122.341223 
L 946.970093 -120.627814 
L 949.866626 -118.914405 
L 952.914756 -117.200996 
L 956.065986 -115.487587 
L 959.248459 -113.774177 
L 962.373442 -112.060768 
L 965.345249 -110.347359 
L 968.070306 -108.63395 
L 970.461536 -106.920541 
L 972.436561 -105.207132 
L 973.911344 -103.493723 
L 974.793368 -101.780313 
L 974.979156 -100.066904 
L 974.359516 -98.353495 
L 972.832912 -96.640086 
L 970.324127 -94.926677 
L 966.803264 -93.213268 
L 962.299805 -91.499858 
L 956.908038 -89.786449 
L 950.782704 -88.07304 
L 944.126211 -86.359631 
L 937.170443 -84.646222 
L 930.156546 -82.932813 
L 923.315616 -81.219404 
L 916.852227 -79.505994 
L 910.931901 -77.792585 
L 905.673048 -76.079176 
L 901.14359 -74.365767 
L 897.362261 -72.652358 
L 894.304163 -70.938949 
L 891.909726 -69.22554 
L 890.095727 -67.51213 
L 888.766776 -65.798721 
L 887.825737 -64.085312 
L 887.181925 -62.371903 
L 886.756499 -60.658494 
L 886.485041 -58.945085 
z
" style="stroke: #444444; stroke-width: 1.25"/>
    </defs>
    <g clip-path="url(#pd53111a0fb)">
     <use xlink:href="#m7960951bf2" x="0" y="360" style="fill: #d47a64; stroke: #444444; stroke-width: 1.25"/>
    </g>
   </g>
   <g id="matplotlib.axis_3">
    <g id="xtick_3">
     <g id="line2d_8">
      <g>
       <use xlink:href="#me276aa8286" x="663.887344" y="321.23" style="stroke: #000000; stroke-width: 0.8"/>
      </g>
     </g>
     <g id="text_16">
      <!-- VUS -->
      <g transform="translate(653.633437 335.828438) scale(0.1 -0.1)">
       <use xlink:href="#DejaVuSans-56"/>
       <use xlink:href="#DejaVuSans-55" transform="translate(68.408203 0)"/>
       <use xlink:href="#DejaVuSans-53" transform="translate(141.601562 0)"/>
      </g>
     </g>
    </g>
    <g id="xtick_4">
     <g id="line2d_9">
      <g>
       <use xlink:href="#me276aa8286" x="886.095781" y="321.23" style="stroke: #000000; stroke-width: 0.8"/>
      </g>
     </g>
     <g id="text_17">
      <!-- P/LP -->
      <g transform="translate(875.595781 335.828438) scale(0.1 -0.1)">
       <use xlink:href="#DejaVuSans-50"/>
       <use xlink:href="#DejaVuSans-2f" transform="translate(60.302734 0)"/>
       <use xlink:href="#DejaVuSans-4c" transform="translate(93.994141 0)"/>
       <use xlink:href="#DejaVuSans-50" transform="translate(149.707031 0)"/>
      </g>
     </g>
    </g>
   </g>
   <g id="matplotlib.axis_4">
    <g id="ytick_6">
     <g id="line2d_10">
      <g>
       <use xlink:href="#mfafd59d27f" x="552.783125" y="287.654074" style="stroke: #000000; stroke-width: 0.8"/>
      </g>
     </g>
     <g id="text_18">
      <!-- 0 -->
      <g transform="translate(539.420625 291.453293) scale(0.1 -0.1)">
       <use xlink:href="#DejaVuSans-30"/>
      </g>
     </g>
    </g>
    <g id="ytick_7">
     <g id="line2d_11">
      <g>
       <use xlink:href="#mfafd59d27f" x="552.783125" y="250.062072" style="stroke: #000000; stroke-width: 0.8"/>
      </g>
     </g>
     <g id="text_19">
      <!-- 20 -->
      <g transform="translate(533.058125 253.861291) scale(0.1 -0.1)">
       <use xlink:href="#DejaVuSans-32"/>
       <use xlink:href="#DejaVuSans-30" transform="translate(63.623047 0)"/>
      </g>
     </g>
    </g>
    <g id="ytick_8">
     <g id="line2d_12">
      <g>
       <use xlink:href="#mfafd59d27f" x="552.783125" y="212.47007" style="stroke: #000000; stroke-width: 0.8"/>
      </g>
     </g>
     <g id="text_20">
      <!-- 40 -->
      <g transform="translate(533.058125 216.269288) scale(0.1 -0.1)">
       <defs>
        <path id="DejaVuSans-34" d="M 2419 4116 
L 825 1625 
L 2419 1625 
L 2419 4116 
z
M 2253 4666 
L 3047 4666 
L 3047 1625 
L 3713 1625 
L 3713 1100 
L 3047 1100 
L 3047 0 
L 2419 0 
L 2419 1100 
L 313 1100 
L 313 1709 
L 2253 4666 
z
" transform="scale(0.015625)"/>
       </defs>
       <use xlink:href="#DejaVuSans-34"/>
       <use xlink:href="#DejaVuSans-30" transform="translate(63.623047 0)"/>
      </g>
     </g>
    </g>
    <g id="ytick_9">
     <g id="line2d_13">
      <g>
       <use xlink:href="#mfafd59d27f" x="552.783125" y="174.878068" style="stroke: #000000; stroke-width: 0.8"/>
      </g>
     </g>
     <g id="text_21">
      <!-- 60 -->
      <g transform="translate(533.058125 178.677286) scale(0.1 -0.1)">
       <use xlink:href="#DejaVuSans-36"/>
       <use xlink:href="#DejaVuSans-30" transform="translate(63.623047 0)"/>
      </g>
     </g>
    </g>
    <g id="ytick_10">
     <g id="line2d_14">
      <g>
       <use xlink:href="#mfafd59d27f" x="552.783125" y="137.286065" style="stroke: #000000; stroke-width: 0.8"/>
      </g>
     </g>
     <g id="text_22">
      <!-- 80 -->
      <g transform="translate(533.058125 141.085284) scale(0.1 -0.1)">
       <defs>
        <path id="DejaVuSans-38" d="M 2034 2216 
Q 1584 2216 1326 1975 
Q 1069 1734 1069 1313 
Q 1069 891 1326 650 
Q 1584 409 2034 409 
Q 2484 409 2743 651 
Q 3003 894 3003 1313 
Q 3003 1734 2745 1975 
Q 2488 2216 2034 2216 
z
M 1403 2484 
Q 997 2584 770 2862 
Q 544 3141 544 3541 
Q 544 4100 942 4425 
Q 1341 4750 2034 4750 
Q 2731 4750 3128 4425 
Q 3525 4100 3525 3541 
Q 3525 3141 3298 2862 
Q 3072 2584 2669 2484 
Q 3125 2378 3379 2068 
Q 3634 1759 3634 1313 
Q 3634 634 3220 271 
Q 2806 -91 2034 -91 
Q 1263 -91 848 271 
Q 434 634 434 1313 
Q 434 1759 690 2068 
Q 947 2378 1403 2484 
z
M 1172 3481 
Q 1172 3119 1398 2916 
Q 1625 2713 2034 2713 
Q 2441 2713 2670 2916 
Q 2900 3119 2900 3481 
Q 2900 3844 2670 4047 
Q 2441 4250 2034 4250 
Q 1625 4250 1398 4047 
Q 1172 3844 1172 3481 
z
" transform="scale(0.015625)"/>
       </defs>
       <use xlink:href="#DejaVuSans-38"/>
       <use xlink:href="#DejaVuSans-30" transform="translate(63.623047 0)"/>
      </g>
     </g>
    </g>
    <g id="ytick_11">
     <g id="line2d_15">
      <g>
       <use xlink:href="#mfafd59d27f" x="552.783125" y="99.694063" style="stroke: #000000; stroke-width: 0.8"/>
      </g>
     </g>
     <g id="text_23">
      <!-- 100 -->
      <g transform="translate(526.695625 103.493282) scale(0.1 -0.1)">
       <use xlink:href="#DejaVuSans-31"/>
       <use xlink:href="#DejaVuSans-30" transform="translate(63.623047 0)"/>
       <use xlink:href="#DejaVuSans-30" transform="translate(127.246094 0)"/>
      </g>
     </g>
    </g>
    <g id="ytick_12">
     <g id="line2d_16">
      <g>
       <use xlink:href="#mfafd59d27f" x="552.783125" y="62.102061" style="stroke: #000000; stroke-width: 0.8"/>
      </g>
     </g>
     <g id="text_24">
      <!-- 120 -->
      <g transform="translate(526.695625 65.90128) scale(0.1 -0.1)">
       <use xlink:href="#DejaVuSans-31"/>
       <use xlink:href="#DejaVuSans-32" transform="translate(63.623047 0)"/>
       <use xlink:href="#DejaVuSans-30" transform="translate(127.246094 0)"/>
      </g>
     </g>
    </g>
    <g id="text_25">
     <!-- Pocket Distance (Å) -->
     <g transform="translate(520.615937 222.810469) rotate(-90) scale(0.1 -0.1)">
      <defs>
       <path id="DejaVuSans-c5" d="M 2663 5081 
Q 2663 5278 2523 5417 
Q 2384 5556 2188 5556 
Q 1988 5556 1852 5420 
Q 1716 5284 1716 5081 
Q 1716 4884 1853 4746 
Q 1991 4609 2188 4609 
Q 2384 4609 2523 4746 
Q 2663 4884 2663 5081 
z
M 2188 4044 
L 1338 1722 
L 3041 1722 
L 2188 4044 
z
M 1716 4366 
Q 1525 4494 1428 4673 
Q 1331 4853 1331 5081 
Q 1331 5441 1579 5691 
Q 1828 5941 2188 5941 
Q 2544 5941 2795 5689 
Q 3047 5438 3047 5081 
Q 3047 4863 2948 4678 
Q 2850 4494 2663 4366 
L 4325 0 
L 3669 0 
L 3244 1197 
L 1141 1197 
L 716 0 
L 50 0 
L 1716 4366 
z
" transform="scale(0.015625)"/>
      </defs>
      <use xlink:href="#DejaVuSans-50"/>
      <use xlink:href="#DejaVuSans-6f" transform="translate(56.677734 0)"/>
      <use xlink:href="#DejaVuSans-63" transform="translate(117.859375 0)"/>
      <use xlink:href="#DejaVuSans-6b" transform="translate(172.839844 0)"/>
      <use xlink:href="#DejaVuSans-65" transform="translate(227.125 0)"/>
      <use xlink:href="#DejaVuSans-74" transform="translate(288.648438 0)"/>
      <use xlink:href="#DejaVuSans-20" transform="translate(327.857422 0)"/>
      <use xlink:href="#DejaVuSans-44" transform="translate(359.644531 0)"/>
      <use xlink:href="#DejaVuSans-69" transform="translate(436.646484 0)"/>
      <use xlink:href="#DejaVuSans-73" transform="translate(464.429688 0)"/>
      <use xlink:href="#DejaVuSans-74" transform="translate(516.529297 0)"/>
      <use xlink:href="#DejaVuSans-61" transform="translate(555.738281 0)"/>
      <use xlink:href="#DejaVuSans-6e" transform="translate(617.017578 0)"/>
      <use xlink:href="#DejaVuSans-63" transform="translate(680.396484 0)"/>
      <use xlink:href="#DejaVuSans-65" transform="translate(735.376953 0)"/>
      <use xlink:href="#DejaVuSans-20" transform="translate(796.900391 0)"/>
      <use xlink:href="#DejaVuSans-28" transform="translate(828.6875 0)"/>
      <use xlink:href="#DejaVuSans-c5" transform="translate(867.701172 0)"/>
      <use xlink:href="#DejaVuSans-29" transform="translate(936.109375 0)"/>
     </g>
    </g>
   </g>
   <g id="line2d_17">
    <path d="M 663.887344 284.049953 
L 663.887344 64.060047 
" clip-path="url(#pd53111a0fb)" style="fill: none; stroke: #444444; stroke-width: 1.875; stroke-linecap: square"/>
   </g>
   <g id="line2d_18">
    <path d="M 663.887344 229.407599 
L 663.887344 155.878274 
" clip-path="url(#pd53111a0fb)" style="fill: none; stroke: #444444; stroke-width: 5.625; stroke-linecap: square"/>
   </g>
   <g id="line2d_19">
    <path d="M 663.887344 199.146253 
" clip-path="url(#pd53111a0fb)" style="fill: none; stroke: #444444; stroke-width: 1.5; stroke-linecap: square"/>
    <defs>
     <path id="m6c6c3023c5" d="M 2.34375 0 
L -2.34375 -0 
" style="stroke: #ffffff; stroke-width: 1.125"/>
    </defs>
    <g clip-path="url(#pd53111a0fb)">
     <use xlink:href="#m6c6c3023c5" x="663.887344" y="199.146253" style="fill: #ffffff; stroke: #ffffff; stroke-width: 1.125"/>
    </g>
   </g>
   <g id="line2d_20">
    <path d="M 886.095781 284.049953 
L 886.095781 151.142937 
" clip-path="url(#pd53111a0fb)" style="fill: none; stroke: #444444; stroke-width: 1.875; stroke-linecap: square"/>
   </g>
   <g id="line2d_21">
    <path d="M 886.095781 262.308252 
L 886.095781 217.771382 
" clip-path="url(#pd53111a0fb)" style="fill: none; stroke: #444444; stroke-width: 5.625; stroke-linecap: square"/>
   </g>
   <g id="line2d_22">
    <path d="M 886.095781 246.623962 
" clip-path="url(#pd53111a0fb)" style="fill: none; stroke: #444444; stroke-width: 1.5; stroke-linecap: square"/>
    <g clip-path="url(#pd53111a0fb)">
     <use xlink:href="#m6c6c3023c5" x="886.095781" y="246.623962" style="fill: #ffffff; stroke: #ffffff; stroke-width: 1.125"/>
    </g>
   </g>
   <g id="patch_26">
    <path d="M 552.783125 321.23 
L 552.783125 26.88 
" style="fill: none; stroke: #000000; stroke-width: 0.8; stroke-linejoin: miter; stroke-linecap: square"/>
   </g>
   <g id="patch_27">
    <path d="M 997.2 321.23 
L 997.2 26.88 
" style="fill: none; stroke: #000000; stroke-width: 0.8; stroke-linejoin: miter; stroke-linecap: square"/>
   </g>
   <g id="patch_28">
    <path d="M 552.783125 321.23 
L 997.2 321.23 
" style="fill: none; stroke: #000000; stroke-width: 0.8; stroke-linejoin: miter; stroke-linecap: square"/>
   </g>
   <g id="patch_29">
    <path d="M 552.783125 26.88 
L 997.2 26.88 
" style="fill: none; stroke: #000000; stroke-width: 0.8; stroke-linejoin: miter; stroke-linecap: square"/>
   </g>
   <g id="text_26">
    <!-- p=2.15e-80 -->
    <g transform="translate(566.115631 43.308938) scale(0.1 -0.1)">
     <defs>
      <path id="DejaVuSans-70" d="M 1159 525 
L 1159 -1331 
L 581 -1331 
L 581 3500 
L 1159 3500 
L 1159 2969 
Q 1341 3281 1617 3432 
Q 1894 3584 2278 3584 
Q 2916 3584 3314 3078 
Q 3713 2572 3713 1747 
Q 3713 922 3314 415 
Q 2916 -91 2278 -91 
Q 1894 -91 1617 61 
Q 1341 213 1159 525 
z
M 3116 1747 
Q 3116 2381 2855 2742 
Q 2594 3103 2138 3103 
Q 1681 3103 1420 2742 
Q 1159 2381 1159 1747 
Q 1159 1113 1420 752 
Q 1681 391 2138 391 
Q 2594 391 2855 752 
Q 3116 1113 3116 1747 
z
" transform="scale(0.015625)"/>
      <path id="DejaVuSans-3d" d="M 678 2906 
L 4684 2906 
L 4684 2381 
L 678 2381 
L 678 2906 
z
M 678 1631 
L 4684 1631 
L 4684 1100 
L 678 1100 
L 678 1631 
z
" transform="scale(0.015625)"/>
      <path id="DejaVuSans-2e" d="M 684 794 
L 1344 794 
L 1344 0 
L 684 0 
L 684 794 
z
" transform="scale(0.015625)"/>
     </defs>
     <use xlink:href="#DejaVuSans-70"/>
     <use xlink:href="#DejaVuSans-3d" transform="translate(63.476562 0)"/>
     <use xlink:href="#DejaVuSans-32" transform="translate(147.265625 0)"/>
     <use xlink:href="#DejaVuSans-2e" transform="translate(210.888672 0)"/>
     <use xlink:href="#DejaVuSans-31" transform="translate(242.675781 0)"/>
     <use xlink:href="#DejaVuSans-35" transform="translate(306.298828 0)"/>
     <use xlink:href="#DejaVuSans-65" transform="translate(369.921875 0)"/>
     <use xlink:href="#DejaVuSans-2d" transform="translate(431.445312 0)"/>
     <use xlink:href="#DejaVuSans-38" transform="translate(467.529297 0)"/>
     <use xlink:href="#DejaVuSans-30" transform="translate(531.152344 0)"/>
    </g>
    <!-- d=-1.07 -->
    <g transform="translate(566.115631 54.50675) scale(0.1 -0.1)">
     <defs>
      <path id="DejaVuSans-37" d="M 525 4666 
L 3525 4666 
L 3525 4397 
L 1831 0 
L 1172 0 
L 2766 4134 
L 525 4134 
L 525 4666 
z
" transform="scale(0.015625)"/>
     </defs>
     <use xlink:href="#DejaVuSans-64"/>
     <use xlink:href="#DejaVuSans-3d" transform="translate(63.476562 0)"/>
     <use xlink:href="#DejaVuSans-2d" transform="translate(147.265625 0)"/>
     <use xlink:href="#DejaVuSans-31" transform="translate(183.349609 0)"/>
     <use xlink:href="#DejaVuSans-2e" transform="translate(246.972656 0)"/>
     <use xlink:href="#DejaVuSans-30" transform="translate(278.759766 0)"/>
     <use xlink:href="#DejaVuSans-37" transform="translate(342.382812 0)"/>
    </g>
    <!-- Δmedian=-25.26 Å -->
    <g transform="translate(566.115631 65.704563) scale(0.1 -0.1)">
     <defs>
      <path id="DejaVuSans-394" d="M 2188 4044 
L 906 525 
L 3472 525 
L 2188 4044 
z
M 50 0 
L 1831 4666 
L 2547 4666 
L 4325 0 
L 50 0 
z
" transform="scale(0.015625)"/>
     </defs>
     <use xlink:href="#DejaVuSans-394"/>
     <use xlink:href="#DejaVuSans-6d" transform="translate(68.408203 0)"/>
     <use xlink:href="#DejaVuSans-65" transform="translate(165.820312 0)"/>
     <use xlink:href="#DejaVuSans-64" transform="translate(227.34375 0)"/>
     <use xlink:href="#DejaVuSans-69" transform="translate(290.820312 0)"/>
     <use xlink:href="#DejaVuSans-61" transform="translate(318.603516 0)"/>
     <use xlink:href="#DejaVuSans-6e" transform="translate(379.882812 0)"/>
     <use xlink:href="#DejaVuSans-3d" transform="translate(443.261719 0)"/>
     <use xlink:href="#DejaVuSans-2d" transform="translate(527.050781 0)"/>
     <use xlink:href="#DejaVuSans-32" transform="translate(563.134766 0)"/>
     <use xlink:href="#DejaVuSans-35" transform="translate(626.757812 0)"/>
     <use xlink:href="#DejaVuSans-2e" transform="translate(690.380859 0)"/>
     <use xlink:href="#DejaVuSans-32" transform="translate(722.167969 0)"/>
     <use xlink:href="#DejaVuSans-36" transform="translate(785.791016 0)"/>
     <use xlink:href="#DejaVuSans-20" transform="translate(849.414062 0)"/>
     <use xlink:href="#DejaVuSans-c5" transform="translate(881.201172 0)"/>
    </g>
   </g>
   <g id="text_27">
    <!-- Pocket Distance by Clinical Class -->
    <g transform="translate(676.676875 20.88) scale(0.12 -0.12)">
     <use xlink:href="#DejaVuSans-50"/>
     <use xlink:href="#DejaVuSans-6f" transform="translate(56.677734 0)"/>
     <use xlink:href="#DejaVuSans-63" transform="translate(117.859375 0)"/>
     <use xlink:href="#DejaVuSans-6b" transform="translate(172.839844 0)"/>
     <use xlink:href="#DejaVuSans-65" transform="translate(227.125 0)"/>
     <use xlink:href="#DejaVuSans-74" transform="translate(288.648438 0)"/>
     <use xlink:href="#DejaVuSans-20" transform="translate(327.857422 0)"/>
     <use xlink:href="#DejaVuSans-44" transform="translate(359.644531 0)"/>
     <use xlink:href="#DejaVuSans-69" transform="translate(436.646484 0)"/>
     <use xlink:href="#DejaVuSans-73" transform="translate(464.429688 0)"/>
     <use xlink:href="#DejaVuSans-74" transform="translate(516.529297 0)"/>
     <use xlink:href="#DejaVuSans-61" transform="translate(555.738281 0)"/>
     <use xlink:href="#DejaVuSans-6e" transform="translate(617.017578 0)"/>
     <use xlink:href="#DejaVuSans-63" transform="translate(680.396484 0)"/>
     <use xlink:href="#DejaVuSans-65" transform="translate(735.376953 0)"/>
     <use xlink:href="#DejaVuSans-20" transform="translate(796.900391 0)"/>
     <use xlink:href="#DejaVuSans-62" transform="translate(828.6875 0)"/>
     <use xlink:href="#DejaVuSans-79" transform="translate(892.164062 0)"/>
     <use xlink:href="#DejaVuSans-20" transform="translate(951.34375 0)"/>
     <use xlink:href="#DejaVuSans-43" transform="translate(983.130859 0)"/>
     <use xlink:href="#DejaVuSans-6c" transform="translate(1052.955078 0)"/>
     <use xlink:href="#DejaVuSans-69" transform="translate(1080.738281 0)"/>
     <use xlink:href="#DejaVuSans-6e" transform="translate(1108.521484 0)"/>
     <use xlink:href="#DejaVuSans-69" transform="translate(1171.900391 0)"/>
     <use xlink:href="#DejaVuSans-63" transform="translate(1199.683594 0)"/>
     <use xlink:href="#DejaVuSans-61" transform="translate(1254.664062 0)"/>
     <use xlink:href="#DejaVuSans-6c" transform="translate(1315.943359 0)"/>
     <use xlink:href="#DejaVuSans-20" transform="translate(1343.726562 0)"/>
     <use xlink:href="#DejaVuSans-43" transform="translate(1375.513672 0)"/>
     <use xlink:href="#DejaVuSans-6c" transform="translate(1445.337891 0)"/>
     <use xlink:href="#DejaVuSans-61" transform="translate(1473.121094 0)"/>
     <use xlink:href="#DejaVuSans-73" transform="translate(1534.400391 0)"/>
     <use xlink:href="#DejaVuSans-73" transform="translate(1586.5 0)"/>
    </g>
   </g>
  </g>
 </g>
 <defs>
  <clipPath id="p02fb26862a">
   <rect x="57.17" y="26.88" width="444.416875" height="294.35"/>
  </clipPath>
  <clipPath id="pd53111a0fb">
   <rect x="552.783125" y="26.88" width="444.416875" height="294.35"/>
  </clipPath>
 </defs>
</svg>
