<?xml version="1.0" encoding="utf-8" standalone="no"?>
<!DOCTYPE svg PUBLIC "-//W3C//DTD SVG 1.1//EN"
  "http://www.w3.org/Graphics/SVG/1.1/DTD/svg11.dtd">
<svg xmlns:xlink="http://www.w3.org/1999/xlink" width="1066.3245pt" height="420.277922pt" viewBox="0 0 1066.3245 420.277922" xmlns="http://www.w3.org/2000/svg" version="1.1">
 <metadata>
  <rdf:RDF xmlns:dc="http://purl.org/dc/elements/1.1/" xmlns:cc="http://creativecommons.org/ns#" xmlns:rdf="http://www.w3.org/1999/02/22-rdf-syntax-ns#">
   <cc:Work>
    <dc:type rdf:resource="http://purl.org/dc/dcmitype/StillImage"/>
    <dc:date>2022-01-01T05:00:00+00:00</dc:date>
    <dc:format>image/svg+xml</dc:format>
    <dc:creator>
     <cc:Agent>
      <dc:title>Matplotlib v3.10.5, https://matplotlib.org/</dc:title>
     </cc:Agent>
    </dc:creator>
   </cc:Work>
  </rdf:RDF>
 </metadata>
 <defs>
  <style type="text/css">*{stroke-linejoin: round; stroke-linecap: butt}</style>
 </defs>
 <g id="figure_1">
  <g id="patch_1">
   <path d="M 0 420.277922 
L 1066.3245 420.277922 
L 1066.3245 0 
L 0 0 
z
" style="fill: #ffffff"/>
  </g>
  <g id="axes_1">
   <g id="patch_2">
    <path d="M 54.9405 376.20525 
L 525.540375 376.20525 
L 525.540375 35.84925 
L 54.9405 35.84925 
z
" style="fill: #ffffff"/>
   </g>
   <g id="matplotlib.axis_1">
    <g id="xtick_1">
     <g id="line2d_1">
      <defs>
       <path id="m561d0f6f07" d="M 0 0 
L 0 6 
" style="stroke: #262626; stroke-width: 1.25"/>
      </defs>
      <g>
       <use xlink:href="#m561d0f6f07" x="109.240486" y="376.20525" style="fill: #262626; stroke: #262626; stroke-width: 1.25"/>
      </g>
     </g>
     <g id="text_1">
      <!-- KCNQ1 -->
      <g style="fill: #262626" transform="translate(89.197626 394.481445) scale(0.1155 -0.1155)">
       <defs>
        <path id="DejaVuSans-4b" d="M 628 4666 
L 1259 4666 
L 1259 2694 
L 3353 4666 
L 4166 4666 
L 1850 2491 
L 4331 0 
L 3500 0 
L 1259 2247 
L 1259 0 
L 628 0 
L 628 4666 
z
" transform="scale(0.015625)"/>
        <path id="DejaVuSans-43" d="M 4122 4306 
L 4122 3641 
Q 3803 3938 3442 4084 
Q 3081 4231 2675 4231 
Q 1875 4231 1450 3742 
Q 1025 3253 1025 2328 
Q 1025 1406 1450 917 
Q 1875 428 2675 428 
Q 3081 428 3442 575 
Q 3803 722 4122 1019 
L 4122 359 
Q 3791 134 3420 21 
Q 3050 -91 2638 -91 
Q 1578 -91 968 557 
Q 359 1206 359 2328 
Q 359 3453 968 4101 
Q 1578 4750 2638 4750 
Q 3056 4750 3426 4639 
Q 3797 4528 4122 4306 
z
" transform="scale(0.015625)"/>
        <path id="DejaVuSans-4e" d="M 628 4666 
L 1478 4666 
L 3547 763 
L 3547 4666 
L 4159 4666 
L 4159 0 
L 3309 0 
L 1241 3903 
L 1241 0 
L 628 0 
L 628 4666 
z
" transform="scale(0.015625)"/>
        <path id="DejaVuSans-51" d="M 2522 4238 
Q 1834 4238 1429 3725 
Q 1025 3213 1025 2328 
Q 1025 1447 1429 934 
Q 1834 422 2522 422 
Q 3209 422 3611 934 
Q 4013 1447 4013 2328 
Q 4013 3213 3611 3725 
Q 3209 4238 2522 4238 
z
M 3406 84 
L 4238 -825 
L 3475 -825 
L 2784 -78 
Q 2681 -84 2626 -87 
Q 2572 -91 2522 -91 
Q 1538 -91 948 567 
Q 359 1225 359 2328 
Q 359 3434 948 4092 
Q 1538 4750 2522 4750 
Q 3503 4750 4090 4092 
Q 4678 3434 4678 2328 
Q 4678 1516 4351 937 
Q 4025 359 3406 84 
z
" transform="scale(0.015625)"/>
        <path id="DejaVuSans-31" d="M 794 531 
L 1825 531 
L 1825 4091 
L 703 3866 
L 703 4441 
L 1819 4666 
L 2450 4666 
L 2450 531 
L 3481 531 
L 3481 0 
L 794 0 
L 794 531 
z
" transform="scale(0.015625)"/>
       </defs>
       <use xlink:href="#DejaVuSans-4b"/>
       <use xlink:href="#DejaVuSans-43" transform="translate(60.076172 0)"/>
       <use xlink:href="#DejaVuSans-4e" transform="translate(129.900391 0)"/>
       <use xlink:href="#DejaVuSans-51" transform="translate(204.705078 0)"/>
       <use xlink:href="#DejaVuSans-31" transform="translate(283.416016 0)"/>
      </g>
     </g>
    </g>
    <g id="xtick_2">
     <g id="line2d_2">
      <g>
       <use xlink:href="#m561d0f6f07" x="199.740462" y="376.20525" style="fill: #262626; stroke: #262626; stroke-width: 1.25"/>
      </g>
     </g>
     <g id="text_2">
      <!-- KCNQ2 -->
      <g style="fill: #262626" transform="translate(179.697602 394.481445) scale(0.1155 -0.1155)">
       <defs>
        <path id="DejaVuSans-32" d="M 1228 531 
L 3431 531 
L 3431 0 
L 469 0 
L 469 531 
Q 828 903 1448 1529 
Q 2069 2156 2228 2338 
Q 2531 2678 2651 2914 
Q 2772 3150 2772 3378 
Q 2772 3750 2511 3984 
Q 2250 4219 1831 4219 
Q 1534 4219 1204 4116 
Q 875 4013 500 3803 
L 500 4441 
Q 881 4594 1212 4672 
Q 1544 4750 1819 4750 
Q 2544 4750 2975 4387 
Q 3406 4025 3406 3419 
Q 3406 3131 3298 2873 
Q 3191 2616 2906 2266 
Q 2828 2175 2409 1742 
Q 1991 1309 1228 531 
z
" transform="scale(0.015625)"/>
       </defs>
       <use xlink:href="#DejaVuSans-4b"/>
       <use xlink:href="#DejaVuSans-43" transform="translate(60.076172 0)"/>
       <use xlink:href="#DejaVuSans-4e" transform="translate(129.900391 0)"/>
       <use xlink:href="#DejaVuSans-51" transform="translate(204.705078 0)"/>
       <use xlink:href="#DejaVuSans-32" transform="translate(283.416016 0)"/>
      </g>
     </g>
    </g>
    <g id="xtick_3">
     <g id="line2d_3">
      <g>
       <use xlink:href="#m561d0f6f07" x="290.240437" y="376.20525" style="fill: #262626; stroke: #262626; stroke-width: 1.25"/>
      </g>
     </g>
     <g id="text_3">
      <!-- KCNQ3 -->
      <g style="fill: #262626" transform="translate(270.197578 394.481445) scale(0.1155 -0.1155)">
       <defs>
        <path id="DejaVuSans-33" d="M 2597 2516 
Q 3050 2419 3304 2112 
Q 3559 1806 3559 1356 
Q 3559 666 3084 287 
Q 2609 -91 1734 -91 
Q 1441 -91 1130 -33 
Q 819 25 488 141 
L 488 750 
Q 750 597 1062 519 
Q 1375 441 1716 441 
Q 2309 441 2620 675 
Q 2931 909 2931 1356 
Q 2931 1769 2642 2001 
Q 2353 2234 1838 2234 
L 1294 2234 
L 1294 2753 
L 1863 2753 
Q 2328 2753 2575 2939 
Q 2822 3125 2822 3475 
Q 2822 3834 2567 4026 
Q 2313 4219 1838 4219 
Q 1578 4219 1281 4162 
Q 984 4106 628 3988 
L 628 4550 
Q 988 4650 1302 4700 
Q 1616 4750 1894 4750 
Q 2613 4750 3031 4423 
Q 3450 4097 3450 3541 
Q 3450 3153 3228 2886 
Q 3006 2619 2597 2516 
z
" transform="scale(0.015625)"/>
       </defs>
       <use xlink:href="#DejaVuSans-4b"/>
       <use xlink:href="#DejaVuSans-43" transform="translate(60.076172 0)"/>
       <use xlink:href="#DejaVuSans-4e" transform="translate(129.900391 0)"/>
       <use xlink:href="#DejaVuSans-51" transform="translate(204.705078 0)"/>
       <use xlink:href="#DejaVuSans-33" transform="translate(283.416016 0)"/>
      </g>
     </g>
    </g>
    <g id="xtick_4">
     <g id="line2d_4">
      <g>
       <use xlink:href="#m561d0f6f07" x="380.740413" y="376.20525" style="fill: #262626; stroke: #262626; stroke-width: 1.25"/>
      </g>
     </g>
     <g id="text_4">
      <!-- KCNQ4 -->
      <g style="fill: #262626" transform="translate(360.697554 394.481445) scale(0.1155 -0.1155)">
       <defs>
        <path id="DejaVuSans-34" d="M 2419 4116 
L 825 1625 
L 2419 1625 
L 2419 4116 
z
M 2253 4666 
L 3047 4666 
L 3047 1625 
L 3713 1625 
L 3713 1100 
L 3047 1100 
L 3047 0 
L 2419 0 
L 2419 1100 
L 313 1100 
L 313 1709 
L 2253 4666 
z
" transform="scale(0.015625)"/>
       </defs>
       <use xlink:href="#DejaVuSans-4b"/>
       <use xlink:href="#DejaVuSans-43" transform="translate(60.076172 0)"/>
       <use xlink:href="#DejaVuSans-4e" transform="translate(129.900391 0)"/>
       <use xlink:href="#DejaVuSans-51" transform="translate(204.705078 0)"/>
       <use xlink:href="#DejaVuSans-34" transform="translate(283.416016 0)"/>
      </g>
     </g>
    </g>
    <g id="xtick_5">
     <g id="line2d_5">
      <g>
       <use xlink:href="#m561d0f6f07" x="471.240389" y="376.20525" style="fill: #262626; stroke: #262626; stroke-width: 1.25"/>
      </g>
     </g>
     <g id="text_5">
      <!-- KCNQ5 -->
      <g style="fill: #262626" transform="translate(451.19753 394.481445) scale(0.1155 -0.1155)">
       <defs>
        <path id="DejaVuSans-35" d="M 691 4666 
L 3169 4666 
L 3169 4134 
L 1269 4134 
L 1269 2991 
Q 1406 3038 1543 3061 
Q 1681 3084 1819 3084 
Q 2600 3084 3056 2656 
Q 3513 2228 3513 1497 
Q 3513 744 3044 326 
Q 2575 -91 1722 -91 
Q 1428 -91 1123 -41 
Q 819 9 494 109 
L 494 744 
Q 775 591 1075 516 
Q 1375 441 1709 441 
Q 2250 441 2565 725 
Q 2881 1009 2881 1497 
Q 2881 1984 2565 2268 
Q 2250 2553 1709 2553 
Q 1456 2553 1204 2497 
Q 953 2441 691 2322 
L 691 4666 
z
" transform="scale(0.015625)"/>
       </defs>
       <use xlink:href="#DejaVuSans-4b"/>
       <use xlink:href="#DejaVuSans-43" transform="translate(60.076172 0)"/>
       <use xlink:href="#DejaVuSans-4e" transform="translate(129.900391 0)"/>
       <use xlink:href="#DejaVuSans-51" transform="translate(204.705078 0)"/>
       <use xlink:href="#DejaVuSans-35" transform="translate(283.416016 0)"/>
      </g>
     </g>
    </g>
    <g id="text_6">
     <!-- Gene -->
     <g style="fill: #262626" transform="translate(273.613359 410.457516) scale(0.126 -0.126)">
      <defs>
       <path id="DejaVuSans-47" d="M 3809 666 
L 3809 1919 
L 2778 1919 
L 2778 2438 
L 4434 2438 
L 4434 434 
Q 4069 175 3628 42 
Q 3188 -91 2688 -91 
Q 1594 -91 976 548 
Q 359 1188 359 2328 
Q 359 3472 976 4111 
Q 1594 4750 2688 4750 
Q 3144 4750 3555 4637 
Q 3966 4525 4313 4306 
L 4313 3634 
Q 3963 3931 3569 4081 
Q 3175 4231 2741 4231 
Q 1884 4231 1454 3753 
Q 1025 3275 1025 2328 
Q 1025 1384 1454 906 
Q 1884 428 2741 428 
Q 3075 428 3337 486 
Q 3600 544 3809 666 
z
" transform="scale(0.015625)"/>
       <path id="DejaVuSans-65" d="M 3597 1894 
L 3597 1613 
L 953 1613 
Q 991 1019 1311 708 
Q 1631 397 2203 397 
Q 2534 397 2845 478 
Q 3156 559 3463 722 
L 3463 178 
Q 3153 47 2828 -22 
Q 2503 -91 2169 -91 
Q 1331 -91 842 396 
Q 353 884 353 1716 
Q 353 2575 817 3079 
Q 1281 3584 2069 3584 
Q 2775 3584 3186 3129 
Q 3597 2675 3597 1894 
z
M 3022 2063 
Q 3016 2534 2758 2815 
Q 2500 3097 2075 3097 
Q 1594 3097 1305 2825 
Q 1016 2553 972 2059 
L 3022 2063 
z
" transform="scale(0.015625)"/>
       <path id="DejaVuSans-6e" d="M 3513 2113 
L 3513 0 
L 2938 0 
L 2938 2094 
Q 2938 2591 2744 2837 
Q 2550 3084 2163 3084 
Q 1697 3084 1428 2787 
Q 1159 2491 1159 1978 
L 1159 0 
L 581 0 
L 581 3500 
L 1159 3500 
L 1159 2956 
Q 1366 3272 1645 3428 
Q 1925 3584 2291 3584 
Q 2894 3584 3203 3211 
Q 3513 2838 3513 2113 
z
" transform="scale(0.015625)"/>
      </defs>
      <use xlink:href="#DejaVuSans-47"/>
      <use xlink:href="#DejaVuSans-65" transform="translate(77.490234 0)"/>
      <use xlink:href="#DejaVuSans-6e" transform="translate(139.013672 0)"/>
      <use xlink:href="#DejaVuSans-65" transform="translate(202.392578 0)"/>
     </g>
    </g>
   </g>
   <g id="matplotlib.axis_2">
    <g id="ytick_1">
     <g id="line2d_6">
      <defs>
       <path id="ma128b4f4ce" d="M 0 0 
L -6 0 
" style="stroke: #262626; stroke-width: 1.25"/>
      </defs>
      <g>
       <use xlink:href="#ma128b4f4ce" x="54.9405" y="376.20525" style="fill: #262626; stroke: #262626; stroke-width: 1.25"/>
      </g>
     </g>
     <g id="text_7">
      <!-- 0 -->
      <g style="fill: #262626" transform="translate(38.091813 380.593348) scale(0.1155 -0.1155)">
       <defs>
        <path id="DejaVuSans-30" d="M 2034 4250 
Q 1547 4250 1301 3770 
Q 1056 3291 1056 2328 
Q 1056 1369 1301 889 
Q 1547 409 2034 409 
Q 2525 409 2770 889 
Q 3016 1369 3016 2328 
Q 3016 3291 2770 3770 
Q 2525 4250 2034 4250 
z
M 2034 4750 
Q 2819 4750 3233 4129 
Q 3647 3509 3647 2328 
Q 3647 1150 3233 529 
Q 2819 -91 2034 -91 
Q 1250 -91 836 529 
Q 422 1150 422 2328 
Q 422 3509 836 4129 
Q 1250 4750 2034 4750 
z
" transform="scale(0.015625)"/>
       </defs>
       <use xlink:href="#DejaVuSans-30"/>
      </g>
     </g>
    </g>
    <g id="ytick_2">
     <g id="line2d_7">
      <g>
       <use xlink:href="#ma128b4f4ce" x="54.9405" y="320.509619" style="fill: #262626; stroke: #262626; stroke-width: 1.25"/>
      </g>
     </g>
     <g id="text_8">
      <!-- 50 -->
      <g style="fill: #262626" transform="translate(30.743125 324.897717) scale(0.1155 -0.1155)">
       <use xlink:href="#DejaVuSans-35"/>
       <use xlink:href="#DejaVuSans-30" transform="translate(63.623047 0)"/>
      </g>
     </g>
    </g>
    <g id="ytick_3">
     <g id="line2d_8">
      <g>
       <use xlink:href="#ma128b4f4ce" x="54.9405" y="264.813988" style="fill: #262626; stroke: #262626; stroke-width: 1.25"/>
      </g>
     </g>
     <g id="text_9">
      <!-- 100 -->
      <g style="fill: #262626" transform="translate(23.394438 269.202086) scale(0.1155 -0.1155)">
       <use xlink:href="#DejaVuSans-31"/>
       <use xlink:href="#DejaVuSans-30" transform="translate(63.623047 0)"/>
       <use xlink:href="#DejaVuSans-30" transform="translate(127.246094 0)"/>
      </g>
     </g>
    </g>
    <g id="ytick_4">
     <g id="line2d_9">
      <g>
       <use xlink:href="#ma128b4f4ce" x="54.9405" y="209.118358" style="fill: #262626; stroke: #262626; stroke-width: 1.25"/>
      </g>
     </g>
     <g id="text_10">
      <!-- 150 -->
      <g style="fill: #262626" transform="translate(23.394438 213.506455) scale(0.1155 -0.1155)">
       <use xlink:href="#DejaVuSans-31"/>
       <use xlink:href="#DejaVuSans-35" transform="translate(63.623047 0)"/>
       <use xlink:href="#DejaVuSans-30" transform="translate(127.246094 0)"/>
      </g>
     </g>
    </g>
    <g id="ytick_5">
     <g id="line2d_10">
      <g>
       <use xlink:href="#ma128b4f4ce" x="54.9405" y="153.422727" style="fill: #262626; stroke: #262626; stroke-width: 1.25"/>
      </g>
     </g>
     <g id="text_11">
      <!-- 200 -->
      <g style="fill: #262626" transform="translate(23.394438 157.810824) scale(0.1155 -0.1155)">
       <use xlink:href="#DejaVuSans-32"/>
       <use xlink:href="#DejaVuSans-30" transform="translate(63.623047 0)"/>
       <use xlink:href="#DejaVuSans-30" transform="translate(127.246094 0)"/>
      </g>
     </g>
    </g>
    <g id="ytick_6">
     <g id="line2d_11">
      <g>
       <use xlink:href="#ma128b4f4ce" x="54.9405" y="97.727096" style="fill: #262626; stroke: #262626; stroke-width: 1.25"/>
      </g>
     </g>
     <g id="text_12">
      <!-- 250 -->
      <g style="fill: #262626" transform="translate(23.394438 102.115194) scale(0.1155 -0.1155)">
       <use xlink:href="#DejaVuSans-32"/>
       <use xlink:href="#DejaVuSans-35" transform="translate(63.623047 0)"/>
       <use xlink:href="#DejaVuSans-30" transform="translate(127.246094 0)"/>
      </g>
     </g>
    </g>
    <g id="ytick_7">
     <g id="line2d_12">
      <g>
       <use xlink:href="#ma128b4f4ce" x="54.9405" y="42.031465" style="fill: #262626; stroke: #262626; stroke-width: 1.25"/>
      </g>
     </g>
     <g id="text_13">
      <!-- 300 -->
      <g style="fill: #262626" transform="translate(23.394438 46.419563) scale(0.1155 -0.1155)">
       <use xlink:href="#DejaVuSans-33"/>
       <use xlink:href="#DejaVuSans-30" transform="translate(63.623047 0)"/>
       <use xlink:href="#DejaVuSans-30" transform="translate(127.246094 0)"/>
      </g>
     </g>
    </g>
    <g id="text_14">
     <!-- Number of Variants -->
     <g style="fill: #262626" transform="translate(16.774031 267.039797) rotate(-90) scale(0.126 -0.126)">
      <defs>
       <path id="DejaVuSans-75" d="M 544 1381 
L 544 3500 
L 1119 3500 
L 1119 1403 
Q 1119 906 1312 657 
Q 1506 409 1894 409 
Q 2359 409 2629 706 
Q 2900 1003 2900 1516 
L 2900 3500 
L 3475 3500 
L 3475 0 
L 2900 0 
L 2900 538 
Q 2691 219 2414 64 
Q 2138 -91 1772 -91 
Q 1169 -91 856 284 
Q 544 659 544 1381 
z
M 1991 3584 
L 1991 3584 
z
" transform="scale(0.015625)"/>
       <path id="DejaVuSans-6d" d="M 3328 2828 
Q 3544 3216 3844 3400 
Q 4144 3584 4550 3584 
Q 5097 3584 5394 3201 
Q 5691 2819 5691 2113 
L 5691 0 
L 5113 0 
L 5113 2094 
Q 5113 2597 4934 2840 
Q 4756 3084 4391 3084 
Q 3944 3084 3684 2787 
Q 3425 2491 3425 1978 
L 3425 0 
L 2847 0 
L 2847 2094 
Q 2847 2600 2669 2842 
Q 2491 3084 2119 3084 
Q 1678 3084 1418 2786 
Q 1159 2488 1159 1978 
L 1159 0 
L 581 0 
L 581 3500 
L 1159 3500 
L 1159 2956 
Q 1356 3278 1631 3431 
Q 1906 3584 2284 3584 
Q 2666 3584 2933 3390 
Q 3200 3197 3328 2828 
z
" transform="scale(0.015625)"/>
       <path id="DejaVuSans-62" d="M 3116 1747 
Q 3116 2381 2855 2742 
Q 2594 3103 2138 3103 
Q 1681 3103 1420 2742 
Q 1159 2381 1159 1747 
Q 1159 1113 1420 752 
Q 1681 391 2138 391 
Q 2594 391 2855 752 
Q 3116 1113 3116 1747 
z
M 1159 2969 
Q 1341 3281 1617 3432 
Q 1894 3584 2278 3584 
Q 2916 3584 3314 3078 
Q 3713 2572 3713 1747 
Q 3713 922 3314 415 
Q 2916 -91 2278 -91 
Q 1894 -91 1617 61 
Q 1341 213 1159 525 
L 1159 0 
L 581 0 
L 581 4863 
L 1159 4863 
L 1159 2969 
z
" transform="scale(0.015625)"/>
       <path id="DejaVuSans-72" d="M 2631 2963 
Q 2534 3019 2420 3045 
Q 2306 3072 2169 3072 
Q 1681 3072 1420 2755 
Q 1159 2438 1159 1844 
L 1159 0 
L 581 0 
L 581 3500 
L 1159 3500 
L 1159 2956 
Q 1341 3275 1631 3429 
Q 1922 3584 2338 3584 
Q 2397 3584 2469 3576 
Q 2541 3569 2628 3553 
L 2631 2963 
z
" transform="scale(0.015625)"/>
       <path id="DejaVuSans-20" transform="scale(0.015625)"/>
       <path id="DejaVuSans-6f" d="M 1959 3097 
Q 1497 3097 1228 2736 
Q 959 2375 959 1747 
Q 959 1119 1226 758 
Q 1494 397 1959 397 
Q 2419 397 2687 759 
Q 2956 1122 2956 1747 
Q 2956 2369 2687 2733 
Q 2419 3097 1959 3097 
z
M 1959 3584 
Q 2709 3584 3137 3096 
Q 3566 2609 3566 1747 
Q 3566 888 3137 398 
Q 2709 -91 1959 -91 
Q 1206 -91 779 398 
Q 353 888 353 1747 
Q 353 2609 779 3096 
Q 1206 3584 1959 3584 
z
" transform="scale(0.015625)"/>
       <path id="DejaVuSans-66" d="M 2375 4863 
L 2375 4384 
L 1825 4384 
Q 1516 4384 1395 4259 
Q 1275 4134 1275 3809 
L 1275 3500 
L 2222 3500 
L 2222 3053 
L 1275 3053 
L 1275 0 
L 697 0 
L 697 3053 
L 147 3053 
L 147 3500 
L 697 3500 
L 697 3744 
Q 697 4328 969 4595 
Q 1241 4863 1831 4863 
L 2375 4863 
z
" transform="scale(0.015625)"/>
       <path id="DejaVuSans-56" d="M 1831 0 
L 50 4666 
L 709 4666 
L 2188 738 
L 3669 4666 
L 4325 4666 
L 2547 0 
L 1831 0 
z
" transform="scale(0.015625)"/>
       <path id="DejaVuSans-61" d="M 2194 1759 
Q 1497 1759 1228 1600 
Q 959 1441 959 1056 
Q 959 750 1161 570 
Q 1363 391 1709 391 
Q 2188 391 2477 730 
Q 2766 1069 2766 1631 
L 2766 1759 
L 2194 1759 
z
M 3341 1997 
L 3341 0 
L 2766 0 
L 2766 531 
Q 2569 213 2275 61 
Q 1981 -91 1556 -91 
Q 1019 -91 701 211 
Q 384 513 384 1019 
Q 384 1609 779 1909 
Q 1175 2209 1959 2209 
L 2766 2209 
L 2766 2266 
Q 2766 2663 2505 2880 
Q 2244 3097 1772 3097 
Q 1472 3097 1187 3025 
Q 903 2953 641 2809 
L 641 3341 
Q 956 3463 1253 3523 
Q 1550 3584 1831 3584 
Q 2591 3584 2966 3190 
Q 3341 2797 3341 1997 
z
" transform="scale(0.015625)"/>
       <path id="DejaVuSans-69" d="M 603 3500 
L 1178 3500 
L 1178 0 
L 603 0 
L 603 3500 
z
M 603 4863 
L 1178 4863 
L 1178 4134 
L 603 4134 
L 603 4863 
z
" transform="scale(0.015625)"/>
       <path id="DejaVuSans-74" d="M 1172 4494 
L 1172 3500 
L 2356 3500 
L 2356 3053 
L 1172 3053 
L 1172 1153 
Q 1172 725 1289 603 
Q 1406 481 1766 481 
L 2356 481 
L 2356 0 
L 1766 0 
Q 1100 0 847 248 
Q 594 497 594 1153 
L 594 3053 
L 172 3053 
L 172 3500 
L 594 3500 
L 594 4494 
L 1172 4494 
z
" transform="scale(0.015625)"/>
       <path id="DejaVuSans-73" d="M 2834 3397 
L 2834 2853 
Q 2591 2978 2328 3040 
Q 2066 3103 1784 3103 
Q 1356 3103 1142 2972 
Q 928 2841 928 2578 
Q 928 2378 1081 2264 
Q 1234 2150 1697 2047 
L 1894 2003 
Q 2506 1872 2764 1633 
Q 3022 1394 3022 966 
Q 3022 478 2636 193 
Q 2250 -91 1575 -91 
Q 1294 -91 989 -36 
Q 684 19 347 128 
L 347 722 
Q 666 556 975 473 
Q 1284 391 1588 391 
Q 1994 391 2212 530 
Q 2431 669 2431 922 
Q 2431 1156 2273 1281 
Q 2116 1406 1581 1522 
L 1381 1569 
Q 847 1681 609 1914 
Q 372 2147 372 2553 
Q 372 3047 722 3315 
Q 1072 3584 1716 3584 
Q 2034 3584 2315 3537 
Q 2597 3491 2834 3397 
z
" transform="scale(0.015625)"/>
      </defs>
      <use xlink:href="#DejaVuSans-4e"/>
      <use xlink:href="#DejaVuSans-75" transform="translate(74.804688 0)"/>
      <use xlink:href="#DejaVuSans-6d" transform="translate(138.183594 0)"/>
      <use xlink:href="#DejaVuSans-62" transform="translate(235.595703 0)"/>
      <use xlink:href="#DejaVuSans-65" transform="translate(299.072266 0)"/>
      <use xlink:href="#DejaVuSans-72" transform="translate(360.595703 0)"/>
      <use xlink:href="#DejaVuSans-20" transform="translate(401.708984 0)"/>
      <use xlink:href="#DejaVuSans-6f" transform="translate(433.496094 0)"/>
      <use xlink:href="#DejaVuSans-66" transform="translate(494.677734 0)"/>
      <use xlink:href="#DejaVuSans-20" transform="translate(529.882812 0)"/>
      <use xlink:href="#DejaVuSans-56" transform="translate(561.669922 0)"/>
      <use xlink:href="#DejaVuSans-61" transform="translate(622.328125 0)"/>
      <use xlink:href="#DejaVuSans-72" transform="translate(683.607422 0)"/>
      <use xlink:href="#DejaVuSans-69" transform="translate(724.720703 0)"/>
      <use xlink:href="#DejaVuSans-61" transform="translate(752.503906 0)"/>
      <use xlink:href="#DejaVuSans-6e" transform="translate(813.783203 0)"/>
      <use xlink:href="#DejaVuSans-74" transform="translate(877.162109 0)"/>
      <use xlink:href="#DejaVuSans-73" transform="translate(916.371094 0)"/>
     </g>
    </g>
   </g>
   <g id="patch_3">
    <path d="M 77.565494 376.20525 
L 140.915477 376.20525 
L 140.915477 369.521774 
L 77.565494 369.521774 
z
" clip-path="url(#pa5b3ad4a22)" style="fill: #e63946; stroke: #ffffff; stroke-linejoin: miter"/>
   </g>
   <g id="patch_4">
    <path d="M 168.06547 376.20525 
L 231.415453 376.20525 
L 231.415453 367.293949 
L 168.06547 367.293949 
z
" clip-path="url(#pa5b3ad4a22)" style="fill: #e63946; stroke: #ffffff; stroke-linejoin: miter"/>
   </g>
   <g id="patch_5">
    <path d="M 258.565446 376.20525 
L 321.915429 376.20525 
L 321.915429 371.7496 
L 258.565446 371.7496 
z
" clip-path="url(#pa5b3ad4a22)" style="fill: #e63946; stroke: #ffffff; stroke-linejoin: miter"/>
   </g>
   <g id="patch_6">
    <path d="M 349.065422 376.20525 
L 412.415405 376.20525 
L 412.415405 352.813085 
L 349.065422 352.813085 
z
" clip-path="url(#pa5b3ad4a22)" style="fill: #e63946; stroke: #ffffff; stroke-linejoin: miter"/>
   </g>
   <g id="patch_7">
    <path d="M 439.565398 376.20525 
L 502.915381 376.20525 
L 502.915381 373.977425 
L 439.565398 373.977425 
z
" clip-path="url(#pa5b3ad4a22)" style="fill: #e63946; stroke: #ffffff; stroke-linejoin: miter"/>
   </g>
   <g id="patch_8">
    <path d="M 77.565494 369.521774 
L 140.915477 369.521774 
L 140.915477 333.876571 
L 77.565494 333.876571 
z
" clip-path="url(#pa5b3ad4a22)" style="fill: #f4a261; stroke: #ffffff; stroke-linejoin: miter"/>
   </g>
   <g id="patch_9">
    <path d="M 168.06547 367.293949 
L 231.415453 367.293949 
L 231.415453 312.712231 
L 168.06547 312.712231 
z
" clip-path="url(#pa5b3ad4a22)" style="fill: #f4a261; stroke: #ffffff; stroke-linejoin: miter"/>
   </g>
   <g id="patch_10">
    <path d="M 258.565446 371.7496 
L 321.915429 371.7496 
L 321.915429 338.332221 
L 258.565446 338.332221 
z
" clip-path="url(#pa5b3ad4a22)" style="fill: #f4a261; stroke: #ffffff; stroke-linejoin: miter"/>
   </g>
   <g id="patch_11">
    <path d="M 349.065422 352.813085 
L 412.415405 352.813085 
L 412.415405 300.459192 
L 349.065422 300.459192 
z
" clip-path="url(#pa5b3ad4a22)" style="fill: #f4a261; stroke: #ffffff; stroke-linejoin: miter"/>
   </g>
   <g id="patch_12">
    <path d="M 439.565398 373.977425 
L 502.915381 373.977425 
L 502.915381 346.129609 
L 439.565398 346.129609 
z
" clip-path="url(#pa5b3ad4a22)" style="fill: #f4a261; stroke: #ffffff; stroke-linejoin: miter"/>
   </g>
   <g id="patch_13">
    <path d="M 77.565494 333.876571 
L 140.915477 333.876571 
L 140.915477 298.231367 
L 77.565494 298.231367 
z
" clip-path="url(#pa5b3ad4a22)" style="fill: #457b9d; stroke: #ffffff; stroke-linejoin: miter"/>
   </g>
   <g id="patch_14">
    <path d="M 168.06547 312.712231 
L 231.415453 312.712231 
L 231.415453 263.700076 
L 168.06547 263.700076 
z
" clip-path="url(#pa5b3ad4a22)" style="fill: #457b9d; stroke: #ffffff; stroke-linejoin: miter"/>
   </g>
   <g id="patch_15">
    <path d="M 258.565446 338.332221 
L 321.915429 338.332221 
L 321.915429 287.092241 
L 258.565446 287.092241 
z
" clip-path="url(#pa5b3ad4a22)" style="fill: #457b9d; stroke: #ffffff; stroke-linejoin: miter"/>
   </g>
   <g id="patch_16">
    <path d="M 349.065422 300.459192 
L 412.415405 300.459192 
L 412.415405 252.56095 
L 349.065422 252.56095 
z
" clip-path="url(#pa5b3ad4a22)" style="fill: #457b9d; stroke: #ffffff; stroke-linejoin: miter"/>
   </g>
   <g id="patch_17">
    <path d="M 439.565398 346.129609 
L 502.915381 346.129609 
L 502.915381 298.231367 
L 439.565398 298.231367 
z
" clip-path="url(#pa5b3ad4a22)" style="fill: #457b9d; stroke: #ffffff; stroke-linejoin: miter"/>
   </g>
   <g id="patch_18">
    <path d="M 77.565494 298.231367 
L 140.915477 298.231367 
L 140.915477 199.093144 
L 77.565494 199.093144 
z
" clip-path="url(#pa5b3ad4a22)" style="fill: #2a9d8f; stroke: #ffffff; stroke-linejoin: miter"/>
   </g>
   <g id="patch_19">
    <path d="M 168.06547 263.700076 
L 231.415453 263.700076 
L 231.415453 175.700979 
L 168.06547 175.700979 
z
" clip-path="url(#pa5b3ad4a22)" style="fill: #2a9d8f; stroke: #ffffff; stroke-linejoin: miter"/>
   </g>
   <g id="patch_20">
    <path d="M 258.565446 287.092241 
L 321.915429 287.092241 
L 321.915429 216.915746 
L 258.565446 216.915746 
z
" clip-path="url(#pa5b3ad4a22)" style="fill: #2a9d8f; stroke: #ffffff; stroke-linejoin: miter"/>
   </g>
   <g id="patch_21">
    <path d="M 349.065422 252.56095 
L 412.415405 252.56095 
L 412.415405 144.511426 
L 349.065422 144.511426 
z
" clip-path="url(#pa5b3ad4a22)" style="fill: #2a9d8f; stroke: #ffffff; stroke-linejoin: miter"/>
   </g>
   <g id="patch_22">
    <path d="M 439.565398 298.231367 
L 502.915381 298.231367 
L 502.915381 229.168785 
L 439.565398 229.168785 
z
" clip-path="url(#pa5b3ad4a22)" style="fill: #2a9d8f; stroke: #ffffff; stroke-linejoin: miter"/>
   </g>
   <g id="patch_23">
    <path d="M 77.565494 199.093144 
L 140.915477 199.093144 
L 140.915477 155.650552 
L 77.565494 155.650552 
z
" clip-path="url(#pa5b3ad4a22)" style="fill: #8338ec; stroke: #ffffff; stroke-linejoin: miter"/>
   </g>
   <g id="patch_24">
    <path d="M 168.06547 175.700979 
L 231.415453 175.700979 
L 231.415453 74.334931 
L 168.06547 74.334931 
z
" clip-path="url(#pa5b3ad4a22)" style="fill: #8338ec; stroke: #ffffff; stroke-linejoin: miter"/>
   </g>
   <g id="patch_25">
    <path d="M 258.565446 216.915746 
L 321.915429 216.915746 
L 321.915429 92.157533 
L 258.565446 92.157533 
z
" clip-path="url(#pa5b3ad4a22)" style="fill: #8338ec; stroke: #ffffff; stroke-linejoin: miter"/>
   </g>
   <g id="patch_26">
    <path d="M 349.065422 144.511426 
L 412.415405 144.511426 
L 412.415405 102.182746 
L 349.065422 102.182746 
z
" clip-path="url(#pa5b3ad4a22)" style="fill: #8338ec; stroke: #ffffff; stroke-linejoin: miter"/>
   </g>
   <g id="patch_27">
    <path d="M 439.565398 229.168785 
L 502.915381 229.168785 
L 502.915381 116.66361 
L 439.565398 116.66361 
z
" clip-path="url(#pa5b3ad4a22)" style="fill: #8338ec; stroke: #ffffff; stroke-linejoin: miter"/>
   </g>
   <g id="patch_28">
    <path d="M 77.565494 155.650552 
L 140.915477 155.650552 
L 140.915477 54.284504 
L 77.565494 54.284504 
z
" clip-path="url(#pa5b3ad4a22)" style="fill: #adb5bd; stroke: #ffffff; stroke-linejoin: miter"/>
   </g>
   <g id="patch_29">
    <path d="M 168.06547 74.334931 
L 231.415453 74.334931 
L 231.415453 52.056679 
L 168.06547 52.056679 
z
" clip-path="url(#pa5b3ad4a22)" style="fill: #adb5bd; stroke: #ffffff; stroke-linejoin: miter"/>
   </g>
   <g id="patch_30">
    <path d="M 258.565446 92.157533 
L 321.915429 92.157533 
L 321.915429 52.056679 
L 258.565446 52.056679 
z
" clip-path="url(#pa5b3ad4a22)" style="fill: #adb5bd; stroke: #ffffff; stroke-linejoin: miter"/>
   </g>
   <g id="patch_31">
    <path d="M 349.065422 102.182746 
L 412.415405 102.182746 
L 412.415405 81.018407 
L 349.065422 81.018407 
z
" clip-path="url(#pa5b3ad4a22)" style="fill: #adb5bd; stroke: #ffffff; stroke-linejoin: miter"/>
   </g>
   <g id="patch_32">
    <path d="M 439.565398 116.66361 
L 502.915381 116.66361 
L 502.915381 82.132319 
L 439.565398 82.132319 
z
" clip-path="url(#pa5b3ad4a22)" style="fill: #adb5bd; stroke: #ffffff; stroke-linejoin: miter"/>
   </g>
   <g id="patch_33">
    <path d="M 54.9405 376.20525 
L 54.9405 35.84925 
" style="fill: none; stroke: #262626; stroke-width: 1.25; stroke-linejoin: miter; stroke-linecap: square"/>
   </g>
   <g id="patch_34">
    <path d="M 525.540375 376.20525 
L 525.540375 35.84925 
" style="fill: none; stroke: #262626; stroke-width: 1.25; stroke-linejoin: miter; stroke-linecap: square"/>
   </g>
   <g id="patch_35">
    <path d="M 54.9405 376.20525 
L 525.540375 376.20525 
" style="fill: none; stroke: #262626; stroke-width: 1.25; stroke-linejoin: miter; stroke-linecap: square"/>
   </g>
   <g id="patch_36">
    <path d="M 54.9405 35.84925 
L 525.540375 35.84925 
" style="fill: none; stroke: #262626; stroke-width: 1.25; stroke-linejoin: miter; stroke-linecap: square"/>
   </g>
   <g id="text_15">
    <!-- Variant Distribution by -->
    <g style="fill: #262626" transform="translate(212.9145 16.318125) scale(0.12 -0.12)">
     <defs>
      <path id="DejaVuSans-Bold-56" d="M 31 4666 
L 1241 4666 
L 2478 1222 
L 3713 4666 
L 4922 4666 
L 3194 0 
L 1759 0 
L 31 4666 
z
" transform="scale(0.015625)"/>
      <path id="DejaVuSans-Bold-61" d="M 2106 1575 
Q 1756 1575 1579 1456 
Q 1403 1338 1403 1106 
Q 1403 894 1545 773 
Q 1688 653 1941 653 
Q 2256 653 2472 879 
Q 2688 1106 2688 1447 
L 2688 1575 
L 2106 1575 
z
M 3816 1997 
L 3816 0 
L 2688 0 
L 2688 519 
Q 2463 200 2181 54 
Q 1900 -91 1497 -91 
Q 953 -91 614 226 
Q 275 544 275 1050 
Q 275 1666 698 1953 
Q 1122 2241 2028 2241 
L 2688 2241 
L 2688 2328 
Q 2688 2594 2478 2717 
Q 2269 2841 1825 2841 
Q 1466 2841 1156 2769 
Q 847 2697 581 2553 
L 581 3406 
Q 941 3494 1303 3539 
Q 1666 3584 2028 3584 
Q 2975 3584 3395 3211 
Q 3816 2838 3816 1997 
z
" transform="scale(0.015625)"/>
      <path id="DejaVuSans-Bold-72" d="M 3138 2547 
Q 2991 2616 2845 2648 
Q 2700 2681 2553 2681 
Q 2122 2681 1889 2404 
Q 1656 2128 1656 1613 
L 1656 0 
L 538 0 
L 538 3500 
L 1656 3500 
L 1656 2925 
Q 1872 3269 2151 3426 
Q 2431 3584 2822 3584 
Q 2878 3584 2943 3579 
Q 3009 3575 3134 3559 
L 3138 2547 
z
" transform="scale(0.015625)"/>
      <path id="DejaVuSans-Bold-69" d="M 538 3500 
L 1656 3500 
L 1656 0 
L 538 0 
L 538 3500 
z
M 538 4863 
L 1656 4863 
L 1656 3950 
L 538 3950 
L 538 4863 
z
" transform="scale(0.015625)"/>
      <path id="DejaVuSans-Bold-6e" d="M 4056 2131 
L 4056 0 
L 2931 0 
L 2931 347 
L 2931 1631 
Q 2931 2084 2911 2256 
Q 2891 2428 2841 2509 
Q 2775 2619 2662 2680 
Q 2550 2741 2406 2741 
Q 2056 2741 1856 2470 
Q 1656 2200 1656 1722 
L 1656 0 
L 538 0 
L 538 3500 
L 1656 3500 
L 1656 2988 
Q 1909 3294 2193 3439 
Q 2478 3584 2822 3584 
Q 3428 3584 3742 3212 
Q 4056 2841 4056 2131 
z
" transform="scale(0.015625)"/>
      <path id="DejaVuSans-Bold-74" d="M 1759 4494 
L 1759 3500 
L 2913 3500 
L 2913 2700 
L 1759 2700 
L 1759 1216 
Q 1759 972 1856 886 
Q 1953 800 2241 800 
L 2816 800 
L 2816 0 
L 1856 0 
Q 1194 0 917 276 
Q 641 553 641 1216 
L 641 2700 
L 84 2700 
L 84 3500 
L 641 3500 
L 641 4494 
L 1759 4494 
z
" transform="scale(0.015625)"/>
      <path id="DejaVuSans-Bold-20" transform="scale(0.015625)"/>
      <path id="DejaVuSans-Bold-44" d="M 1791 3756 
L 1791 909 
L 2222 909 
Q 2959 909 3348 1275 
Q 3738 1641 3738 2338 
Q 3738 3031 3350 3393 
Q 2963 3756 2222 3756 
L 1791 3756 
z
M 588 4666 
L 1856 4666 
Q 2919 4666 3439 4514 
Q 3959 4363 4331 4000 
Q 4659 3684 4818 3271 
Q 4978 2859 4978 2338 
Q 4978 1809 4818 1395 
Q 4659 981 4331 666 
Q 3956 303 3431 151 
Q 2906 0 1856 0 
L 588 0 
L 588 4666 
z
" transform="scale(0.015625)"/>
      <path id="DejaVuSans-Bold-73" d="M 3272 3391 
L 3272 2541 
Q 2913 2691 2578 2766 
Q 2244 2841 1947 2841 
Q 1628 2841 1473 2761 
Q 1319 2681 1319 2516 
Q 1319 2381 1436 2309 
Q 1553 2238 1856 2203 
L 2053 2175 
Q 2913 2066 3209 1816 
Q 3506 1566 3506 1031 
Q 3506 472 3093 190 
Q 2681 -91 1863 -91 
Q 1516 -91 1145 -36 
Q 775 19 384 128 
L 384 978 
Q 719 816 1070 734 
Q 1422 653 1784 653 
Q 2113 653 2278 743 
Q 2444 834 2444 1013 
Q 2444 1163 2330 1236 
Q 2216 1309 1875 1350 
L 1678 1375 
Q 931 1469 631 1722 
Q 331 1975 331 2491 
Q 331 3047 712 3315 
Q 1094 3584 1881 3584 
Q 2191 3584 2531 3537 
Q 2872 3491 3272 3391 
z
" transform="scale(0.015625)"/>
      <path id="DejaVuSans-Bold-62" d="M 2400 722 
Q 2759 722 2948 984 
Q 3138 1247 3138 1747 
Q 3138 2247 2948 2509 
Q 2759 2772 2400 2772 
Q 2041 2772 1848 2508 
Q 1656 2244 1656 1747 
Q 1656 1250 1848 986 
Q 2041 722 2400 722 
z
M 1656 2988 
Q 1888 3294 2169 3439 
Q 2450 3584 2816 3584 
Q 3463 3584 3878 3070 
Q 4294 2556 4294 1747 
Q 4294 938 3878 423 
Q 3463 -91 2816 -91 
Q 2450 -91 2169 54 
Q 1888 200 1656 506 
L 1656 0 
L 538 0 
L 538 4863 
L 1656 4863 
L 1656 2988 
z
" transform="scale(0.015625)"/>
      <path id="DejaVuSans-Bold-75" d="M 500 1363 
L 500 3500 
L 1625 3500 
L 1625 3150 
Q 1625 2866 1622 2436 
Q 1619 2006 1619 1863 
Q 1619 1441 1641 1255 
Q 1663 1069 1716 984 
Q 1784 875 1895 815 
Q 2006 756 2150 756 
Q 2500 756 2700 1025 
Q 2900 1294 2900 1772 
L 2900 3500 
L 4019 3500 
L 4019 0 
L 2900 0 
L 2900 506 
Q 2647 200 2364 54 
Q 2081 -91 1741 -91 
Q 1134 -91 817 281 
Q 500 653 500 1363 
z
" transform="scale(0.015625)"/>
      <path id="DejaVuSans-Bold-6f" d="M 2203 2784 
Q 1831 2784 1636 2517 
Q 1441 2250 1441 1747 
Q 1441 1244 1636 976 
Q 1831 709 2203 709 
Q 2569 709 2762 976 
Q 2956 1244 2956 1747 
Q 2956 2250 2762 2517 
Q 2569 2784 2203 2784 
z
M 2203 3584 
Q 3106 3584 3614 3096 
Q 4122 2609 4122 1747 
Q 4122 884 3614 396 
Q 3106 -91 2203 -91 
Q 1297 -91 786 396 
Q 275 884 275 1747 
Q 275 2609 786 3096 
Q 1297 3584 2203 3584 
z
" transform="scale(0.015625)"/>
      <path id="DejaVuSans-Bold-79" d="M 78 3500 
L 1197 3500 
L 2138 1125 
L 2938 3500 
L 4056 3500 
L 2584 -331 
Q 2363 -916 2067 -1148 
Q 1772 -1381 1288 -1381 
L 641 -1381 
L 641 -647 
L 991 -647 
Q 1275 -647 1404 -556 
Q 1534 -466 1606 -231 
L 1638 -134 
L 78 3500 
z
" transform="scale(0.015625)"/>
     </defs>
     <use xlink:href="#DejaVuSans-Bold-56"/>
     <use xlink:href="#DejaVuSans-Bold-61" transform="translate(71.892578 0)"/>
     <use xlink:href="#DejaVuSans-Bold-72" transform="translate(139.373047 0)"/>
     <use xlink:href="#DejaVuSans-Bold-69" transform="translate(188.689453 0)"/>
     <use xlink:href="#DejaVuSans-Bold-61" transform="translate(222.966797 0)"/>
     <use xlink:href="#DejaVuSans-Bold-6e" transform="translate(290.447266 0)"/>
     <use xlink:href="#DejaVuSans-Bold-74" transform="translate(361.638672 0)"/>
     <use xlink:href="#DejaVuSans-Bold-20" transform="translate(409.441406 0)"/>
     <use xlink:href="#DejaVuSans-Bold-44" transform="translate(444.255859 0)"/>
     <use xlink:href="#DejaVuSans-Bold-69" transform="translate(527.263672 0)"/>
     <use xlink:href="#DejaVuSans-Bold-73" transform="translate(561.541016 0)"/>
     <use xlink:href="#DejaVuSans-Bold-74" transform="translate(621.0625 0)"/>
     <use xlink:href="#DejaVuSans-Bold-72" transform="translate(668.865234 0)"/>
     <use xlink:href="#DejaVuSans-Bold-69" transform="translate(718.181641 0)"/>
     <use xlink:href="#DejaVuSans-Bold-62" transform="translate(752.458984 0)"/>
     <use xlink:href="#DejaVuSans-Bold-75" transform="translate(824.041016 0)"/>
     <use xlink:href="#DejaVuSans-Bold-74" transform="translate(895.232422 0)"/>
     <use xlink:href="#DejaVuSans-Bold-69" transform="translate(943.035156 0)"/>
     <use xlink:href="#DejaVuSans-Bold-6f" transform="translate(977.3125 0)"/>
     <use xlink:href="#DejaVuSans-Bold-6e" transform="translate(1046.013672 0)"/>
     <use xlink:href="#DejaVuSans-Bold-20" transform="translate(1117.205078 0)"/>
     <use xlink:href="#DejaVuSans-Bold-62" transform="translate(1152.019531 0)"/>
     <use xlink:href="#DejaVuSans-Bold-79" transform="translate(1223.601562 0)"/>
    </g>
    <!-- Functional Region per Gene -->
    <g style="fill: #262626" transform="translate(196.558875 29.84925) scale(0.12 -0.12)">
     <defs>
      <path id="DejaVuSans-Bold-46" d="M 588 4666 
L 3834 4666 
L 3834 3756 
L 1791 3756 
L 1791 2888 
L 3713 2888 
L 3713 1978 
L 1791 1978 
L 1791 0 
L 588 0 
L 588 4666 
z
" transform="scale(0.015625)"/>
      <path id="DejaVuSans-Bold-63" d="M 3366 3391 
L 3366 2478 
Q 3138 2634 2908 2709 
Q 2678 2784 2431 2784 
Q 1963 2784 1702 2511 
Q 1441 2238 1441 1747 
Q 1441 1256 1702 982 
Q 1963 709 2431 709 
Q 2694 709 2930 787 
Q 3166 866 3366 1019 
L 3366 103 
Q 3103 6 2833 -42 
Q 2563 -91 2291 -91 
Q 1344 -91 809 395 
Q 275 881 275 1747 
Q 275 2613 809 3098 
Q 1344 3584 2291 3584 
Q 2566 3584 2833 3536 
Q 3100 3488 3366 3391 
z
" transform="scale(0.015625)"/>
      <path id="DejaVuSans-Bold-6c" d="M 538 4863 
L 1656 4863 
L 1656 0 
L 538 0 
L 538 4863 
z
" transform="scale(0.015625)"/>
      <path id="DejaVuSans-Bold-52" d="M 2297 2597 
Q 2675 2597 2839 2737 
Q 3003 2878 3003 3200 
Q 3003 3519 2839 3656 
Q 2675 3794 2297 3794 
L 1791 3794 
L 1791 2597 
L 2297 2597 
z
M 1791 1766 
L 1791 0 
L 588 0 
L 588 4666 
L 2425 4666 
Q 3347 4666 3776 4356 
Q 4206 4047 4206 3378 
Q 4206 2916 3982 2619 
Q 3759 2322 3309 2181 
Q 3556 2125 3751 1926 
Q 3947 1728 4147 1325 
L 4800 0 
L 3519 0 
L 2950 1159 
Q 2778 1509 2601 1637 
Q 2425 1766 2131 1766 
L 1791 1766 
z
" transform="scale(0.015625)"/>
      <path id="DejaVuSans-Bold-65" d="M 4031 1759 
L 4031 1441 
L 1416 1441 
Q 1456 1047 1700 850 
Q 1944 653 2381 653 
Q 2734 653 3104 758 
Q 3475 863 3866 1075 
L 3866 213 
Q 3469 63 3072 -14 
Q 2675 -91 2278 -91 
Q 1328 -91 801 392 
Q 275 875 275 1747 
Q 275 2603 792 3093 
Q 1309 3584 2216 3584 
Q 3041 3584 3536 3087 
Q 4031 2591 4031 1759 
z
M 2881 2131 
Q 2881 2450 2695 2645 
Q 2509 2841 2209 2841 
Q 1884 2841 1681 2658 
Q 1478 2475 1428 2131 
L 2881 2131 
z
" transform="scale(0.015625)"/>
      <path id="DejaVuSans-Bold-67" d="M 2919 594 
Q 2688 288 2409 144 
Q 2131 0 1766 0 
Q 1125 0 706 504 
Q 288 1009 288 1791 
Q 288 2575 706 3076 
Q 1125 3578 1766 3578 
Q 2131 3578 2409 3434 
Q 2688 3291 2919 2981 
L 2919 3500 
L 4044 3500 
L 4044 353 
Q 4044 -491 3511 -936 
Q 2978 -1381 1966 -1381 
Q 1638 -1381 1331 -1331 
Q 1025 -1281 716 -1178 
L 716 -306 
Q 1009 -475 1290 -558 
Q 1572 -641 1856 -641 
Q 2406 -641 2662 -400 
Q 2919 -159 2919 353 
L 2919 594 
z
M 2181 2772 
Q 1834 2772 1640 2515 
Q 1447 2259 1447 1791 
Q 1447 1309 1634 1061 
Q 1822 813 2181 813 
Q 2531 813 2725 1069 
Q 2919 1325 2919 1791 
Q 2919 2259 2725 2515 
Q 2531 2772 2181 2772 
z
" transform="scale(0.015625)"/>
      <path id="DejaVuSans-Bold-70" d="M 1656 506 
L 1656 -1331 
L 538 -1331 
L 538 3500 
L 1656 3500 
L 1656 2988 
Q 1888 3294 2169 3439 
Q 2450 3584 2816 3584 
Q 3463 3584 3878 3070 
Q 4294 2556 4294 1747 
Q 4294 938 3878 423 
Q 3463 -91 2816 -91 
Q 2450 -91 2169 54 
Q 1888 200 1656 506 
z
M 2400 2772 
Q 2041 2772 1848 2508 
Q 1656 2244 1656 1747 
Q 1656 1250 1848 986 
Q 2041 722 2400 722 
Q 2759 722 2948 984 
Q 3138 1247 3138 1747 
Q 3138 2247 2948 2509 
Q 2759 2772 2400 2772 
z
" transform="scale(0.015625)"/>
      <path id="DejaVuSans-Bold-47" d="M 4781 347 
Q 4331 128 3847 18 
Q 3363 -91 2847 -91 
Q 1681 -91 1000 561 
Q 319 1213 319 2328 
Q 319 3456 1012 4103 
Q 1706 4750 2913 4750 
Q 3378 4750 3804 4662 
Q 4231 4575 4609 4403 
L 4609 3438 
Q 4219 3659 3833 3768 
Q 3447 3878 3059 3878 
Q 2341 3878 1952 3476 
Q 1563 3075 1563 2328 
Q 1563 1588 1938 1184 
Q 2313 781 3003 781 
Q 3191 781 3352 804 
Q 3513 828 3641 878 
L 3641 1784 
L 2906 1784 
L 2906 2591 
L 4781 2591 
L 4781 347 
z
" transform="scale(0.015625)"/>
     </defs>
     <use xlink:href="#DejaVuSans-Bold-46"/>
     <use xlink:href="#DejaVuSans-Bold-75" transform="translate(63.310547 0)"/>
     <use xlink:href="#DejaVuSans-Bold-6e" transform="translate(134.501953 0)"/>
     <use xlink:href="#DejaVuSans-Bold-63" transform="translate(205.693359 0)"/>
     <use xlink:href="#DejaVuSans-Bold-74" transform="translate(264.970703 0)"/>
     <use xlink:href="#DejaVuSans-Bold-69" transform="translate(312.773438 0)"/>
     <use xlink:href="#DejaVuSans-Bold-6f" transform="translate(347.050781 0)"/>
     <use xlink:href="#DejaVuSans-Bold-6e" transform="translate(415.751953 0)"/>
     <use xlink:href="#DejaVuSans-Bold-61" transform="translate(486.943359 0)"/>
     <use xlink:href="#DejaVuSans-Bold-6c" transform="translate(554.423828 0)"/>
     <use xlink:href="#DejaVuSans-Bold-20" transform="translate(588.701172 0)"/>
     <use xlink:href="#DejaVuSans-Bold-52" transform="translate(623.515625 0)"/>
     <use xlink:href="#DejaVuSans-Bold-65" transform="translate(700.517578 0)"/>
     <use xlink:href="#DejaVuSans-Bold-67" transform="translate(768.339844 0)"/>
     <use xlink:href="#DejaVuSans-Bold-69" transform="translate(839.921875 0)"/>
     <use xlink:href="#DejaVuSans-Bold-6f" transform="translate(874.199219 0)"/>
     <use xlink:href="#DejaVuSans-Bold-6e" transform="translate(942.900391 0)"/>
     <use xlink:href="#DejaVuSans-Bold-20" transform="translate(1014.091797 0)"/>
     <use xlink:href="#DejaVuSans-Bold-70" transform="translate(1048.90625 0)"/>
     <use xlink:href="#DejaVuSans-Bold-65" transform="translate(1120.488281 0)"/>
     <use xlink:href="#DejaVuSans-Bold-72" transform="translate(1188.310547 0)"/>
     <use xlink:href="#DejaVuSans-Bold-20" transform="translate(1237.626953 0)"/>
     <use xlink:href="#DejaVuSans-Bold-47" transform="translate(1272.441406 0)"/>
     <use xlink:href="#DejaVuSans-Bold-65" transform="translate(1354.521484 0)"/>
     <use xlink:href="#DejaVuSans-Bold-6e" transform="translate(1422.34375 0)"/>
     <use xlink:href="#DejaVuSans-Bold-65" transform="translate(1493.535156 0)"/>
    </g>
   </g>
   <g id="legend_1">
    <g id="patch_37">
     <path d="M 396.249125 112.70425 
L 519.940375 112.70425 
Q 521.540375 112.70425 521.540375 111.10425 
L 521.540375 41.44925 
Q 521.540375 39.84925 519.940375 39.84925 
L 396.249125 39.84925 
Q 394.649125 39.84925 394.649125 41.44925 
L 394.649125 111.10425 
Q 394.649125 112.70425 396.249125 112.70425 
z
" style="fill: #ffffff; opacity: 0.8; stroke: #cccccc; stroke-linejoin: miter"/>
    </g>
    <g id="patch_38">
     <path d="M 397.849125 49.128 
L 413.849125 49.128 
L 413.849125 43.528 
L 397.849125 43.528 
z
" style="fill: #e63946; stroke: #ffffff; stroke-linejoin: miter"/>
    </g>
    <g id="text_16">
     <!-- Pore/Selectivity Filter -->
     <g style="fill: #262626" transform="translate(420.249125 49.128) scale(0.08 -0.08)">
      <defs>
       <path id="DejaVuSans-50" d="M 1259 4147 
L 1259 2394 
L 2053 2394 
Q 2494 2394 2734 2622 
Q 2975 2850 2975 3272 
Q 2975 3691 2734 3919 
Q 2494 4147 2053 4147 
L 1259 4147 
z
M 628 4666 
L 2053 4666 
Q 2838 4666 3239 4311 
Q 3641 3956 3641 3272 
Q 3641 2581 3239 2228 
Q 2838 1875 2053 1875 
L 1259 1875 
L 1259 0 
L 628 0 
L 628 4666 
z
" transform="scale(0.015625)"/>
       <path id="DejaVuSans-2f" d="M 1625 4666 
L 2156 4666 
L 531 -594 
L 0 -594 
L 1625 4666 
z
" transform="scale(0.015625)"/>
       <path id="DejaVuSans-53" d="M 3425 4513 
L 3425 3897 
Q 3066 4069 2747 4153 
Q 2428 4238 2131 4238 
Q 1616 4238 1336 4038 
Q 1056 3838 1056 3469 
Q 1056 3159 1242 3001 
Q 1428 2844 1947 2747 
L 2328 2669 
Q 3034 2534 3370 2195 
Q 3706 1856 3706 1288 
Q 3706 609 3251 259 
Q 2797 -91 1919 -91 
Q 1588 -91 1214 -16 
Q 841 59 441 206 
L 441 856 
Q 825 641 1194 531 
Q 1563 422 1919 422 
Q 2459 422 2753 634 
Q 3047 847 3047 1241 
Q 3047 1584 2836 1778 
Q 2625 1972 2144 2069 
L 1759 2144 
Q 1053 2284 737 2584 
Q 422 2884 422 3419 
Q 422 4038 858 4394 
Q 1294 4750 2059 4750 
Q 2388 4750 2728 4690 
Q 3069 4631 3425 4513 
z
" transform="scale(0.015625)"/>
       <path id="DejaVuSans-6c" d="M 603 4863 
L 1178 4863 
L 1178 0 
L 603 0 
L 603 4863 
z
" transform="scale(0.015625)"/>
       <path id="DejaVuSans-63" d="M 3122 3366 
L 3122 2828 
Q 2878 2963 2633 3030 
Q 2388 3097 2138 3097 
Q 1578 3097 1268 2742 
Q 959 2388 959 1747 
Q 959 1106 1268 751 
Q 1578 397 2138 397 
Q 2388 397 2633 464 
Q 2878 531 3122 666 
L 3122 134 
Q 2881 22 2623 -34 
Q 2366 -91 2075 -91 
Q 1284 -91 818 406 
Q 353 903 353 1747 
Q 353 2603 823 3093 
Q 1294 3584 2113 3584 
Q 2378 3584 2631 3529 
Q 2884 3475 3122 3366 
z
" transform="scale(0.015625)"/>
       <path id="DejaVuSans-76" d="M 191 3500 
L 800 3500 
L 1894 563 
L 2988 3500 
L 3597 3500 
L 2284 0 
L 1503 0 
L 191 3500 
z
" transform="scale(0.015625)"/>
       <path id="DejaVuSans-79" d="M 2059 -325 
Q 1816 -950 1584 -1140 
Q 1353 -1331 966 -1331 
L 506 -1331 
L 506 -850 
L 844 -850 
Q 1081 -850 1212 -737 
Q 1344 -625 1503 -206 
L 1606 56 
L 191 3500 
L 800 3500 
L 1894 763 
L 2988 3500 
L 3597 3500 
L 2059 -325 
z
" transform="scale(0.015625)"/>
       <path id="DejaVuSans-46" d="M 628 4666 
L 3309 4666 
L 3309 4134 
L 1259 4134 
L 1259 2759 
L 3109 2759 
L 3109 2228 
L 1259 2228 
L 1259 0 
L 628 0 
L 628 4666 
z
" transform="scale(0.015625)"/>
      </defs>
      <use xlink:href="#DejaVuSans-50"/>
      <use xlink:href="#DejaVuSans-6f" transform="translate(56.677734 0)"/>
      <use xlink:href="#DejaVuSans-72" transform="translate(117.859375 0)"/>
      <use xlink:href="#DejaVuSans-65" transform="translate(156.722656 0)"/>
      <use xlink:href="#DejaVuSans-2f" transform="translate(218.246094 0)"/>
      <use xlink:href="#DejaVuSans-53" transform="translate(251.9375 0)"/>
      <use xlink:href="#DejaVuSans-65" transform="translate(315.414062 0)"/>
      <use xlink:href="#DejaVuSans-6c" transform="translate(376.9375 0)"/>
      <use xlink:href="#DejaVuSans-65" transform="translate(404.720703 0)"/>
      <use xlink:href="#DejaVuSans-63" transform="translate(466.244141 0)"/>
      <use xlink:href="#DejaVuSans-74" transform="translate(521.224609 0)"/>
      <use xlink:href="#DejaVuSans-69" transform="translate(560.433594 0)"/>
      <use xlink:href="#DejaVuSans-76" transform="translate(588.216797 0)"/>
      <use xlink:href="#DejaVuSans-69" transform="translate(647.396484 0)"/>
      <use xlink:href="#DejaVuSans-74" transform="translate(675.179688 0)"/>
      <use xlink:href="#DejaVuSans-79" transform="translate(714.388672 0)"/>
      <use xlink:href="#DejaVuSans-20" transform="translate(773.568359 0)"/>
      <use xlink:href="#DejaVuSans-46" transform="translate(805.355469 0)"/>
      <use xlink:href="#DejaVuSans-69" transform="translate(855.625 0)"/>
      <use xlink:href="#DejaVuSans-6c" transform="translate(883.408203 0)"/>
      <use xlink:href="#DejaVuSans-74" transform="translate(911.191406 0)"/>
      <use xlink:href="#DejaVuSans-65" transform="translate(950.400391 0)"/>
      <use xlink:href="#DejaVuSans-72" transform="translate(1011.923828 0)"/>
     </g>
    </g>
    <g id="patch_39">
     <path d="M 397.849125 60.8705 
L 413.849125 60.8705 
L 413.849125 55.2705 
L 397.849125 55.2705 
z
" style="fill: #f4a261; stroke: #ffffff; stroke-linejoin: miter"/>
    </g>
    <g id="text_17">
     <!-- Ligand-Binding Pocket -->
     <g style="fill: #262626" transform="translate(420.249125 60.8705) scale(0.08 -0.08)">
      <defs>
       <path id="DejaVuSans-4c" d="M 628 4666 
L 1259 4666 
L 1259 531 
L 3531 531 
L 3531 0 
L 628 0 
L 628 4666 
z
" transform="scale(0.015625)"/>
       <path id="DejaVuSans-67" d="M 2906 1791 
Q 2906 2416 2648 2759 
Q 2391 3103 1925 3103 
Q 1463 3103 1205 2759 
Q 947 2416 947 1791 
Q 947 1169 1205 825 
Q 1463 481 1925 481 
Q 2391 481 2648 825 
Q 2906 1169 2906 1791 
z
M 3481 434 
Q 3481 -459 3084 -895 
Q 2688 -1331 1869 -1331 
Q 1566 -1331 1297 -1286 
Q 1028 -1241 775 -1147 
L 775 -588 
Q 1028 -725 1275 -790 
Q 1522 -856 1778 -856 
Q 2344 -856 2625 -561 
Q 2906 -266 2906 331 
L 2906 616 
Q 2728 306 2450 153 
Q 2172 0 1784 0 
Q 1141 0 747 490 
Q 353 981 353 1791 
Q 353 2603 747 3093 
Q 1141 3584 1784 3584 
Q 2172 3584 2450 3431 
Q 2728 3278 2906 2969 
L 2906 3500 
L 3481 3500 
L 3481 434 
z
" transform="scale(0.015625)"/>
       <path id="DejaVuSans-64" d="M 2906 2969 
L 2906 4863 
L 3481 4863 
L 3481 0 
L 2906 0 
L 2906 525 
Q 2725 213 2448 61 
Q 2172 -91 1784 -91 
Q 1150 -91 751 415 
Q 353 922 353 1747 
Q 353 2572 751 3078 
Q 1150 3584 1784 3584 
Q 2172 3584 2448 3432 
Q 2725 3281 2906 2969 
z
M 947 1747 
Q 947 1113 1208 752 
Q 1469 391 1925 391 
Q 2381 391 2643 752 
Q 2906 1113 2906 1747 
Q 2906 2381 2643 2742 
Q 2381 3103 1925 3103 
Q 1469 3103 1208 2742 
Q 947 2381 947 1747 
z
" transform="scale(0.015625)"/>
       <path id="DejaVuSans-2d" d="M 313 2009 
L 1997 2009 
L 1997 1497 
L 313 1497 
L 313 2009 
z
" transform="scale(0.015625)"/>
       <path id="DejaVuSans-42" d="M 1259 2228 
L 1259 519 
L 2272 519 
Q 2781 519 3026 730 
Q 3272 941 3272 1375 
Q 3272 1813 3026 2020 
Q 2781 2228 2272 2228 
L 1259 2228 
z
M 1259 4147 
L 1259 2741 
L 2194 2741 
Q 2656 2741 2882 2914 
Q 3109 3088 3109 3444 
Q 3109 3797 2882 3972 
Q 2656 4147 2194 4147 
L 1259 4147 
z
M 628 4666 
L 2241 4666 
Q 2963 4666 3353 4366 
Q 3744 4066 3744 3513 
Q 3744 3084 3544 2831 
Q 3344 2578 2956 2516 
Q 3422 2416 3680 2098 
Q 3938 1781 3938 1306 
Q 3938 681 3513 340 
Q 3088 0 2303 0 
L 628 0 
L 628 4666 
z
" transform="scale(0.015625)"/>
       <path id="DejaVuSans-6b" d="M 581 4863 
L 1159 4863 
L 1159 1991 
L 2875 3500 
L 3609 3500 
L 1753 1863 
L 3688 0 
L 2938 0 
L 1159 1709 
L 1159 0 
L 581 0 
L 581 4863 
z
" transform="scale(0.015625)"/>
      </defs>
      <use xlink:href="#DejaVuSans-4c"/>
      <use xlink:href="#DejaVuSans-69" transform="translate(55.712891 0)"/>
      <use xlink:href="#DejaVuSans-67" transform="translate(83.496094 0)"/>
      <use xlink:href="#DejaVuSans-61" transform="translate(146.972656 0)"/>
      <use xlink:href="#DejaVuSans-6e" transform="translate(208.251953 0)"/>
      <use xlink:href="#DejaVuSans-64" transform="translate(271.630859 0)"/>
      <use xlink:href="#DejaVuSans-2d" transform="translate(335.107422 0)"/>
      <use xlink:href="#DejaVuSans-42" transform="translate(367.566406 0)"/>
      <use xlink:href="#DejaVuSans-69" transform="translate(436.169922 0)"/>
      <use xlink:href="#DejaVuSans-6e" transform="translate(463.953125 0)"/>
      <use xlink:href="#DejaVuSans-64" transform="translate(527.332031 0)"/>
      <use xlink:href="#DejaVuSans-69" transform="translate(590.808594 0)"/>
      <use xlink:href="#DejaVuSans-6e" transform="translate(618.591797 0)"/>
      <use xlink:href="#DejaVuSans-67" transform="translate(681.970703 0)"/>
      <use xlink:href="#DejaVuSans-20" transform="translate(745.447266 0)"/>
      <use xlink:href="#DejaVuSans-50" transform="translate(777.234375 0)"/>
      <use xlink:href="#DejaVuSans-6f" transform="translate(833.912109 0)"/>
      <use xlink:href="#DejaVuSans-63" transform="translate(895.09375 0)"/>
      <use xlink:href="#DejaVuSans-6b" transform="translate(950.074219 0)"/>
      <use xlink:href="#DejaVuSans-65" transform="translate(1004.359375 0)"/>
      <use xlink:href="#DejaVuSans-74" transform="translate(1065.882812 0)"/>
     </g>
    </g>
    <g id="patch_40">
     <path d="M 397.849125 72.613 
L 413.849125 72.613 
L 413.849125 67.013 
L 397.849125 67.013 
z
" style="fill: #457b9d; stroke: #ffffff; stroke-linejoin: miter"/>
    </g>
    <g id="text_18">
     <!-- Voltage-Sensing Domain -->
     <g style="fill: #262626" transform="translate(420.249125 72.613) scale(0.08 -0.08)">
      <defs>
       <path id="DejaVuSans-44" d="M 1259 4147 
L 1259 519 
L 2022 519 
Q 2988 519 3436 956 
Q 3884 1394 3884 2338 
Q 3884 3275 3436 3711 
Q 2988 4147 2022 4147 
L 1259 4147 
z
M 628 4666 
L 1925 4666 
Q 3281 4666 3915 4102 
Q 4550 3538 4550 2338 
Q 4550 1131 3912 565 
Q 3275 0 1925 0 
L 628 0 
L 628 4666 
z
" transform="scale(0.015625)"/>
      </defs>
      <use xlink:href="#DejaVuSans-56"/>
      <use xlink:href="#DejaVuSans-6f" transform="translate(60.658203 0)"/>
      <use xlink:href="#DejaVuSans-6c" transform="translate(121.839844 0)"/>
      <use xlink:href="#DejaVuSans-74" transform="translate(149.623047 0)"/>
      <use xlink:href="#DejaVuSans-61" transform="translate(188.832031 0)"/>
      <use xlink:href="#DejaVuSans-67" transform="translate(250.111328 0)"/>
      <use xlink:href="#DejaVuSans-65" transform="translate(313.587891 0)"/>
      <use xlink:href="#DejaVuSans-2d" transform="translate(375.111328 0)"/>
      <use xlink:href="#DejaVuSans-53" transform="translate(411.195312 0)"/>
      <use xlink:href="#DejaVuSans-65" transform="translate(474.671875 0)"/>
      <use xlink:href="#DejaVuSans-6e" transform="translate(536.195312 0)"/>
      <use xlink:href="#DejaVuSans-73" transform="translate(599.574219 0)"/>
      <use xlink:href="#DejaVuSans-69" transform="translate(651.673828 0)"/>
      <use xlink:href="#DejaVuSans-6e" transform="translate(679.457031 0)"/>
      <use xlink:href="#DejaVuSans-67" transform="translate(742.835938 0)"/>
      <use xlink:href="#DejaVuSans-20" transform="translate(806.3125 0)"/>
      <use xlink:href="#DejaVuSans-44" transform="translate(838.099609 0)"/>
      <use xlink:href="#DejaVuSans-6f" transform="translate(915.101562 0)"/>
      <use xlink:href="#DejaVuSans-6d" transform="translate(976.283203 0)"/>
      <use xlink:href="#DejaVuSans-61" transform="translate(1073.695312 0)"/>
      <use xlink:href="#DejaVuSans-69" transform="translate(1134.974609 0)"/>
      <use xlink:href="#DejaVuSans-6e" transform="translate(1162.757812 0)"/>
     </g>
    </g>
    <g id="patch_41">
     <path d="M 397.849125 84.3555 
L 413.849125 84.3555 
L 413.849125 78.7555 
L 397.849125 78.7555 
z
" style="fill: #2a9d8f; stroke: #ffffff; stroke-linejoin: miter"/>
    </g>
    <g id="text_19">
     <!-- CaM/Interface Region -->
     <g style="fill: #262626" transform="translate(420.249125 84.3555) scale(0.08 -0.08)">
      <defs>
       <path id="DejaVuSans-4d" d="M 628 4666 
L 1569 4666 
L 2759 1491 
L 3956 4666 
L 4897 4666 
L 4897 0 
L 4281 0 
L 4281 4097 
L 3078 897 
L 2444 897 
L 1241 4097 
L 1241 0 
L 628 0 
L 628 4666 
z
" transform="scale(0.015625)"/>
       <path id="DejaVuSans-49" d="M 628 4666 
L 1259 4666 
L 1259 0 
L 628 0 
L 628 4666 
z
" transform="scale(0.015625)"/>
       <path id="DejaVuSans-52" d="M 2841 2188 
Q 3044 2119 3236 1894 
Q 3428 1669 3622 1275 
L 4263 0 
L 3584 0 
L 2988 1197 
Q 2756 1666 2539 1819 
Q 2322 1972 1947 1972 
L 1259 1972 
L 1259 0 
L 628 0 
L 628 4666 
L 2053 4666 
Q 2853 4666 3247 4331 
Q 3641 3997 3641 3322 
Q 3641 2881 3436 2590 
Q 3231 2300 2841 2188 
z
M 1259 4147 
L 1259 2491 
L 2053 2491 
Q 2509 2491 2742 2702 
Q 2975 2913 2975 3322 
Q 2975 3731 2742 3939 
Q 2509 4147 2053 4147 
L 1259 4147 
z
" transform="scale(0.015625)"/>
      </defs>
      <use xlink:href="#DejaVuSans-43"/>
      <use xlink:href="#DejaVuSans-61" transform="translate(69.824219 0)"/>
      <use xlink:href="#DejaVuSans-4d" transform="translate(131.103516 0)"/>
      <use xlink:href="#DejaVuSans-2f" transform="translate(217.382812 0)"/>
      <use xlink:href="#DejaVuSans-49" transform="translate(251.074219 0)"/>
      <use xlink:href="#DejaVuSans-6e" transform="translate(280.566406 0)"/>
      <use xlink:href="#DejaVuSans-74" transform="translate(343.945312 0)"/>
      <use xlink:href="#DejaVuSans-65" transform="translate(383.154297 0)"/>
      <use xlink:href="#DejaVuSans-72" transform="translate(444.677734 0)"/>
      <use xlink:href="#DejaVuSans-66" transform="translate(485.791016 0)"/>
      <use xlink:href="#DejaVuSans-61" transform="translate(520.996094 0)"/>
      <use xlink:href="#DejaVuSans-63" transform="translate(582.275391 0)"/>
      <use xlink:href="#DejaVuSans-65" transform="translate(637.255859 0)"/>
      <use xlink:href="#DejaVuSans-20" transform="translate(698.779297 0)"/>
      <use xlink:href="#DejaVuSans-52" transform="translate(730.566406 0)"/>
      <use xlink:href="#DejaVuSans-65" transform="translate(795.548828 0)"/>
      <use xlink:href="#DejaVuSans-67" transform="translate(857.072266 0)"/>
      <use xlink:href="#DejaVuSans-69" transform="translate(920.548828 0)"/>
      <use xlink:href="#DejaVuSans-6f" transform="translate(948.332031 0)"/>
      <use xlink:href="#DejaVuSans-6e" transform="translate(1009.513672 0)"/>
     </g>
    </g>
    <g id="patch_42">
     <path d="M 397.849125 96.098 
L 413.849125 96.098 
L 413.849125 90.498 
L 397.849125 90.498 
z
" style="fill: #8338ec; stroke: #ffffff; stroke-linejoin: miter"/>
    </g>
    <g id="text_20">
     <!-- Trafficking/Assembly -->
     <g style="fill: #262626" transform="translate(420.249125 96.098) scale(0.08 -0.08)">
      <defs>
       <path id="DejaVuSans-54" d="M -19 4666 
L 3928 4666 
L 3928 4134 
L 2272 4134 
L 2272 0 
L 1638 0 
L 1638 4134 
L -19 4134 
L -19 4666 
z
" transform="scale(0.015625)"/>
       <path id="DejaVuSans-41" d="M 2188 4044 
L 1331 1722 
L 3047 1722 
L 2188 4044 
z
M 1831 4666 
L 2547 4666 
L 4325 0 
L 3669 0 
L 3244 1197 
L 1141 1197 
L 716 0 
L 50 0 
L 1831 4666 
z
" transform="scale(0.015625)"/>
      </defs>
      <use xlink:href="#DejaVuSans-54"/>
      <use xlink:href="#DejaVuSans-72" transform="translate(46.333984 0)"/>
      <use xlink:href="#DejaVuSans-61" transform="translate(87.447266 0)"/>
      <use xlink:href="#DejaVuSans-66" transform="translate(148.726562 0)"/>
      <use xlink:href="#DejaVuSans-66" transform="translate(183.931641 0)"/>
      <use xlink:href="#DejaVuSans-69" transform="translate(219.136719 0)"/>
      <use xlink:href="#DejaVuSans-63" transform="translate(246.919922 0)"/>
      <use xlink:href="#DejaVuSans-6b" transform="translate(301.900391 0)"/>
      <use xlink:href="#DejaVuSans-69" transform="translate(359.810547 0)"/>
      <use xlink:href="#DejaVuSans-6e" transform="translate(387.59375 0)"/>
      <use xlink:href="#DejaVuSans-67" transform="translate(450.972656 0)"/>
      <use xlink:href="#DejaVuSans-2f" transform="translate(514.449219 0)"/>
      <use xlink:href="#DejaVuSans-41" transform="translate(548.140625 0)"/>
      <use xlink:href="#DejaVuSans-73" transform="translate(616.548828 0)"/>
      <use xlink:href="#DejaVuSans-73" transform="translate(668.648438 0)"/>
      <use xlink:href="#DejaVuSans-65" transform="translate(720.748047 0)"/>
      <use xlink:href="#DejaVuSans-6d" transform="translate(782.271484 0)"/>
      <use xlink:href="#DejaVuSans-62" transform="translate(879.683594 0)"/>
      <use xlink:href="#DejaVuSans-6c" transform="translate(943.160156 0)"/>
      <use xlink:href="#DejaVuSans-79" transform="translate(970.943359 0)"/>
     </g>
    </g>
    <g id="patch_43">
     <path d="M 397.849125 107.8405 
L 413.849125 107.8405 
L 413.849125 102.2405 
L 397.849125 102.2405 
z
" style="fill: #adb5bd; stroke: #ffffff; stroke-linejoin: miter"/>
    </g>
    <g id="text_21">
     <!-- Unknown/Unresolved -->
     <g style="fill: #262626" transform="translate(420.249125 107.8405) scale(0.08 -0.08)">
      <defs>
       <path id="DejaVuSans-55" d="M 556 4666 
L 1191 4666 
L 1191 1831 
Q 1191 1081 1462 751 
Q 1734 422 2344 422 
Q 2950 422 3222 751 
Q 3494 1081 3494 1831 
L 3494 4666 
L 4128 4666 
L 4128 1753 
Q 4128 841 3676 375 
Q 3225 -91 2344 -91 
Q 1459 -91 1007 375 
Q 556 841 556 1753 
L 556 4666 
z
" transform="scale(0.015625)"/>
       <path id="DejaVuSans-77" d="M 269 3500 
L 844 3500 
L 1563 769 
L 2278 3500 
L 2956 3500 
L 3675 769 
L 4391 3500 
L 4966 3500 
L 4050 0 
L 3372 0 
L 2619 2869 
L 1863 0 
L 1184 0 
L 269 3500 
z
" transform="scale(0.015625)"/>
      </defs>
      <use xlink:href="#DejaVuSans-55"/>
      <use xlink:href="#DejaVuSans-6e" transform="translate(73.193359 0)"/>
      <use xlink:href="#DejaVuSans-6b" transform="translate(136.572266 0)"/>
      <use xlink:href="#DejaVuSans-6e" transform="translate(194.482422 0)"/>
      <use xlink:href="#DejaVuSans-6f" transform="translate(257.861328 0)"/>
      <use xlink:href="#DejaVuSans-77" transform="translate(319.042969 0)"/>
      <use xlink:href="#DejaVuSans-6e" transform="translate(400.830078 0)"/>
      <use xlink:href="#DejaVuSans-2f" transform="translate(464.208984 0)"/>
      <use xlink:href="#DejaVuSans-55" transform="translate(497.900391 0)"/>
      <use xlink:href="#DejaVuSans-6e" transform="translate(571.09375 0)"/>
      <use xlink:href="#DejaVuSans-72" transform="translate(634.472656 0)"/>
      <use xlink:href="#DejaVuSans-65" transform="translate(673.335938 0)"/>
      <use xlink:href="#DejaVuSans-73" transform="translate(734.859375 0)"/>
      <use xlink:href="#DejaVuSans-6f" transform="translate(786.958984 0)"/>
      <use xlink:href="#DejaVuSans-6c" transform="translate(848.140625 0)"/>
      <use xlink:href="#DejaVuSans-76" transform="translate(875.923828 0)"/>
      <use xlink:href="#DejaVuSans-65" transform="translate(935.103516 0)"/>
      <use xlink:href="#DejaVuSans-64" transform="translate(996.626953 0)"/>
     </g>
    </g>
   </g>
  </g>
  <g id="axes_2">
   <g id="patch_44">
    <path d="M 588.524625 376.20525 
L 1059.1245 376.20525 
L 1059.1245 35.84925 
L 588.524625 35.84925 
z
" style="fill: #ffffff"/>
   </g>
   <g id="matplotlib.axis_3">
    <g id="xtick_6">
     <g id="line2d_13">
      <g>
       <use xlink:href="#m561d0f6f07" x="706.174594" y="376.20525" style="fill: #262626; stroke: #262626; stroke-width: 1.25"/>
      </g>
     </g>
     <g id="text_22">
      <!-- P/LP -->
      <g style="fill: #262626" transform="translate(694.047094 394.481445) scale(0.1155 -0.1155)">
       <use xlink:href="#DejaVuSans-50"/>
       <use xlink:href="#DejaVuSans-2f" transform="translate(60.302734 0)"/>
       <use xlink:href="#DejaVuSans-4c" transform="translate(93.994141 0)"/>
       <use xlink:href="#DejaVuSans-50" transform="translate(149.707031 0)"/>
      </g>
     </g>
    </g>
    <g id="xtick_7">
     <g id="line2d_14">
      <g>
       <use xlink:href="#m561d0f6f07" x="941.474531" y="376.20525" style="fill: #262626; stroke: #262626; stroke-width: 1.25"/>
      </g>
     </g>
     <g id="text_23">
      <!-- VUS -->
      <g style="fill: #262626" transform="translate(929.63127 394.481445) scale(0.1155 -0.1155)">
       <use xlink:href="#DejaVuSans-56"/>
       <use xlink:href="#DejaVuSans-55" transform="translate(68.408203 0)"/>
       <use xlink:href="#DejaVuSans-53" transform="translate(141.601562 0)"/>
      </g>
     </g>
    </g>
    <g id="text_24">
     <!-- Variant Class -->
     <g style="fill: #262626" transform="translate(782.903109 410.457516) scale(0.126 -0.126)">
      <use xlink:href="#DejaVuSans-56"/>
      <use xlink:href="#DejaVuSans-61" transform="translate(60.658203 0)"/>
      <use xlink:href="#DejaVuSans-72" transform="translate(121.9375 0)"/>
      <use xlink:href="#DejaVuSans-69" transform="translate(163.050781 0)"/>
      <use xlink:href="#DejaVuSans-61" transform="translate(190.833984 0)"/>
      <use xlink:href="#DejaVuSans-6e" transform="translate(252.113281 0)"/>
      <use xlink:href="#DejaVuSans-74" transform="translate(315.492188 0)"/>
      <use xlink:href="#DejaVuSans-20" transform="translate(354.701172 0)"/>
      <use xlink:href="#DejaVuSans-43" transform="translate(386.488281 0)"/>
      <use xlink:href="#DejaVuSans-6c" transform="translate(456.3125 0)"/>
      <use xlink:href="#DejaVuSans-61" transform="translate(484.095703 0)"/>
      <use xlink:href="#DejaVuSans-73" transform="translate(545.375 0)"/>
      <use xlink:href="#DejaVuSans-73" transform="translate(597.474609 0)"/>
     </g>
    </g>
   </g>
   <g id="matplotlib.axis_4">
    <g id="ytick_8">
     <g id="line2d_15">
      <g>
       <use xlink:href="#ma128b4f4ce" x="588.524625" y="371.69172" style="fill: #262626; stroke: #262626; stroke-width: 1.25"/>
      </g>
     </g>
     <g id="text_25">
      <!-- 0 -->
      <g style="fill: #262626" transform="translate(571.675937 376.079818) scale(0.1155 -0.1155)">
       <use xlink:href="#DejaVuSans-30"/>
      </g>
     </g>
    </g>
    <g id="ytick_9">
     <g id="line2d_16">
      <g>
       <use xlink:href="#ma128b4f4ce" x="588.524625" y="318.033806" style="fill: #262626; stroke: #262626; stroke-width: 1.25"/>
      </g>
     </g>
     <g id="text_26">
      <!-- 20 -->
      <g style="fill: #262626" transform="translate(564.32725 322.421904) scale(0.1155 -0.1155)">
       <use xlink:href="#DejaVuSans-32"/>
       <use xlink:href="#DejaVuSans-30" transform="translate(63.623047 0)"/>
      </g>
     </g>
    </g>
    <g id="ytick_10">
     <g id="line2d_17">
      <g>
       <use xlink:href="#ma128b4f4ce" x="588.524625" y="264.375892" style="fill: #262626; stroke: #262626; stroke-width: 1.25"/>
      </g>
     </g>
     <g id="text_27">
      <!-- 40 -->
      <g style="fill: #262626" transform="translate(564.32725 268.76399) scale(0.1155 -0.1155)">
       <use xlink:href="#DejaVuSans-34"/>
       <use xlink:href="#DejaVuSans-30" transform="translate(63.623047 0)"/>
      </g>
     </g>
    </g>
    <g id="ytick_11">
     <g id="line2d_18">
      <g>
       <use xlink:href="#ma128b4f4ce" x="588.524625" y="210.717978" style="fill: #262626; stroke: #262626; stroke-width: 1.25"/>
      </g>
     </g>
     <g id="text_28">
      <!-- 60 -->
      <g style="fill: #262626" transform="translate(564.32725 215.106076) scale(0.1155 -0.1155)">
       <defs>
        <path id="DejaVuSans-36" d="M 2113 2584 
Q 1688 2584 1439 2293 
Q 1191 2003 1191 1497 
Q 1191 994 1439 701 
Q 1688 409 2113 409 
Q 2538 409 2786 701 
Q 3034 994 3034 1497 
Q 3034 2003 2786 2293 
Q 2538 2584 2113 2584 
z
M 3366 4563 
L 3366 3988 
Q 3128 4100 2886 4159 
Q 2644 4219 2406 4219 
Q 1781 4219 1451 3797 
Q 1122 3375 1075 2522 
Q 1259 2794 1537 2939 
Q 1816 3084 2150 3084 
Q 2853 3084 3261 2657 
Q 3669 2231 3669 1497 
Q 3669 778 3244 343 
Q 2819 -91 2113 -91 
Q 1303 -91 875 529 
Q 447 1150 447 2328 
Q 447 3434 972 4092 
Q 1497 4750 2381 4750 
Q 2619 4750 2861 4703 
Q 3103 4656 3366 4563 
z
" transform="scale(0.015625)"/>
       </defs>
       <use xlink:href="#DejaVuSans-36"/>
       <use xlink:href="#DejaVuSans-30" transform="translate(63.623047 0)"/>
      </g>
     </g>
    </g>
    <g id="ytick_12">
     <g id="line2d_19">
      <g>
       <use xlink:href="#ma128b4f4ce" x="588.524625" y="157.060064" style="fill: #262626; stroke: #262626; stroke-width: 1.25"/>
      </g>
     </g>
     <g id="text_29">
      <!-- 80 -->
      <g style="fill: #262626" transform="translate(564.32725 161.448162) scale(0.1155 -0.1155)">
       <defs>
        <path id="DejaVuSans-38" d="M 2034 2216 
Q 1584 2216 1326 1975 
Q 1069 1734 1069 1313 
Q 1069 891 1326 650 
Q 1584 409 2034 409 
Q 2484 409 2743 651 
Q 3003 894 3003 1313 
Q 3003 1734 2745 1975 
Q 2488 2216 2034 2216 
z
M 1403 2484 
Q 997 2584 770 2862 
Q 544 3141 544 3541 
Q 544 4100 942 4425 
Q 1341 4750 2034 4750 
Q 2731 4750 3128 4425 
Q 3525 4100 3525 3541 
Q 3525 3141 3298 2862 
Q 3072 2584 2669 2484 
Q 3125 2378 3379 2068 
Q 3634 1759 3634 1313 
Q 3634 634 3220 271 
Q 2806 -91 2034 -91 
Q 1263 -91 848 271 
Q 434 634 434 1313 
Q 434 1759 690 2068 
Q 947 2378 1403 2484 
z
M 1172 3481 
Q 1172 3119 1398 2916 
Q 1625 2713 2034 2713 
Q 2441 2713 2670 2916 
Q 2900 3119 2900 3481 
Q 2900 3844 2670 4047 
Q 2441 4250 2034 4250 
Q 1625 4250 1398 4047 
Q 1172 3844 1172 3481 
z
" transform="scale(0.015625)"/>
       </defs>
       <use xlink:href="#DejaVuSans-38"/>
       <use xlink:href="#DejaVuSans-30" transform="translate(63.623047 0)"/>
      </g>
     </g>
    </g>
    <g id="ytick_13">
     <g id="line2d_20">
      <g>
       <use xlink:href="#ma128b4f4ce" x="588.524625" y="103.402151" style="fill: #262626; stroke: #262626; stroke-width: 1.25"/>
      </g>
     </g>
     <g id="text_30">
      <!-- 100 -->
      <g style="fill: #262626" transform="translate(556.978562 107.790248) scale(0.1155 -0.1155)">
       <use xlink:href="#DejaVuSans-31"/>
       <use xlink:href="#DejaVuSans-30" transform="translate(63.623047 0)"/>
       <use xlink:href="#DejaVuSans-30" transform="translate(127.246094 0)"/>
      </g>
     </g>
    </g>
    <g id="ytick_14">
     <g id="line2d_21">
      <g>
       <use xlink:href="#ma128b4f4ce" x="588.524625" y="49.744237" style="fill: #262626; stroke: #262626; stroke-width: 1.25"/>
      </g>
     </g>
     <g id="text_31">
      <!-- 120 -->
      <g style="fill: #262626" transform="translate(556.978562 54.132334) scale(0.1155 -0.1155)">
       <use xlink:href="#DejaVuSans-31"/>
       <use xlink:href="#DejaVuSans-32" transform="translate(63.623047 0)"/>
       <use xlink:href="#DejaVuSans-30" transform="translate(127.246094 0)"/>
      </g>
     </g>
    </g>
    <g id="text_32">
     <!-- Distance to Pocket Centroid (Å) -->
     <g style="fill: #262626" transform="translate(550.358156 304.578937) rotate(-90) scale(0.126 -0.126)">
      <defs>
       <path id="DejaVuSans-28" d="M 1984 4856 
Q 1566 4138 1362 3434 
Q 1159 2731 1159 2009 
Q 1159 1288 1364 580 
Q 1569 -128 1984 -844 
L 1484 -844 
Q 1016 -109 783 600 
Q 550 1309 550 2009 
Q 550 2706 781 3412 
Q 1013 4119 1484 4856 
L 1984 4856 
z
" transform="scale(0.015625)"/>
       <path id="DejaVuSans-c5" d="M 2663 5081 
Q 2663 5278 2523 5417 
Q 2384 5556 2188 5556 
Q 1988 5556 1852 5420 
Q 1716 5284 1716 5081 
Q 1716 4884 1853 4746 
Q 1991 4609 2188 4609 
Q 2384 4609 2523 4746 
Q 2663 4884 2663 5081 
z
M 2188 4044 
L 1338 1722 
L 3041 1722 
L 2188 4044 
z
M 1716 4366 
Q 1525 4494 1428 4673 
Q 1331 4853 1331 5081 
Q 1331 5441 1579 5691 
Q 1828 5941 2188 5941 
Q 2544 5941 2795 5689 
Q 3047 5438 3047 5081 
Q 3047 4863 2948 4678 
Q 2850 4494 2663 4366 
L 4325 0 
L 3669 0 
L 3244 1197 
L 1141 1197 
L 716 0 
L 50 0 
L 1716 4366 
z
" transform="scale(0.015625)"/>
       <path id="DejaVuSans-29" d="M 513 4856 
L 1013 4856 
Q 1481 4119 1714 3412 
Q 1947 2706 1947 2009 
Q 1947 1309 1714 600 
Q 1481 -109 1013 -844 
L 513 -844 
Q 928 -128 1133 580 
Q 1338 1288 1338 2009 
Q 1338 2731 1133 3434 
Q 928 4138 513 4856 
z
" transform="scale(0.015625)"/>
      </defs>
      <use xlink:href="#DejaVuSans-44"/>
      <use xlink:href="#DejaVuSans-69" transform="translate(77.001953 0)"/>
      <use xlink:href="#DejaVuSans-73" transform="translate(104.785156 0)"/>
      <use xlink:href="#DejaVuSans-74" transform="translate(156.884766 0)"/>
      <use xlink:href="#DejaVuSans-61" transform="translate(196.09375 0)"/>
      <use xlink:href="#DejaVuSans-6e" transform="translate(257.373047 0)"/>
      <use xlink:href="#DejaVuSans-63" transform="translate(320.751953 0)"/>
      <use xlink:href="#DejaVuSans-65" transform="translate(375.732422 0)"/>
      <use xlink:href="#DejaVuSans-20" transform="translate(437.255859 0)"/>
      <use xlink:href="#DejaVuSans-74" transform="translate(469.042969 0)"/>
      <use xlink:href="#DejaVuSans-6f" transform="translate(508.251953 0)"/>
      <use xlink:href="#DejaVuSans-20" transform="translate(569.433594 0)"/>
      <use xlink:href="#DejaVuSans-50" transform="translate(601.220703 0)"/>
      <use xlink:href="#DejaVuSans-6f" transform="translate(657.898438 0)"/>
      <use xlink:href="#DejaVuSans-63" transform="translate(719.080078 0)"/>
      <use xlink:href="#DejaVuSans-6b" transform="translate(774.060547 0)"/>
      <use xlink:href="#DejaVuSans-65" transform="translate(828.345703 0)"/>
      <use xlink:href="#DejaVuSans-74" transform="translate(889.869141 0)"/>
      <use xlink:href="#DejaVuSans-20" transform="translate(929.078125 0)"/>
      <use xlink:href="#DejaVuSans-43" transform="translate(960.865234 0)"/>
      <use xlink:href="#DejaVuSans-65" transform="translate(1030.689453 0)"/>
      <use xlink:href="#DejaVuSans-6e" transform="translate(1092.212891 0)"/>
      <use xlink:href="#DejaVuSans-74" transform="translate(1155.591797 0)"/>
      <use xlink:href="#DejaVuSans-72" transform="translate(1194.800781 0)"/>
      <use xlink:href="#DejaVuSans-6f" transform="translate(1233.664062 0)"/>
      <use xlink:href="#DejaVuSans-69" transform="translate(1294.845703 0)"/>
      <use xlink:href="#DejaVuSans-64" transform="translate(1322.628906 0)"/>
      <use xlink:href="#DejaVuSans-20" transform="translate(1386.105469 0)"/>
      <use xlink:href="#DejaVuSans-28" transform="translate(1417.892578 0)"/>
      <use xlink:href="#DejaVuSans-c5" transform="translate(1456.90625 0)"/>
      <use xlink:href="#DejaVuSans-29" transform="translate(1525.314453 0)"/>
     </g>
    </g>
   </g>
   <g id="FillBetweenPolyCollection_1">
    <defs>
     <path id="mf11af8d5c3" d="M 741.349771 -59.543399 
L 670.999417 -59.543399 
L 665.904878 -61.630063 
L 660.580012 -63.716727 
L 655.105817 -65.80339 
L 649.573962 -67.890054 
L 644.083824 -69.976718 
L 638.739083 -72.063382 
L 633.644115 -74.150045 
L 628.900379 -76.236709 
L 624.603013 -78.323373 
L 620.837783 -80.410037 
L 617.678485 -82.4967 
L 615.184861 -84.583364 
L 613.401009 -86.670028 
L 612.354282 -88.756692 
L 612.054619 -90.843355 
L 612.494306 -92.930019 
L 613.648175 -95.016683 
L 615.474272 -97.103347 
L 617.915059 -99.19001 
L 620.899199 -101.276674 
L 624.34395 -103.363338 
L 628.158124 -105.450002 
L 632.24552 -107.536665 
L 636.508631 -109.623329 
L 640.852396 -111.709993 
L 645.187734 -113.796656 
L 649.434581 -115.88332 
L 653.524253 -117.969984 
L 657.400968 -120.056648 
L 661.02253 -122.143311 
L 664.360196 -124.229975 
L 667.397884 -126.316639 
L 670.130882 -128.403303 
L 672.564237 -130.489966 
L 674.710995 -132.57663 
L 676.590411 -134.663294 
L 678.226192 -136.749958 
L 679.644841 -138.836621 
L 680.874082 -140.923285 
L 681.941431 -143.009949 
L 682.872905 -145.096613 
L 683.69195 -147.183276 
L 684.418658 -149.26994 
L 685.069335 -151.356604 
L 685.656484 -153.443268 
L 686.18921 -155.529931 
L 686.674002 -157.616595 
L 687.115792 -159.703259 
L 687.519125 -161.789923 
L 687.889279 -163.876586 
L 688.233124 -165.96325 
L 688.559609 -168.049914 
L 688.879752 -170.136578 
L 689.206166 -172.223241 
L 689.552147 -174.309905 
L 689.930497 -176.396569 
L 690.352235 -178.483233 
L 690.825401 -180.569896 
L 691.354123 -182.65656 
L 691.938079 -184.743224 
L 692.572428 -186.829888 
L 693.248204 -188.916551 
L 693.953134 -191.003215 
L 694.672762 -193.089879 
L 695.391749 -195.176542 
L 696.095211 -197.263206 
L 696.769947 -199.34987 
L 697.405445 -201.436534 
L 697.994584 -203.523197 
L 698.533978 -205.609861 
L 699.023946 -207.696525 
L 699.468135 -209.783189 
L 699.87285 -211.869852 
L 700.246158 -213.956516 
L 700.596883 -216.04318 
L 700.93358 -218.129844 
L 701.263594 -220.216507 
L 701.592307 -222.303171 
L 701.922634 -224.389835 
L 702.2548 -226.476499 
L 702.586434 -228.563162 
L 702.912922 -230.649826 
L 703.227993 -232.73649 
L 703.524453 -234.823154 
L 703.794983 -236.909817 
L 704.032928 -238.996481 
L 704.23299 -241.083145 
L 704.391776 -243.169809 
L 704.508154 -245.256472 
L 704.5834 -247.343136 
L 704.621129 -249.4298 
L 704.627041 -251.516464 
L 704.608485 -253.603127 
L 704.573918 -255.689791 
L 704.532264 -257.776455 
L 704.492276 -259.863119 
L 704.461906 -261.949782 
L 704.447779 -264.036446 
L 704.45478 -266.12311 
L 707.894407 -266.12311 
L 707.894407 -266.12311 
L 707.901409 -264.036446 
L 707.887281 -261.949782 
L 707.856912 -259.863119 
L 707.816923 -257.776455 
L 707.77527 -255.689791 
L 707.740702 -253.603127 
L 707.722147 -251.516464 
L 707.728058 -249.4298 
L 707.765788 -247.343136 
L 707.841033 -245.256472 
L 707.957412 -243.169809 
L 708.116198 -241.083145 
L 708.31626 -238.996481 
L 708.554204 -236.909817 
L 708.824735 -234.823154 
L 709.121194 -232.73649 
L 709.436266 -230.649826 
L 709.762754 -228.563162 
L 710.094388 -226.476499 
L 710.426554 -224.389835 
L 710.75688 -222.303171 
L 711.085594 -220.216507 
L 711.415608 -218.129844 
L 711.752304 -216.04318 
L 712.10303 -213.956516 
L 712.476338 -211.869852 
L 712.881052 -209.783189 
L 713.325242 -207.696525 
L 713.81521 -205.609861 
L 714.354604 -203.523197 
L 714.943743 -201.436534 
L 715.57924 -199.34987 
L 716.253976 -197.263206 
L 716.957438 -195.176542 
L 717.676426 -193.089879 
L 718.396053 -191.003215 
L 719.100983 -188.916551 
L 719.776759 -186.829888 
L 720.411108 -184.743224 
L 720.995065 -182.65656 
L 721.523787 -180.569896 
L 721.996953 -178.483233 
L 722.418691 -176.396569 
L 722.797041 -174.309905 
L 723.143022 -172.223241 
L 723.469435 -170.136578 
L 723.789579 -168.049914 
L 724.116063 -165.96325 
L 724.459909 -163.876586 
L 724.830062 -161.789923 
L 725.233396 -159.703259 
L 725.675185 -157.616595 
L 726.159977 -155.529931 
L 726.692703 -153.443268 
L 727.279853 -151.356604 
L 727.93053 -149.26994 
L 728.657238 -147.183276 
L 729.476283 -145.096613 
L 730.407756 -143.009949 
L 731.475105 -140.923285 
L 732.704347 -138.836621 
L 734.122995 -136.749958 
L 735.758777 -134.663294 
L 737.638192 -132.57663 
L 739.784951 -130.489966 
L 742.218306 -128.403303 
L 744.951303 -126.316639 
L 747.988992 -124.229975 
L 751.326658 -122.143311 
L 754.948219 -120.056648 
L 758.824935 -117.969984 
L 762.914606 -115.88332 
L 767.161454 -113.796656 
L 771.496791 -111.709993 
L 775.840557 -109.623329 
L 780.103667 -107.536665 
L 784.191063 -105.450002 
L 788.005237 -103.363338 
L 791.449988 -101.276674 
L 794.434129 -99.19001 
L 796.874916 -97.103347 
L 798.701013 -95.016683 
L 799.854882 -92.930019 
L 800.294569 -90.843355 
L 799.994905 -88.756692 
L 798.948178 -86.670028 
L 797.164327 -84.583364 
L 794.670702 -82.4967 
L 791.511404 -80.410037 
L 787.746174 -78.323373 
L 783.448809 -76.236709 
L 778.705073 -74.150045 
L 773.610104 -72.063382 
L 768.265363 -69.976718 
L 762.775225 -67.890054 
L 757.243371 -65.80339 
L 751.769175 -63.716727 
L 746.444309 -61.630063 
L 741.349771 -59.543399 
z
" style="stroke: #444444; stroke-width: 1.25"/>
    </defs>
    <g clip-path="url(#pe0ba3c120f)">
     <use xlink:href="#mf11af8d5c3" x="0" y="420.277922" style="fill: #d04f58; stroke: #444444; stroke-width: 1.25"/>
    </g>
   </g>
   <g id="FillBetweenPolyCollection_2">
    <defs>
     <path id="m5813f2b9d5" d="M 977.003387 -68.775274 
L 905.945675 -68.775274 
L 901.244908 -71.807422 
L 896.505316 -74.83957 
L 891.815233 -77.871718 
L 887.258255 -80.903867 
L 882.908438 -83.936015 
L 878.826375 -86.968163 
L 875.05644 -90.000311 
L 871.625364 -93.032459 
L 868.542179 -96.064608 
L 865.799441 -99.096756 
L 863.375576 -102.128904 
L 861.238103 -105.161052 
L 859.347487 -108.1932 
L 857.661337 -111.225348 
L 856.138645 -114.257497 
L 854.74377 -117.289645 
L 853.449876 -120.321793 
L 852.241515 -123.353941 
L 851.116119 -126.386089 
L 850.084198 -129.418238 
L 849.168155 -132.450386 
L 848.399745 -135.482534 
L 847.816356 -138.514682 
L 847.456442 -141.54683 
L 847.354556 -144.578979 
L 847.536544 -147.611127 
L 848.015433 -150.643275 
L 848.788543 -153.675423 
L 849.836175 -156.707571 
L 851.122073 -159.739719 
L 852.595615 -162.771868 
L 854.195482 -165.804016 
L 855.854387 -168.836164 
L 857.504307 -171.868312 
L 859.08167 -174.90046 
L 860.531947 -177.932609 
L 861.813245 -180.964757 
L 862.898628 -183.996905 
L 863.77706 -187.029053 
L 864.453009 -190.061201 
L 864.944896 -193.09335 
L 865.282644 -196.125498 
L 865.504633 -199.157646 
L 865.65438 -202.189794 
L 865.77725 -205.221942 
L 865.917429 -208.254091 
L 866.115373 -211.286239 
L 866.405832 -214.318387 
L 866.816499 -217.350535 
L 867.36728 -220.382683 
L 868.070118 -223.414831 
L 868.92928 -226.44698 
L 869.942034 -229.479128 
L 871.099604 -232.511276 
L 872.388363 -235.543424 
L 873.791162 -238.575572 
L 875.288761 -241.607721 
L 876.861258 -244.639869 
L 878.489415 -247.672017 
L 880.155755 -250.704165 
L 881.845305 -253.736313 
L 883.545879 -256.768462 
L 885.247855 -259.80061 
L 886.94349 -262.832758 
L 888.625886 -265.864906 
L 890.287831 -268.897054 
L 891.920755 -271.929203 
L 893.514063 -274.961351 
L 895.05503 -277.993499 
L 896.529374 -281.025647 
L 897.922468 -284.057795 
L 899.221049 -287.089943 
L 900.415181 -290.122092 
L 901.500164 -293.15424 
L 902.478087 -296.186388 
L 903.358776 -299.218536 
L 904.159961 -302.250684 
L 904.906594 -305.282833 
L 905.62938 -308.314981 
L 906.362644 -311.347129 
L 907.141765 -314.379277 
L 908.000422 -317.411425 
L 908.967926 -320.443574 
L 910.066886 -323.475722 
L 911.31143 -326.50787 
L 912.706119 -329.540018 
L 914.245665 -332.572166 
L 915.915431 -335.604315 
L 917.692664 -338.636463 
L 919.548317 -341.668611 
L 921.449253 -344.700759 
L 923.360622 -347.732907 
L 925.248166 -350.765055 
L 927.080253 -353.797204 
L 928.829471 -356.829352 
L 930.473692 -359.8615 
L 931.996582 -362.893648 
L 933.387596 -365.925796 
L 934.641562 -368.957945 
L 948.307501 -368.957945 
L 948.307501 -368.957945 
L 949.561466 -365.925796 
L 950.95248 -362.893648 
L 952.47537 -359.8615 
L 954.119592 -356.829352 
L 955.86881 -353.797204 
L 957.700897 -350.765055 
L 959.588441 -347.732907 
L 961.499809 -344.700759 
L 963.400745 -341.668611 
L 965.256398 -338.636463 
L 967.033632 -335.604315 
L 968.703398 -332.572166 
L 970.242943 -329.540018 
L 971.637633 -326.50787 
L 972.882176 -323.475722 
L 973.981137 -320.443574 
L 974.94864 -317.411425 
L 975.807297 -314.379277 
L 976.586418 -311.347129 
L 977.319683 -308.314981 
L 978.042468 -305.282833 
L 978.789102 -302.250684 
L 979.590287 -299.218536 
L 980.470976 -296.186388 
L 981.448899 -293.15424 
L 982.533881 -290.122092 
L 983.728014 -287.089943 
L 985.026595 -284.057795 
L 986.419688 -281.025647 
L 987.894032 -277.993499 
L 989.434999 -274.961351 
L 991.028307 -271.929203 
L 992.661232 -268.897054 
L 994.323177 -265.864906 
L 996.005573 -262.832758 
L 997.701207 -259.80061 
L 999.403184 -256.768462 
L 1001.103757 -253.736313 
L 1002.793307 -250.704165 
L 1004.459647 -247.672017 
L 1006.087804 -244.639869 
L 1007.660302 -241.607721 
L 1009.157901 -238.575572 
L 1010.5607 -235.543424 
L 1011.849458 -232.511276 
L 1013.007029 -229.479128 
L 1014.019782 -226.44698 
L 1014.878945 -223.414831 
L 1015.581782 -220.382683 
L 1016.132564 -217.350535 
L 1016.543231 -214.318387 
L 1016.833689 -211.286239 
L 1017.031634 -208.254091 
L 1017.171813 -205.221942 
L 1017.294682 -202.189794 
L 1017.44443 -199.157646 
L 1017.666418 -196.125498 
L 1018.004166 -193.09335 
L 1018.496053 -190.061201 
L 1019.172002 -187.029053 
L 1020.050434 -183.996905 
L 1021.135818 -180.964757 
L 1022.417116 -177.932609 
L 1023.867392 -174.90046 
L 1025.444755 -171.868312 
L 1027.094675 -168.836164 
L 1028.75358 -165.804016 
L 1030.353448 -162.771868 
L 1031.82699 -159.739719 
L 1033.112888 -156.707571 
L 1034.16052 -153.675423 
L 1034.933629 -150.643275 
L 1035.412518 -147.611127 
L 1035.594506 -144.578979 
L 1035.492621 -141.54683 
L 1035.132706 -138.514682 
L 1034.549318 -135.482534 
L 1033.780908 -132.450386 
L 1032.864865 -129.418238 
L 1031.832943 -126.386089 
L 1030.707547 -123.353941 
L 1029.499186 -120.321793 
L 1028.205293 -117.289645 
L 1026.810418 -114.257497 
L 1025.287725 -111.225348 
L 1023.601575 -108.1932 
L 1021.71096 -105.161052 
L 1019.573486 -102.128904 
L 1017.149621 -99.096756 
L 1014.406884 -96.064608 
L 1011.323698 -93.032459 
L 1007.892622 -90.000311 
L 1004.122687 -86.968163 
L 1000.040624 -83.936015 
L 995.690807 -80.903867 
L 991.133829 -77.871718 
L 986.443746 -74.83957 
L 981.704155 -71.807422 
L 977.003387 -68.775274 
z
" style="stroke: #444444; stroke-width: 1.25"/>
    </defs>
    <g clip-path="url(#pe0ba3c120f)">
     <use xlink:href="#m5813f2b9d5" x="0" y="420.277922" style="fill: #507892; stroke: #444444; stroke-width: 1.25"/>
    </g>
   </g>
   <g id="line2d_22">
    <path d="M 706.174594 360.734523 
L 706.174594 237.784028 
" clip-path="url(#pe0ba3c120f)" style="fill: none; stroke: #444444; stroke-width: 1.875; stroke-linecap: round"/>
   </g>
   <g id="line2d_23">
    <path d="M 706.174594 337.732639 
L 706.174594 297.689271 
" clip-path="url(#pe0ba3c120f)" style="fill: none; stroke: #444444; stroke-width: 5.625; stroke-linecap: round"/>
   </g>
   <g id="line2d_24">
    <path d="M 706.174594 321.837589 
" clip-path="url(#pe0ba3c120f)" style="fill: none; stroke: #444444; stroke-width: 1.5; stroke-linecap: round"/>
    <defs>
     <path id="m828e334074" d="M 2.34375 0 
L -2.34375 -0 
" style="stroke: #ffffff; stroke-width: 1.125"/>
    </defs>
    <g clip-path="url(#pe0ba3c120f)">
     <use xlink:href="#m828e334074" x="706.174594" y="321.837589" style="fill: #ffffff; stroke: #ffffff; stroke-width: 1.125"/>
    </g>
   </g>
   <g id="line2d_25">
    <path d="M 941.474531 351.502648 
L 941.474531 51.319977 
" clip-path="url(#pe0ba3c120f)" style="fill: none; stroke: #444444; stroke-width: 1.875; stroke-linecap: round"/>
   </g>
   <g id="line2d_26">
    <path d="M 941.474531 291.550412 
L 941.474531 179.026151 
" clip-path="url(#pe0ba3c120f)" style="fill: none; stroke: #444444; stroke-width: 5.625; stroke-linecap: round"/>
   </g>
   <g id="line2d_27">
    <path d="M 941.474531 241.868904 
" clip-path="url(#pe0ba3c120f)" style="fill: none; stroke: #444444; stroke-width: 1.5; stroke-linecap: round"/>
    <g clip-path="url(#pe0ba3c120f)">
     <use xlink:href="#m828e334074" x="941.474531" y="241.868904" style="fill: #ffffff; stroke: #ffffff; stroke-width: 1.125"/>
    </g>
   </g>
   <g id="line2d_28">
    <path d="M 588.524625 350.228554 
L 1059.1245 350.228554 
" clip-path="url(#pe0ba3c120f)" style="fill: none; stroke-dasharray: 4.44,1.92; stroke-dashoffset: 0; stroke: #000000; stroke-width: 1.2"/>
   </g>
   <g id="line2d_29">
    <path d="M 588.524625 331.448285 
L 1059.1245 331.448285 
" clip-path="url(#pe0ba3c120f)" style="fill: none; stroke-dasharray: 1.2,1.98; stroke-dashoffset: 0; stroke: #808080; stroke-width: 1.2"/>
   </g>
   <g id="patch_45">
    <path d="M 588.524625 376.20525 
L 588.524625 35.84925 
" style="fill: none; stroke: #262626; stroke-width: 1.25; stroke-linejoin: miter; stroke-linecap: square"/>
   </g>
   <g id="patch_46">
    <path d="M 1059.1245 376.20525 
L 1059.1245 35.84925 
" style="fill: none; stroke: #262626; stroke-width: 1.25; stroke-linejoin: miter; stroke-linecap: square"/>
   </g>
   <g id="patch_47">
    <path d="M 588.524625 376.20525 
L 1059.1245 376.20525 
" style="fill: none; stroke: #262626; stroke-width: 1.25; stroke-linejoin: miter; stroke-linecap: square"/>
   </g>
   <g id="patch_48">
    <path d="M 588.524625 35.84925 
L 1059.1245 35.84925 
" style="fill: none; stroke: #262626; stroke-width: 1.25; stroke-linejoin: miter; stroke-linecap: square"/>
   </g>
   <g id="text_33">
    <!-- Pocket Proximity: -->
    <g style="fill: #262626" transform="translate(763.996125 16.318125) scale(0.12 -0.12)">
     <defs>
      <path id="DejaVuSans-Bold-50" d="M 588 4666 
L 2584 4666 
Q 3475 4666 3951 4270 
Q 4428 3875 4428 3144 
Q 4428 2409 3951 2014 
Q 3475 1619 2584 1619 
L 1791 1619 
L 1791 0 
L 588 0 
L 588 4666 
z
M 1791 3794 
L 1791 2491 
L 2456 2491 
Q 2806 2491 2997 2661 
Q 3188 2831 3188 3144 
Q 3188 3456 2997 3625 
Q 2806 3794 2456 3794 
L 1791 3794 
z
" transform="scale(0.015625)"/>
      <path id="DejaVuSans-Bold-6b" d="M 538 4863 
L 1656 4863 
L 1656 2216 
L 2944 3500 
L 4244 3500 
L 2534 1894 
L 4378 0 
L 3022 0 
L 1656 1459 
L 1656 0 
L 538 0 
L 538 4863 
z
" transform="scale(0.015625)"/>
      <path id="DejaVuSans-Bold-78" d="M 1422 1791 
L 159 3500 
L 1344 3500 
L 2059 2463 
L 2784 3500 
L 3969 3500 
L 2706 1797 
L 4031 0 
L 2847 0 
L 2059 1106 
L 1281 0 
L 97 0 
L 1422 1791 
z
" transform="scale(0.015625)"/>
      <path id="DejaVuSans-Bold-6d" d="M 3781 2919 
Q 3994 3244 4286 3414 
Q 4578 3584 4928 3584 
Q 5531 3584 5847 3212 
Q 6163 2841 6163 2131 
L 6163 0 
L 5038 0 
L 5038 1825 
Q 5041 1866 5042 1909 
Q 5044 1953 5044 2034 
Q 5044 2406 4934 2573 
Q 4825 2741 4581 2741 
Q 4263 2741 4089 2478 
Q 3916 2216 3909 1719 
L 3909 0 
L 2784 0 
L 2784 1825 
Q 2784 2406 2684 2573 
Q 2584 2741 2328 2741 
Q 2006 2741 1831 2477 
Q 1656 2213 1656 1722 
L 1656 0 
L 531 0 
L 531 3500 
L 1656 3500 
L 1656 2988 
Q 1863 3284 2130 3434 
Q 2397 3584 2719 3584 
Q 3081 3584 3359 3409 
Q 3638 3234 3781 2919 
z
" transform="scale(0.015625)"/>
      <path id="DejaVuSans-Bold-3a" d="M 716 3500 
L 1844 3500 
L 1844 2291 
L 716 2291 
L 716 3500 
z
M 716 1209 
L 1844 1209 
L 1844 0 
L 716 0 
L 716 1209 
z
" transform="scale(0.015625)"/>
     </defs>
     <use xlink:href="#DejaVuSans-Bold-50"/>
     <use xlink:href="#DejaVuSans-Bold-6f" transform="translate(73.291016 0)"/>
     <use xlink:href="#DejaVuSans-Bold-63" transform="translate(141.992188 0)"/>
     <use xlink:href="#DejaVuSans-Bold-6b" transform="translate(201.269531 0)"/>
     <use xlink:href="#DejaVuSans-Bold-65" transform="translate(265.148438 0)"/>
     <use xlink:href="#DejaVuSans-Bold-74" transform="translate(332.970703 0)"/>
     <use xlink:href="#DejaVuSans-Bold-20" transform="translate(380.773438 0)"/>
     <use xlink:href="#DejaVuSans-Bold-50" transform="translate(415.587891 0)"/>
     <use xlink:href="#DejaVuSans-Bold-72" transform="translate(488.878906 0)"/>
     <use xlink:href="#DejaVuSans-Bold-6f" transform="translate(538.195312 0)"/>
     <use xlink:href="#DejaVuSans-Bold-78" transform="translate(606.896484 0)"/>
     <use xlink:href="#DejaVuSans-Bold-69" transform="translate(671.398438 0)"/>
     <use xlink:href="#DejaVuSans-Bold-6d" transform="translate(705.675781 0)"/>
     <use xlink:href="#DejaVuSans-Bold-69" transform="translate(809.875 0)"/>
     <use xlink:href="#DejaVuSans-Bold-74" transform="translate(844.152344 0)"/>
     <use xlink:href="#DejaVuSans-Bold-79" transform="translate(891.955078 0)"/>
     <use xlink:href="#DejaVuSans-Bold-3a" transform="translate(957.140625 0)"/>
    </g>
    <!-- Pathogenic vs VUS Variants -->
    <g style="fill: #262626" transform="translate(730.302375 29.84925) scale(0.12 -0.12)">
     <defs>
      <path id="DejaVuSans-Bold-68" d="M 4056 2131 
L 4056 0 
L 2931 0 
L 2931 347 
L 2931 1625 
Q 2931 2084 2911 2256 
Q 2891 2428 2841 2509 
Q 2775 2619 2662 2680 
Q 2550 2741 2406 2741 
Q 2056 2741 1856 2470 
Q 1656 2200 1656 1722 
L 1656 0 
L 538 0 
L 538 4863 
L 1656 4863 
L 1656 2988 
Q 1909 3294 2193 3439 
Q 2478 3584 2822 3584 
Q 3428 3584 3742 3212 
Q 4056 2841 4056 2131 
z
" transform="scale(0.015625)"/>
      <path id="DejaVuSans-Bold-76" d="M 97 3500 
L 1216 3500 
L 2088 1081 
L 2956 3500 
L 4078 3500 
L 2700 0 
L 1472 0 
L 97 3500 
z
" transform="scale(0.015625)"/>
      <path id="DejaVuSans-Bold-55" d="M 588 4666 
L 1791 4666 
L 1791 1869 
Q 1791 1291 1980 1042 
Q 2169 794 2597 794 
Q 3028 794 3217 1042 
Q 3406 1291 3406 1869 
L 3406 4666 
L 4609 4666 
L 4609 1869 
Q 4609 878 4112 393 
Q 3616 -91 2597 -91 
Q 1581 -91 1084 393 
Q 588 878 588 1869 
L 588 4666 
z
" transform="scale(0.015625)"/>
      <path id="DejaVuSans-Bold-53" d="M 3834 4519 
L 3834 3531 
Q 3450 3703 3084 3790 
Q 2719 3878 2394 3878 
Q 1963 3878 1756 3759 
Q 1550 3641 1550 3391 
Q 1550 3203 1689 3098 
Q 1828 2994 2194 2919 
L 2706 2816 
Q 3484 2659 3812 2340 
Q 4141 2022 4141 1434 
Q 4141 663 3683 286 
Q 3225 -91 2284 -91 
Q 1841 -91 1394 -6 
Q 947 78 500 244 
L 500 1259 
Q 947 1022 1364 901 
Q 1781 781 2169 781 
Q 2563 781 2772 912 
Q 2981 1044 2981 1288 
Q 2981 1506 2839 1625 
Q 2697 1744 2272 1838 
L 1806 1941 
Q 1106 2091 782 2419 
Q 459 2747 459 3303 
Q 459 4000 909 4375 
Q 1359 4750 2203 4750 
Q 2588 4750 2994 4692 
Q 3400 4634 3834 4519 
z
" transform="scale(0.015625)"/>
     </defs>
     <use xlink:href="#DejaVuSans-Bold-50"/>
     <use xlink:href="#DejaVuSans-Bold-61" transform="translate(70.666016 0)"/>
     <use xlink:href="#DejaVuSans-Bold-74" transform="translate(138.146484 0)"/>
     <use xlink:href="#DejaVuSans-Bold-68" transform="translate(185.949219 0)"/>
     <use xlink:href="#DejaVuSans-Bold-6f" transform="translate(257.140625 0)"/>
     <use xlink:href="#DejaVuSans-Bold-67" transform="translate(325.841797 0)"/>
     <use xlink:href="#DejaVuSans-Bold-65" transform="translate(397.423828 0)"/>
     <use xlink:href="#DejaVuSans-Bold-6e" transform="translate(465.246094 0)"/>
     <use xlink:href="#DejaVuSans-Bold-69" transform="translate(536.4375 0)"/>
     <use xlink:href="#DejaVuSans-Bold-63" transform="translate(570.714844 0)"/>
     <use xlink:href="#DejaVuSans-Bold-20" transform="translate(629.992188 0)"/>
     <use xlink:href="#DejaVuSans-Bold-76" transform="translate(664.806641 0)"/>
     <use xlink:href="#DejaVuSans-Bold-73" transform="translate(729.992188 0)"/>
     <use xlink:href="#DejaVuSans-Bold-20" transform="translate(789.513672 0)"/>
     <use xlink:href="#DejaVuSans-Bold-56" transform="translate(824.328125 0)"/>
     <use xlink:href="#DejaVuSans-Bold-55" transform="translate(901.720703 0)"/>
     <use xlink:href="#DejaVuSans-Bold-53" transform="translate(982.921875 0)"/>
     <use xlink:href="#DejaVuSans-Bold-20" transform="translate(1054.943359 0)"/>
     <use xlink:href="#DejaVuSans-Bold-56" transform="translate(1089.757812 0)"/>
     <use xlink:href="#DejaVuSans-Bold-61" transform="translate(1161.650391 0)"/>
     <use xlink:href="#DejaVuSans-Bold-72" transform="translate(1229.130859 0)"/>
     <use xlink:href="#DejaVuSans-Bold-69" transform="translate(1278.447266 0)"/>
     <use xlink:href="#DejaVuSans-Bold-61" transform="translate(1312.724609 0)"/>
     <use xlink:href="#DejaVuSans-Bold-6e" transform="translate(1380.205078 0)"/>
     <use xlink:href="#DejaVuSans-Bold-74" transform="translate(1451.396484 0)"/>
     <use xlink:href="#DejaVuSans-Bold-73" transform="translate(1499.199219 0)"/>
    </g>
   </g>
   <g id="legend_2">
    <g id="patch_49">
     <path d="M 961.174969 69.469875 
L 1052.8245 69.469875 
Q 1054.6245 69.469875 1054.6245 67.669875 
L 1054.6245 42.14925 
Q 1054.6245 40.34925 1052.8245 40.34925 
L 961.174969 40.34925 
Q 959.374969 40.34925 959.374969 42.14925 
L 959.374969 67.669875 
Q 959.374969 69.469875 961.174969 69.469875 
z
" style="fill: #ffffff; opacity: 0.8; stroke: #cccccc; stroke-linejoin: miter"/>
    </g>
    <g id="line2d_30">
     <path d="M 962.974969 47.637844 
L 971.974969 47.637844 
L 980.974969 47.637844 
" style="fill: none; stroke-dasharray: 4.44,1.92; stroke-dashoffset: 0; stroke: #000000; stroke-width: 1.2"/>
    </g>
    <g id="text_34">
     <!-- 8Å threshold -->
     <g style="fill: #262626" transform="translate(988.174969 50.787844) scale(0.09 -0.09)">
      <defs>
       <path id="DejaVuSans-68" d="M 3513 2113 
L 3513 0 
L 2938 0 
L 2938 2094 
Q 2938 2591 2744 2837 
Q 2550 3084 2163 3084 
Q 1697 3084 1428 2787 
Q 1159 2491 1159 1978 
L 1159 0 
L 581 0 
L 581 4863 
L 1159 4863 
L 1159 2956 
Q 1366 3272 1645 3428 
Q 1925 3584 2291 3584 
Q 2894 3584 3203 3211 
Q 3513 2838 3513 2113 
z
" transform="scale(0.015625)"/>
      </defs>
      <use xlink:href="#DejaVuSans-38"/>
      <use xlink:href="#DejaVuSans-c5" transform="translate(63.623047 0)"/>
      <use xlink:href="#DejaVuSans-20" transform="translate(132.03125 0)"/>
      <use xlink:href="#DejaVuSans-74" transform="translate(163.818359 0)"/>
      <use xlink:href="#DejaVuSans-68" transform="translate(203.027344 0)"/>
      <use xlink:href="#DejaVuSans-72" transform="translate(266.40625 0)"/>
      <use xlink:href="#DejaVuSans-65" transform="translate(305.269531 0)"/>
      <use xlink:href="#DejaVuSans-73" transform="translate(366.792969 0)"/>
      <use xlink:href="#DejaVuSans-68" transform="translate(418.892578 0)"/>
      <use xlink:href="#DejaVuSans-6f" transform="translate(482.271484 0)"/>
      <use xlink:href="#DejaVuSans-6c" transform="translate(543.453125 0)"/>
      <use xlink:href="#DejaVuSans-64" transform="translate(571.236328 0)"/>
     </g>
    </g>
    <g id="line2d_31">
     <path d="M 962.974969 60.848156 
L 971.974969 60.848156 
L 980.974969 60.848156 
" style="fill: none; stroke-dasharray: 1.2,1.98; stroke-dashoffset: 0; stroke: #808080; stroke-width: 1.2"/>
    </g>
    <g id="text_35">
     <!-- 15Å threshold -->
     <g style="fill: #262626" transform="translate(988.174969 63.998156) scale(0.09 -0.09)">
      <use xlink:href="#DejaVuSans-31"/>
      <use xlink:href="#DejaVuSans-35" transform="translate(63.623047 0)"/>
      <use xlink:href="#DejaVuSans-c5" transform="translate(127.246094 0)"/>
      <use xlink:href="#DejaVuSans-20" transform="translate(195.654297 0)"/>
      <use xlink:href="#DejaVuSans-74" transform="translate(227.441406 0)"/>
      <use xlink:href="#DejaVuSans-68" transform="translate(266.650391 0)"/>
      <use xlink:href="#DejaVuSans-72" transform="translate(330.029297 0)"/>
      <use xlink:href="#DejaVuSans-65" transform="translate(368.892578 0)"/>
      <use xlink:href="#DejaVuSans-73" transform="translate(430.416016 0)"/>
      <use xlink:href="#DejaVuSans-68" transform="translate(482.515625 0)"/>
      <use xlink:href="#DejaVuSans-6f" transform="translate(545.894531 0)"/>
      <use xlink:href="#DejaVuSans-6c" transform="translate(607.076172 0)"/>
      <use xlink:href="#DejaVuSans-64" transform="translate(634.859375 0)"/>
     </g>
    </g>
   </g>
  </g>
 </g>
 <defs>
  <clipPath id="pa5b3ad4a22">
   <rect x="54.9405" y="35.84925" width="470.599875" height="340.356"/>
  </clipPath>
  <clipPath id="pe0ba3c120f">
   <rect x="588.524625" y="35.84925" width="470.599875" height="340.356"/>
  </clipPath>
 </defs>
</svg>
